SplineFontDB: 3.0
FontName: Chathura-ExtraBold
FullName: Chathura Extra Bold
FamilyName: Chathura
Weight: Bold
Copyright: Copyright (c) 2015 by Aditya Fonts. All rights reserved.
Version: 1.00 2015
ItalicAngle: 0
UnderlinePosition: -613
UnderlineWidth: 20
Ascent: 800
Descent: 200
InvalidEm: 0
sfntRevision: 0x00010000
LayerCount: 2
Layer: 0 1 "Back" 1
Layer: 1 1 "Fore" 0
XUID: [1021 73 2087734359 7214598]
FSType: 0
OS2Version: 3
OS2_WeightWidthSlopeOnly: 0
OS2_UseTypoMetrics: 1
CreationTime: 1374624000
ModificationTime: 1436265462
PfmFamily: 17
TTFWeight: 600
TTFWidth: 5
LineGap: 0
VLineGap: 0
Panose: 2 0 6 0 0 0 0 0 0 0
OS2TypoAscent: 895
OS2TypoAOffset: 0
OS2TypoDescent: -310
OS2TypoDOffset: 0
OS2TypoLinegap: 448
OS2WinAscent: 895
OS2WinAOffset: 0
OS2WinDescent: 653
OS2WinDOffset: 0
HheadAscent: 895
HheadAOffset: 0
HheadDescent: -653
HheadDOffset: 0
OS2SubXSize: 700
OS2SubYSize: 650
OS2SubXOff: 0
OS2SubYOff: 200
OS2SupXSize: 700
OS2SupYSize: 650
OS2SupXOff: 0
OS2SupYOff: 500
OS2StrikeYSize: 50
OS2StrikeYPos: 250
OS2CapHeight: 0
OS2XHeight: 0
OS2Vendor: 'AAD '
OS2CodePages: 00000003.00000000
OS2UnicodeRanges: 80200003.00000000.00000000.00000000
Lookup: 4 0 0 "'akhn' Akhand in Telugu lookup 0" { "'akhn' Akhand in Telugu lookup 0 subtable"  } ['akhn' ('telu' <'dflt' > ) ]
Lookup: 4 0 0 "'blwf' Below Base Forms in Telugu lookup 1" { "'blwf' Below Base Forms in Telugu lookup 1 subtable"  } ['blwf' ('telu' <'dflt' > ) ]
Lookup: 4 0 0 "'blwf' Below Base Forms in Telugu lookup 2" { "'blwf' Below Base Forms in Telugu lookup 2 subtable"  } ['blwf' ('telu' <'dflt' > ) ]
Lookup: 4 0 0 "'blwf' Below Base Forms in Telugu lookup 3" { "'blwf' Below Base Forms in Telugu lookup 3 subtable"  } ['blwf' ('telu' <'dflt' > ) ]
Lookup: 4 0 0 "'abvs' Above Base Substitutions in Telugu lookup 4" { "'abvs' Above Base Substitutions in Telugu lookup 4 subtable"  } ['abvs' ('telu' <'dflt' > ) ]

StartChar: .notdef
Encoding: 65536 -1 0
Width: 800
GlyphClass: 2
Flags: W
LayerCount: 2
Back
Fore
SplineSet
700 700 m 1,0,-1
 700 0 l 1,1,-1
 100 0 l 1,2,-1
 100 700 l 1,3,-1
 700 700 l 1,0,-1
650 650 m 1,4,-1
 150 650 l 1,5,-1
 150 50 l 1,6,-1
 650 50 l 1,7,-1
 650 650 l 1,4,-1
EndSplineSet
EndChar

StartChar: exclam
Encoding: 33 33 4
Width: 178
GlyphClass: 2
Flags: W
LayerCount: 2
Back
Fore
SplineSet
103 174 m 0,0,1
 100.965217391 151.617391304 100.965217391 151.617391304 88 151 c 2,2,-1
 67 150 l 2,3,4
 56 149 56 149 54 174 c 0,5,6
 53 197 53 197 52.5 250.5 c 128,-1,7
 52 304 52 304 52 398 c 2,8,-1
 52 457 l 2,9,10
 52 465 52 465 55 473.5 c 128,-1,11
 58 482 58 482 65 482 c 2,12,-1
 93 482 l 2,13,14
 100 482 100 482 103 473.5 c 128,-1,15
 106 465 106 465 106 457 c 2,16,-1
 106 398 l 2,17,18
 106 341 106 341 105.5 286 c 0,19,20
 105 193 105 193 103 174 c 0,0,1
65 0 m 2,21,22
 59 0 59 0 55.5 8.5 c 128,-1,23
 52 17 52 17 52 25 c 2,24,-1
 52 98 l 2,25,26
 52 106 52 106 55.5 114.5 c 128,-1,27
 59 123 59 123 65 123 c 2,28,-1
 92 123 l 2,29,30
 99 123 99 123 102 114.5 c 128,-1,31
 105 106 105 106 105 98 c 2,32,-1
 105 25 l 2,33,34
 105 17 105 17 102 8.5 c 128,-1,35
 99 0 99 0 92 0 c 2,36,-1
 65 0 l 2,21,22
EndSplineSet
EndChar

StartChar: quotedbl
Encoding: 34 34 5
Width: 243
GlyphClass: 2
Flags: W
LayerCount: 2
Back
Fore
SplineSet
186 353 m 2,0,1
 186 344 186 344 180.5 337.5 c 128,-1,2
 175 331 175 331 164 331 c 2,3,-1
 162 331 l 2,4,5
 151 331 151 331 145.5 337.5 c 128,-1,6
 140 344 140 344 140 353 c 2,7,-1
 137 459 l 2,8,9
 137 482 137 482 159 482 c 2,10,-1
 169 482 l 2,11,12
 179 482 179 482 184.5 475 c 128,-1,13
 190 468 190 468 190 459 c 2,14,-1
 186 353 l 2,0,1
102 353 m 2,15,16
 102 346 102 346 97 338.5 c 128,-1,17
 92 331 92 331 80 331 c 2,18,-1
 78 331 l 2,19,20
 66 331 66 331 61.5 338.5 c 128,-1,21
 57 346 57 346 57 353 c 2,22,-1
 52 459 l 2,23,24
 51 470 51 470 58 476 c 128,-1,25
 65 482 65 482 74 482 c 2,26,-1
 84 482 l 2,27,28
 93 482 93 482 100 476 c 128,-1,29
 107 470 107 470 106 459 c 2,30,-1
 102 353 l 2,15,16
EndSplineSet
EndChar

StartChar: numbersign
Encoding: 35 35 6
Width: 509
GlyphClass: 2
Flags: W
LayerCount: 2
Back
Fore
SplineSet
384 305 m 1,0,-1
 347 177 l 1,1,-1
 391 177 l 2,2,3
 400 177 400 177 408 171 c 128,-1,4
 416 165 416 165 416 153 c 2,5,-1
 416 144 l 2,6,7
 416 132 416 132 408 126 c 128,-1,8
 400 120 400 120 391 120 c 2,9,-1
 331 120 l 1,10,-1
 303 21 l 2,11,12
 301 15 301 15 295 7.5 c 128,-1,13
 289 0 289 0 277 0 c 2,14,-1
 270 0 l 2,15,16
 259 0 259 0 254 4.5 c 128,-1,17
 249 9 249 9 247.5 15 c 128,-1,18
 246 21 246 21 246.5 27 c 128,-1,19
 247 33 247 33 248 36 c 2,20,-1
 272 120 l 1,21,-1
 168 120 l 1,22,-1
 140 20 l 2,23,24
 138 15 138 15 132 7.5 c 128,-1,25
 126 0 126 0 114 0 c 2,26,-1
 106 0 l 2,27,28
 88 0 88 0 85 12.5 c 128,-1,29
 82 25 82 25 85 36 c 2,30,-1
 109 120 l 1,31,-1
 70 120 l 2,32,33
 61 120 61 120 53 126 c 128,-1,34
 45 132 45 132 45 144 c 2,35,-1
 45 153 l 2,36,37
 45 165 45 165 53 171 c 128,-1,38
 61 177 61 177 70 177 c 2,39,-1
 125 177 l 1,40,-1
 162 305 l 1,41,-1
 118 305 l 2,42,43
 109 305 109 305 101 311 c 128,-1,44
 93 317 93 317 93 329 c 2,45,-1
 93 338 l 2,46,47
 93 350 93 350 101 356 c 128,-1,48
 109 362 109 362 118 362 c 2,49,-1
 178 362 l 1,50,-1
 206 461 l 2,51,52
 208 469 208 469 215 475.5 c 128,-1,53
 222 482 222 482 233 482 c 2,54,-1
 239 482 l 2,55,56
 249 482 249 482 254 477.5 c 128,-1,57
 259 473 259 473 261 467 c 128,-1,58
 263 461 263 461 262.5 455.5 c 128,-1,59
 262 450 262 450 261 448 c 2,60,-1
 237 362 l 1,61,-1
 341 362 l 1,62,-1
 369 462 l 2,63,64
 371 468 371 468 377.5 475 c 128,-1,65
 384 482 384 482 396 482 c 2,66,-1
 401 482 l 2,67,68
 411 482 411 482 416 477.5 c 128,-1,69
 421 473 421 473 423.5 467 c 128,-1,70
 426 461 426 461 425.5 455.5 c 128,-1,71
 425 450 425 450 424 448 c 2,72,-1
 400 362 l 1,73,-1
 439 362 l 2,74,75
 448 362 448 362 456 356 c 128,-1,76
 464 350 464 350 464 338 c 2,77,-1
 464 329 l 2,78,79
 464 317 464 317 456 311 c 128,-1,80
 448 305 448 305 439 305 c 2,81,-1
 384 305 l 1,0,-1
221 305 m 1,82,-1
 185 177 l 1,83,-1
 288 177 l 1,84,-1
 324 305 l 1,85,-1
 221 305 l 1,82,-1
EndSplineSet
EndChar

StartChar: dollar
Encoding: 36 36 7
Width: 373
GlyphClass: 2
Flags: W
LayerCount: 2
Back
Fore
SplineSet
194 -5 m 1,0,-1
 223 26 l 1,1,-1
 223 -48 l 2,2,3
 223 -57 223 -57 217.5 -65.5 c 128,-1,4
 212 -74 212 -74 200 -74 c 2,5,-1
 191 -74 l 2,6,7
 179 -74 179 -74 173.5 -65.5 c 128,-1,8
 168 -57 168 -57 168 -48 c 2,9,-1
 168 -5 l 1,10,-1
 161 -5 l 2,11,12
 113 -5 113 -5 84.5 26 c 128,-1,13
 56 57 56 57 56 111 c 2,14,-1
 56 134 l 2,15,16
 56 143 56 143 61.5 151.5 c 128,-1,17
 67 160 67 160 79 160 c 2,18,-1
 89 160 l 2,19,20
 101 160 101 160 106.5 151.5 c 128,-1,21
 112 143 112 143 112 134 c 2,22,-1
 112 111 l 2,23,24
 112 81 112 81 124 67.5 c 128,-1,25
 136 54 136 54 161 54 c 2,26,-1
 213 54 l 2,27,28
 237 54 237 54 249.5 67.5 c 128,-1,29
 262 81 262 81 262 111 c 2,30,-1
 262 161 l 2,31,32
 262 193 262 193 251 204 c 128,-1,33
 240 215 240 215 211 215 c 2,34,-1
 165 215 l 2,35,36
 114 215 114 215 85 240 c 128,-1,37
 56 265 56 265 56 325 c 2,38,-1
 56 373 l 2,39,40
 56 427 56 427 84.5 457.5 c 128,-1,41
 113 488 113 488 161 488 c 2,42,-1
 168 488 l 1,43,-1
 168 531 l 2,44,45
 168 540 168 540 173.5 548.5 c 128,-1,46
 179 557 179 557 191 557 c 2,47,-1
 200 557 l 2,48,49
 212 557 212 557 217.5 548.5 c 128,-1,50
 223 540 223 540 223 531 c 2,51,-1
 223 488 l 1,52,53
 266 484 266 484 291.5 453 c 128,-1,54
 317 422 317 422 317 373 c 2,55,-1
 317 352 l 2,56,57
 317 343 317 343 311.5 334.5 c 128,-1,58
 306 326 306 326 294 326 c 2,59,-1
 285 326 l 2,60,61
 272 326 272 326 267 334.5 c 128,-1,62
 262 343 262 343 262 352 c 2,63,-1
 262 373 l 2,64,65
 262 430 262 430 213 430 c 2,66,-1
 161 430 l 2,67,68
 112 430 112 430 112 373 c 2,69,-1
 112 325 l 2,70,71
 112 293 112 293 122.5 283 c 128,-1,72
 133 273 133 273 161 273 c 2,73,-1
 213 273 l 2,74,75
 264 273 264 273 290.5 244.5 c 128,-1,76
 317 216 317 216 317 162 c 2,77,-1
 317 111 l 2,78,79
 317 59 317 59 289 27 c 128,-1,80
 261 -5 261 -5 213 -5 c 2,81,-1
 194 -5 l 1,0,-1
EndSplineSet
EndChar

StartChar: percent
Encoding: 37 37 8
Width: 533
GlyphClass: 2
Flags: W
LayerCount: 2
Back
Fore
SplineSet
386 0 m 2,0,1
 286 0 286 0 286 103 c 2,2,-1
 286 138 l 2,3,4
 286 241 286 241 386 241 c 2,5,-1
 397 241 l 2,6,7
 496 241 496 241 496 138 c 2,8,-1
 496 103 l 2,9,10
 496 0 496 0 397 0 c 2,11,-1
 386 0 l 2,0,1
199 18 m 2,12,13
 196 13 196 13 190 6.5 c 128,-1,14
 184 0 184 0 172 0 c 2,15,-1
 166 0 l 2,16,17
 156 0 156 0 151 4 c 128,-1,18
 146 8 146 8 144 13.5 c 128,-1,19
 142 19 142 19 142.5 25 c 128,-1,20
 143 31 143 31 145 35 c 2,21,-1
 334 465 l 2,22,23
 337 469 337 469 343 475.5 c 128,-1,24
 349 482 349 482 361 482 c 2,25,-1
 367 482 l 2,26,27
 377 482 377 482 382.5 478 c 128,-1,28
 388 474 388 474 389.5 468 c 128,-1,29
 391 462 391 462 390 456 c 128,-1,30
 389 450 389 450 387 446 c 2,31,-1
 199 18 l 2,12,13
137 245 m 2,32,33
 37 245 37 245 37 349 c 2,34,-1
 37 383 l 2,35,36
 37 486 37 486 137 486 c 2,37,-1
 148 486 l 2,38,39
 247 486 247 486 247 383 c 2,40,-1
 247 349 l 2,41,42
 247 245 247 245 148 245 c 2,43,-1
 137 245 l 2,32,33
437 137 m 2,44,45
 437 167 437 167 429 175 c 128,-1,46
 421 183 421 183 397 183 c 2,47,-1
 386 183 l 2,48,49
 361 183 361 183 353 174.5 c 128,-1,50
 345 166 345 166 345 137 c 2,51,-1
 345 104 l 2,52,53
 345 75 345 75 353 66 c 128,-1,54
 361 57 361 57 386 57 c 2,55,-1
 397 57 l 2,56,57
 421 57 421 57 429 65.5 c 128,-1,58
 437 74 437 74 437 104 c 2,59,-1
 437 137 l 2,44,45
188 382 m 2,60,61
 188 411 188 411 180 420 c 128,-1,62
 172 429 172 429 148 429 c 2,63,-1
 137 429 l 2,64,65
 112 429 112 429 104 420 c 128,-1,66
 96 411 96 411 96 382 c 2,67,-1
 96 349 l 2,68,69
 96 320 96 320 104 311.5 c 128,-1,70
 112 303 112 303 137 303 c 2,71,-1
 148 303 l 2,72,73
 172 303 172 303 180 311.5 c 128,-1,74
 188 320 188 320 188 349 c 2,75,-1
 188 382 l 2,60,61
EndSplineSet
EndChar

StartChar: ampersand
Encoding: 38 38 9
Width: 347
GlyphClass: 2
Flags: W
LayerCount: 2
Back
Fore
SplineSet
253 2 m 1,0,-1
 241 18 l 1,1,-1
 221 41 l 1,2,-1
 228 64 l 1,3,-1
 228 123 l 1,4,-1
 328 2 l 1,5,-1
 253 2 l 1,0,-1
71 -1 m 2,6,7
 47 -1 47 -1 27.5 19 c 128,-1,8
 8 39 8 39 8 71 c 2,9,-1
 8 174 l 2,10,11
 8 233 8 233 44 258 c 1,12,13
 42 265 42 265 41.5 270 c 128,-1,14
 41 275 41 275 41 278 c 2,15,-1
 40 316 l 2,16,17
 39 349 39 349 58.5 368 c 128,-1,18
 78 387 78 387 110 389 c 2,19,-1
 150 391 l 2,20,21
 176 392 176 392 193.5 371 c 128,-1,22
 211 350 211 350 212 321 c 2,23,-1
 213 265 l 2,24,25
 213 253 213 253 207.5 243 c 128,-1,26
 202 233 202 233 193.5 225.5 c 128,-1,27
 185 218 185 218 174.5 213.5 c 128,-1,28
 164 209 164 209 155 209 c 1,29,30
 162 201 162 201 168 193.5 c 128,-1,31
 174 186 174 186 180 178 c 0,32,33
 203 149 203 149 224 125.5 c 128,-1,34
 245 102 245 102 254 94 c 1,35,-1
 254 63 l 2,36,37
 254 61 254 61 253 61 c 2,38,-1
 253 60 l 1,39,-1
 253 2 l 1,40,-1
 201 63 l 1,41,-1
 156 116 l 2,42,43
 135 141 135 141 114.5 165.5 c 128,-1,44
 94 190 94 190 80 206 c 1,45,46
 75 204 75 204 70 196 c 128,-1,47
 65 188 65 188 65 169 c 2,48,-1
 65 71 l 2,49,50
 65 65 65 65 73 63 c 2,51,-1
 201 63 l 1,52,-1
 207 63 l 2,53,54
 214 63 214 63 214 72 c 2,55,-1
 214 169 l 1,56,-1
 271 169 l 1,57,-1
 271 71 l 2,58,59
 271 61 271 61 267.5 48.5 c 128,-1,60
 264 36 264 36 256.5 25 c 128,-1,61
 249 14 249 14 237 6.5 c 128,-1,62
 225 -1 225 -1 208 -1 c 2,63,-1
 71 -1 l 2,6,7
155 316 m 2,64,65
 154 324 154 324 152.5 325.5 c 128,-1,66
 151 327 151 327 148 327 c 2,67,-1
 105 326 l 2,68,69
 102 326 102 326 99.5 323.5 c 128,-1,70
 97 321 97 321 97 313 c 2,71,-1
 97 277 l 2,72,73
 97 270 97 270 99.5 268.5 c 128,-1,74
 102 267 102 267 108 267 c 0,75,76
 116 268 116 268 126.5 270.5 c 128,-1,77
 137 273 137 273 148 273 c 0,78,79
 153 273 153 273 155 273.5 c 128,-1,80
 157 274 157 274 157 279 c 2,81,-1
 155 316 l 2,64,65
EndSplineSet
EndChar

StartChar: quotesingle
Encoding: 39 39 10
Width: 139
GlyphClass: 2
Flags: W
LayerCount: 2
Back
Fore
SplineSet
91 353 m 0,0,1
 90 347 90 347 87.5 339 c 128,-1,2
 85 331 85 331 78 331 c 2,3,-1
 60 331 l 2,4,5
 54 331 54 331 50.5 338 c 128,-1,6
 47 345 47 345 47 353 c 2,7,-1
 46 459 l 2,8,9
 46 466 46 466 48.5 474 c 128,-1,10
 51 482 51 482 59 482 c 2,11,-1
 80 482 l 2,12,13
 87 482 87 482 90 472 c 128,-1,14
 93 462 93 462 93 445 c 128,-1,15
 93 428 93 428 92 404.5 c 128,-1,16
 91 381 91 381 91 353 c 0,0,1
EndSplineSet
EndChar

StartChar: parenleft
Encoding: 40 40 11
Width: 208
GlyphClass: 2
Flags: W
LayerCount: 2
Back
Fore
SplineSet
132 -77 m 2,0,1
 92 -77 92 -77 68.5 -45.5 c 128,-1,2
 45 -14 45 -14 45 37 c 2,3,-1
 45 368 l 2,4,5
 45 419 45 419 68.5 450.5 c 128,-1,6
 92 482 92 482 132 482 c 2,7,-1
 134 482 l 2,8,9
 143 482 143 482 149 475 c 128,-1,10
 155 468 155 468 155 457 c 2,11,-1
 155 449 l 2,12,13
 155 438 155 438 149 431 c 128,-1,14
 143 424 143 424 134 424 c 2,15,-1
 132 424 l 2,16,17
 113 424 113 424 103 411 c 128,-1,18
 93 398 93 398 93 367 c 2,19,-1
 93 38 l 2,20,21
 93 8 93 8 103 -5.5 c 128,-1,22
 113 -19 113 -19 132 -19 c 2,23,-1
 134 -19 l 2,24,25
 143 -19 143 -19 149 -26 c 128,-1,26
 155 -33 155 -33 155 -44 c 2,27,-1
 155 -52 l 2,28,29
 155 -63 155 -63 149 -70 c 128,-1,30
 143 -77 143 -77 134 -77 c 2,31,-1
 132 -77 l 2,0,1
EndSplineSet
EndChar

StartChar: parenright
Encoding: 41 41 12
Width: 208
GlyphClass: 2
Flags: W
LayerCount: 2
Back
Fore
SplineSet
66 -77 m 2,0,1
 57 -77 57 -77 51 -70 c 128,-1,2
 45 -63 45 -63 45 -52 c 2,3,-1
 45 -44 l 2,4,5
 45 -33 45 -33 51 -26 c 128,-1,6
 57 -19 57 -19 66 -19 c 2,7,-1
 68 -19 l 2,8,9
 87 -19 87 -19 97 -5.5 c 128,-1,10
 107 8 107 8 107 38 c 2,11,-1
 107 367 l 2,12,13
 107 398 107 398 97 411 c 128,-1,14
 87 424 87 424 68 424 c 2,15,-1
 66 424 l 2,16,17
 57 424 57 424 51 431 c 128,-1,18
 45 438 45 438 45 449 c 2,19,-1
 45 457 l 2,20,21
 45 468 45 468 51 475 c 128,-1,22
 57 482 57 482 66 482 c 2,23,-1
 68 482 l 2,24,25
 108 482 108 482 131.5 450.5 c 128,-1,26
 155 419 155 419 155 368 c 2,27,-1
 155 37 l 2,28,29
 155 -14 155 -14 131.5 -45.5 c 128,-1,30
 108 -77 108 -77 68 -77 c 2,31,-1
 66 -77 l 2,0,1
EndSplineSet
EndChar

StartChar: asterisk
Encoding: 42 42 13
Width: 306
GlyphClass: 2
Flags: W
LayerCount: 2
Back
Fore
SplineSet
232 381 m 0,0,1
 223 378 223 378 214 375 c 128,-1,2
 205 372 205 372 195 370 c 1,3,4
 204 361 204 361 212 348 c 2,5,-1
 220 339 l 2,6,7
 227 328 227 328 223 320 c 128,-1,8
 219 312 219 312 215 308 c 2,9,-1
 206 303 l 2,10,11
 198 298 198 298 189.5 299 c 128,-1,12
 181 300 181 300 175 308 c 0,13,14
 168 317 168 317 162.5 325 c 128,-1,15
 157 333 157 333 153 341 c 1,16,17
 148 333 148 333 142.5 324.5 c 128,-1,18
 137 316 137 316 130 307 c 0,19,20
 123 299 123 299 115.5 298.5 c 128,-1,21
 108 298 108 298 102 301 c 0,22,23
 100 303 100 303 97 304.5 c 128,-1,24
 94 306 94 306 92 308 c 0,25,26
 81 314 81 314 81.5 324.5 c 128,-1,27
 82 335 82 335 86 340 c 0,28,29
 93 349 93 349 99 357 c 128,-1,30
 105 365 105 365 111 371 c 1,31,-1
 72 382 l 2,32,33
 61 385 61 385 58 394 c 128,-1,34
 55 403 55 403 58 411 c 2,35,-1
 61 420 l 2,36,37
 66 431 66 431 74 433 c 128,-1,38
 82 435 82 435 89 434 c 0,39,40
 100 430 100 430 110 427 c 128,-1,41
 120 424 120 424 128 420 c 1,42,43
 127 427 127 427 126.5 434 c 128,-1,44
 126 441 126 441 126 449 c 2,45,-1
 126 459 l 2,46,47
 126 467 126 467 132 474.5 c 128,-1,48
 138 482 138 482 149 482 c 2,49,-1
 158 482 l 2,50,51
 169 482 169 482 175 474.5 c 128,-1,52
 181 467 181 467 181 459 c 2,53,-1
 181 449 l 2,54,55
 181 441 181 441 180.5 434 c 128,-1,56
 180 427 180 427 180 420 c 1,57,58
 195 427 195 427 218 433 c 0,59,60
 235 438 235 438 243 424 c 0,61,62
 247 418 247 418 248 412 c 0,63,64
 252 405 252 405 251 399.5 c 128,-1,65
 250 394 250 394 246.5 390 c 128,-1,66
 243 386 243 386 239 384 c 128,-1,67
 235 382 235 382 232 381 c 0,0,1
EndSplineSet
EndChar

StartChar: plus
Encoding: 43 43 14
Width: 384
GlyphClass: 2
Flags: W
LayerCount: 2
Back
Fore
SplineSet
220 213 m 1,0,-1
 220 125 l 2,1,2
 220 117 220 117 214 109 c 128,-1,3
 208 101 208 101 196 101 c 2,4,-1
 188 101 l 2,5,6
 176 101 176 101 170 109 c 128,-1,7
 164 117 164 117 164 125 c 2,8,-1
 164 213 l 1,9,-1
 76 213 l 2,10,11
 68 213 68 213 60 219 c 128,-1,12
 52 225 52 225 52 237 c 2,13,-1
 52 244 l 2,14,15
 52 256 52 256 60 262 c 128,-1,16
 68 268 68 268 76 268 c 2,17,-1
 164 268 l 1,18,-1
 164 356 l 2,19,20
 164 364 164 364 170 372 c 128,-1,21
 176 380 176 380 188 380 c 2,22,-1
 196 380 l 2,23,24
 208 380 208 380 214 372 c 128,-1,25
 220 364 220 364 220 356 c 2,26,-1
 220 268 l 1,27,-1
 307 268 l 2,28,29
 331 268 331 268 331 244 c 2,30,-1
 331 237 l 2,31,32
 331 213 331 213 307 213 c 2,33,-1
 220 213 l 1,0,-1
EndSplineSet
EndChar

StartChar: comma
Encoding: 44 44 15
Width: 140
GlyphClass: 2
Flags: W
LayerCount: 2
Back
Fore
SplineSet
82 -58 m 0,0,1
 82 -66 82 -66 75 -72 c 0,2,3
 68 -77 68 -77 65 -77 c 0,4,5
 62 -76 62 -76 59 -75 c 128,-1,6
 56 -74 56 -74 52 -72 c 0,7,8
 46 -68 46 -68 46 -54 c 2,9,-1
 43 79 l 2,10,11
 43 86 43 86 46 94 c 128,-1,12
 49 102 49 102 56 102 c 2,13,-1
 78 102 l 2,14,15
 85 102 85 102 88 93 c 2,16,-1
 91 79 l 1,17,18
 94 45 94 45 90 10 c 0,19,20
 86 -22 86 -22 84.5 -39 c 128,-1,21
 83 -56 83 -56 82 -58 c 0,0,1
EndSplineSet
EndChar

StartChar: hyphen
Encoding: 45 45 16
Width: 234
GlyphClass: 2
Flags: W
LayerCount: 2
Back
Fore
SplineSet
53 209 m 2,0,1
 44 209 44 209 37 212 c 128,-1,2
 30 215 30 215 30 220 c 2,3,-1
 30 239 l 2,4,5
 30 244 30 244 37 247 c 128,-1,6
 44 250 44 250 53 250 c 2,7,-1
 181 250 l 2,8,9
 190 250 190 250 197 247 c 128,-1,10
 204 244 204 244 204 239 c 2,11,-1
 204 220 l 2,12,13
 204 215 204 215 197 212 c 128,-1,14
 190 209 190 209 181 209 c 2,15,-1
 53 209 l 2,0,1
EndSplineSet
EndChar

StartChar: period
Encoding: 46 46 17
Width: 140
GlyphClass: 2
Flags: W
LayerCount: 2
Back
Fore
SplineSet
49 0 m 2,0,1
 42 0 42 0 39 7 c 128,-1,2
 36 14 36 14 36 21 c 2,3,-1
 36 82 l 2,4,5
 36 89 36 89 39 96 c 128,-1,6
 42 103 42 103 49 103 c 2,7,-1
 71 103 l 2,8,9
 78 103 78 103 81 96 c 128,-1,10
 84 89 84 89 84 82 c 2,11,-1
 84 21 l 2,12,13
 84 14 84 14 81 7 c 128,-1,14
 78 0 78 0 71 0 c 2,15,-1
 49 0 l 2,0,1
EndSplineSet
EndChar

StartChar: slash
Encoding: 47 47 18
Width: 295
GlyphClass: 2
Flags: W
LayerCount: 2
Back
Fore
SplineSet
108 19 m 2,0,1
 106 14 106 14 100 7 c 128,-1,2
 94 0 94 0 83 0 c 2,3,-1
 75 0 l 2,4,5
 62 0 62 0 55.5 10 c 128,-1,6
 49 20 49 20 54 35 c 2,7,-1
 187 462 l 2,8,9
 189 468 189 468 194.5 475 c 128,-1,10
 200 482 200 482 211 482 c 2,11,-1
 220 482 l 2,12,13
 229 482 229 482 233.5 478 c 128,-1,14
 238 474 238 474 239.5 468.5 c 128,-1,15
 241 463 241 463 241 457.5 c 128,-1,16
 241 452 241 452 240 448 c 2,17,-1
 108 19 l 2,0,1
EndSplineSet
EndChar

StartChar: zero
Encoding: 48 48 19
Width: 381
GlyphClass: 2
Flags: W
LayerCount: 2
Back
Fore
SplineSet
158 0 m 2,0,1
 110 0 110 0 81 31 c 128,-1,2
 52 62 52 62 52 113 c 2,3,-1
 52 369 l 2,4,5
 52 420 52 420 81 451 c 128,-1,6
 110 482 110 482 158 482 c 2,7,-1
 223 482 l 2,8,9
 271 482 271 482 299.5 451 c 128,-1,10
 328 420 328 420 328 369 c 2,11,-1
 328 113 l 2,12,13
 328 62 328 62 299.5 31 c 128,-1,14
 271 0 271 0 223 0 c 2,15,-1
 158 0 l 2,0,1
272 368 m 2,16,17
 272 425 272 425 223 425 c 2,18,-1
 158 425 l 2,19,20
 109 425 109 425 109 368 c 2,21,-1
 109 114 l 2,22,23
 109 57 109 57 158 57 c 2,24,-1
 223 57 l 2,25,26
 272 57 272 57 272 114 c 2,27,-1
 272 368 l 2,16,17
EndSplineSet
EndChar

StartChar: one
Encoding: 49 49 20
Width: 234
GlyphClass: 2
Flags: W
LayerCount: 2
Back
Fore
SplineSet
137 0 m 2,0,1
 125 0 125 0 120.5 8.5 c 128,-1,2
 116 17 116 17 116 25 c 2,3,-1
 116 406 l 1,4,-1
 65 371 l 2,5,6
 61 369 61 369 55 367 c 128,-1,7
 49 365 49 365 43.5 365.5 c 128,-1,8
 38 366 38 366 34 371.5 c 128,-1,9
 30 377 30 377 30 390 c 2,10,-1
 30 395 l 2,11,12
 30 415 30 415 44 424 c 2,13,-1
 120 476 l 2,14,15
 129 482 129 482 138 482 c 2,16,-1
 145 482 l 2,17,18
 156 482 156 482 161 473.5 c 128,-1,19
 166 465 166 465 166 457 c 2,20,-1
 166 25 l 2,21,22
 166 17 166 17 161 8.5 c 128,-1,23
 156 0 156 0 145 0 c 2,24,-1
 137 0 l 2,0,1
EndSplineSet
EndChar

StartChar: two
Encoding: 50 50 21
Width: 355
GlyphClass: 2
Flags: W
LayerCount: 2
Back
Fore
SplineSet
72 0 m 2,0,1
 63 0 63 0 55.5 6 c 128,-1,2
 48 12 48 12 48 25 c 2,3,-1
 48 84 l 2,4,5
 48 116 48 116 60 139.5 c 128,-1,6
 72 163 72 163 95 182 c 2,7,-1
 225 285 l 2,8,9
 252 306 252 306 252 342 c 2,10,-1
 252 371 l 2,11,12
 252 425 252 425 203 425 c 2,13,-1
 149 425 l 2,14,15
 101 425 101 425 101 371 c 2,16,-1
 101 338 l 2,17,18
 101 329 101 329 95 320.5 c 128,-1,19
 89 312 89 312 77 312 c 2,20,-1
 68 312 l 2,21,22
 56 312 56 312 50.5 320.5 c 128,-1,23
 45 329 45 329 45 338 c 2,24,-1
 45 371 l 2,25,26
 45 423 45 423 74 452.5 c 128,-1,27
 103 482 103 482 149 482 c 2,28,-1
 203 482 l 2,29,30
 251 482 251 482 279 452.5 c 128,-1,31
 307 423 307 423 307 371 c 2,32,-1
 307 341 l 2,33,34
 307 279 307 279 259 240 c 2,35,-1
 129 136 l 2,36,37
 103 116 103 116 103 86 c 2,38,-1
 103 57 l 1,39,-1
 287 57 l 2,40,41
 310 57 310 57 310 33 c 2,42,-1
 310 25 l 2,43,44
 310 0 310 0 287 0 c 2,45,-1
 72 0 l 2,0,1
EndSplineSet
EndChar

StartChar: three
Encoding: 51 51 22
Width: 370
GlyphClass: 2
Flags: W
LayerCount: 2
Back
Fore
SplineSet
157 0 m 2,0,1
 109 0 109 0 80.5 29.5 c 128,-1,2
 52 59 52 59 52 111 c 2,3,-1
 52 145 l 2,4,5
 52 154 52 154 57.5 162.5 c 128,-1,6
 63 171 63 171 75 171 c 2,7,-1
 85 171 l 2,8,9
 97 171 97 171 102.5 162.5 c 128,-1,10
 108 154 108 154 108 145 c 2,11,-1
 108 111 l 2,12,13
 108 57 108 57 157 57 c 2,14,-1
 213 57 l 2,15,16
 261 57 261 57 261 111 c 2,17,-1
 261 160 l 2,18,19
 261 214 261 214 213 214 c 2,20,-1
 172 214 l 2,21,22
 163 214 163 214 155.5 220 c 128,-1,23
 148 226 148 226 148 238 c 2,24,-1
 148 247 l 2,25,26
 148 259 148 259 155.5 265 c 128,-1,27
 163 271 163 271 172 271 c 2,28,-1
 213 271 l 2,29,30
 261 271 261 271 261 326 c 2,31,-1
 261 371 l 2,32,33
 261 425 261 425 213 425 c 2,34,-1
 157 425 l 2,35,36
 108 425 108 425 108 371 c 2,37,-1
 108 344 l 2,38,39
 108 335 108 335 102.5 327 c 128,-1,40
 97 319 97 319 85 319 c 2,41,-1
 75 319 l 2,42,43
 63 319 63 319 57.5 327 c 128,-1,44
 52 335 52 335 52 344 c 2,45,-1
 52 371 l 2,46,47
 52 423 52 423 80.5 452.5 c 128,-1,48
 109 482 109 482 157 482 c 2,49,-1
 213 482 l 2,50,51
 259 482 259 482 288 452.5 c 128,-1,52
 317 423 317 423 317 371 c 2,53,-1
 317 325 l 2,54,55
 317 271 317 271 284 243 c 1,56,57
 317 216 317 216 317 161 c 2,58,-1
 317 111 l 2,59,60
 317 59 317 59 288 29.5 c 128,-1,61
 259 0 259 0 213 0 c 2,62,-1
 157 0 l 2,0,1
EndSplineSet
EndChar

StartChar: four
Encoding: 52 52 23
Width: 386
GlyphClass: 2
Flags: W
LayerCount: 2
Back
Fore
SplineSet
299 93 m 1,0,-1
 299 25 l 2,1,2
 299 16 299 16 293.5 8 c 128,-1,3
 288 0 288 0 276 0 c 2,4,-1
 267 0 l 2,5,6
 254 0 254 0 248.5 8 c 128,-1,7
 243 16 243 16 243 25 c 2,8,-1
 243 93 l 1,9,-1
 62 93 l 2,10,11
 52 93 52 93 44.5 99 c 128,-1,12
 37 105 37 105 37 118 c 2,13,-1
 37 126 l 2,14,15
 37 132 37 132 39.5 137.5 c 128,-1,16
 42 143 42 143 44 147 c 2,17,-1
 228 465 l 2,18,19
 237 482 237 482 257 482 c 2,20,-1
 276 482 l 2,21,22
 288 482 288 482 293.5 474 c 128,-1,23
 299 466 299 466 299 457 c 2,24,-1
 299 150 l 1,25,-1
 331 150 l 2,26,27
 341 150 341 150 348.5 144 c 128,-1,28
 356 138 356 138 356 126 c 2,29,-1
 356 118 l 2,30,31
 356 105 356 105 348.5 99 c 128,-1,32
 341 93 341 93 331 93 c 2,33,-1
 299 93 l 1,0,-1
243 379 m 1,34,-1
 111 150 l 1,35,-1
 243 150 l 1,36,-1
 243 379 l 1,34,-1
EndSplineSet
EndChar

StartChar: five
Encoding: 53 53 24
Width: 357
GlyphClass: 2
Flags: W
LayerCount: 2
Back
Fore
SplineSet
157 0 m 2,0,1
 109 0 109 0 80.5 31 c 128,-1,2
 52 62 52 62 52 113 c 2,3,-1
 52 141 l 2,4,5
 52 150 52 150 57.5 158 c 128,-1,6
 63 166 63 166 75 166 c 2,7,-1
 85 166 l 2,8,9
 97 166 97 166 102.5 158 c 128,-1,10
 108 150 108 150 108 141 c 2,11,-1
 108 114 l 2,12,13
 108 57 108 57 157 57 c 2,14,-1
 207 57 l 2,15,16
 256 57 256 57 256 114 c 2,17,-1
 256 202 l 2,18,19
 256 231 256 231 244.5 243.5 c 128,-1,20
 233 256 233 256 207 256 c 2,21,-1
 145 256 l 2,22,23
 131 256 131 256 125 252.5 c 128,-1,24
 119 249 119 249 117 245 c 0,25,26
 115 242 115 242 112.5 238 c 128,-1,27
 110 234 110 234 108 230 c 0,28,29
 105 226 105 226 100 222.5 c 128,-1,30
 95 219 95 219 87 219 c 2,31,-1
 75 219 l 2,32,33
 63 219 63 219 57.5 227.5 c 128,-1,34
 52 236 52 236 52 245 c 2,35,-1
 52 457 l 2,36,37
 52 465 52 465 57.5 473.5 c 128,-1,38
 63 482 63 482 75 482 c 2,39,-1
 282 482 l 2,40,41
 305 482 305 482 305 457 c 2,42,-1
 305 449 l 2,43,44
 305 425 305 425 282 425 c 2,45,-1
 108 425 l 1,46,-1
 108 306 l 1,47,48
 122 313 122 313 145 313 c 2,49,-1
 207 313 l 2,50,51
 255 313 255 313 283.5 284.5 c 128,-1,52
 312 256 312 256 312 202 c 2,53,-1
 312 113 l 2,54,55
 312 62 312 62 283.5 31 c 128,-1,56
 255 0 255 0 207 0 c 2,57,-1
 157 0 l 2,0,1
EndSplineSet
EndChar

StartChar: six
Encoding: 54 54 25
Width: 367
GlyphClass: 2
Flags: W
LayerCount: 2
Back
Fore
SplineSet
150 0 m 2,0,1
 102 0 102 0 73.5 31 c 128,-1,2
 45 62 45 62 45 113 c 2,3,-1
 45 369 l 2,4,5
 45 420 45 420 73.5 451 c 128,-1,6
 102 482 102 482 150 482 c 2,7,-1
 271 482 l 2,8,9
 280 482 280 482 287.5 476 c 128,-1,10
 295 470 295 470 295 457 c 2,11,-1
 295 449 l 2,12,13
 295 437 295 437 287.5 431 c 128,-1,14
 280 425 280 425 271 425 c 2,15,-1
 150 425 l 2,16,17
 101 425 101 425 101 368 c 2,18,-1
 101 299 l 1,19,-1
 209 299 l 2,20,21
 257 299 257 299 286 268 c 128,-1,22
 315 237 315 237 315 186 c 2,23,-1
 315 113 l 2,24,25
 315 62 315 62 286 31 c 128,-1,26
 257 0 257 0 209 0 c 2,27,-1
 150 0 l 2,0,1
258 185 m 2,28,29
 258 241 258 241 209 241 c 2,30,-1
 101 241 l 1,31,-1
 101 114 l 2,32,33
 101 57 101 57 150 57 c 2,34,-1
 209 57 l 2,35,36
 258 57 258 57 258 114 c 2,37,-1
 258 185 l 2,28,29
EndSplineSet
EndChar

StartChar: seven
Encoding: 55 55 26
Width: 275
GlyphClass: 2
Flags: W
LayerCount: 2
Back
Fore
SplineSet
116 20 m 2,0,1
 112 8 112 8 104.5 4 c 128,-1,2
 97 0 97 0 90 0 c 2,3,-1
 83 0 l 2,4,5
 73 0 73 0 68 4 c 128,-1,6
 63 8 63 8 61.5 14 c 128,-1,7
 60 20 60 20 60.5 26 c 128,-1,8
 61 32 61 32 62 35 c 2,9,-1
 195 425 l 1,10,-1
 35 425 l 2,11,12
 26 425 26 425 18.5 431 c 128,-1,13
 11 437 11 437 11 449 c 2,14,-1
 11 457 l 2,15,16
 11 470 11 470 18.5 476 c 128,-1,17
 26 482 26 482 35 482 c 2,18,-1
 236 482 l 2,19,20
 245 482 245 482 252.5 476 c 128,-1,21
 260 470 260 470 260 457 c 2,22,-1
 260 451 l 2,23,24
 260 441 260 441 257 434 c 2,25,-1
 116 20 l 2,0,1
EndSplineSet
EndChar

StartChar: eight
Encoding: 56 56 27
Width: 385
GlyphClass: 2
Flags: W
LayerCount: 2
Back
Fore
SplineSet
158 0 m 2,0,1
 110 0 110 0 81 28.5 c 128,-1,2
 52 57 52 57 52 111 c 2,3,-1
 52 161 l 2,4,5
 52 214 52 214 84 243 c 1,6,7
 52 272 52 272 52 325 c 2,8,-1
 52 371 l 2,9,10
 52 425 52 425 81 453.5 c 128,-1,11
 110 482 110 482 158 482 c 2,12,-1
 227 482 l 2,13,14
 275 482 275 482 303.5 452.5 c 128,-1,15
 332 423 332 423 332 371 c 2,16,-1
 332 325 l 2,17,18
 332 271 332 271 301 243 c 1,19,20
 332 213 332 213 332 161 c 2,21,-1
 332 111 l 2,22,23
 332 59 332 59 303.5 29.5 c 128,-1,24
 275 0 275 0 227 0 c 2,25,-1
 158 0 l 2,0,1
276 371 m 2,26,27
 276 425 276 425 227 425 c 2,28,-1
 158 425 l 2,29,30
 109 425 109 425 109 371 c 2,31,-1
 109 326 l 2,32,33
 109 271 109 271 158 271 c 2,34,-1
 227 271 l 2,35,36
 276 271 276 271 276 326 c 2,37,-1
 276 371 l 2,26,27
276 160 m 2,38,39
 276 214 276 214 227 214 c 2,40,-1
 158 214 l 2,41,42
 109 214 109 214 109 160 c 2,43,-1
 109 111 l 2,44,45
 109 57 109 57 158 57 c 2,46,-1
 227 57 l 2,47,48
 276 57 276 57 276 111 c 2,49,-1
 276 160 l 2,38,39
EndSplineSet
EndChar

StartChar: nine
Encoding: 57 57 28
Width: 367
GlyphClass: 2
Flags: W
LayerCount: 2
Back
Fore
SplineSet
89 0 m 2,0,1
 80 0 80 0 72.5 6 c 128,-1,2
 65 12 65 12 65 25 c 2,3,-1
 65 33 l 2,4,5
 65 45 65 45 72.5 51 c 128,-1,6
 80 57 80 57 89 57 c 2,7,-1
 209 57 l 2,8,9
 258 57 258 57 258 114 c 2,10,-1
 258 183 l 1,11,-1
 150 183 l 2,12,13
 102 183 102 183 73.5 214 c 128,-1,14
 45 245 45 245 45 296 c 2,15,-1
 45 369 l 2,16,17
 45 420 45 420 73.5 451 c 128,-1,18
 102 482 102 482 150 482 c 2,19,-1
 209 482 l 2,20,21
 257 482 257 482 286 451 c 128,-1,22
 315 420 315 420 315 369 c 2,23,-1
 315 113 l 2,24,25
 315 62 315 62 286 31 c 128,-1,26
 257 0 257 0 209 0 c 2,27,-1
 89 0 l 2,0,1
150 425 m 2,28,29
 101 425 101 425 101 368 c 2,30,-1
 101 297 l 2,31,32
 101 241 101 241 150 241 c 2,33,-1
 258 241 l 1,34,-1
 258 368 l 2,35,36
 258 425 258 425 209 425 c 2,37,-1
 150 425 l 2,28,29
EndSplineSet
EndChar

StartChar: colon
Encoding: 58 58 29
Width: 140
GlyphClass: 2
Flags: W
LayerCount: 2
Back
Fore
SplineSet
49 252 m 2,0,1
 43 252 43 252 39.5 260.5 c 128,-1,2
 36 269 36 269 36 277 c 2,3,-1
 36 358 l 2,4,5
 36 366 36 366 39.5 374 c 128,-1,6
 43 382 43 382 49 382 c 2,7,-1
 71 382 l 2,8,9
 77 382 77 382 80.5 374 c 128,-1,10
 84 366 84 366 84 358 c 2,11,-1
 84 277 l 2,12,13
 84 269 84 269 80.5 260.5 c 128,-1,14
 77 252 77 252 71 252 c 2,15,-1
 49 252 l 2,0,1
49 0 m 2,16,17
 42 0 42 0 39 8.5 c 128,-1,18
 36 17 36 17 36 25 c 2,19,-1
 36 105 l 2,20,21
 36 113 36 113 39 121.5 c 128,-1,22
 42 130 42 130 49 130 c 2,23,-1
 71 130 l 2,24,25
 78 130 78 130 81 121.5 c 128,-1,26
 84 113 84 113 84 105 c 2,27,-1
 84 25 l 2,28,29
 84 17 84 17 81 8.5 c 128,-1,30
 78 0 78 0 71 0 c 2,31,-1
 49 0 l 2,16,17
EndSplineSet
EndChar

StartChar: semicolon
Encoding: 59 59 30
Width: 140
GlyphClass: 2
Flags: W
LayerCount: 2
Back
Fore
SplineSet
49 250 m 2,0,1
 43 250 43 250 39.5 258.5 c 128,-1,2
 36 267 36 267 36 275 c 2,3,-1
 36 357 l 2,4,5
 36 366 36 366 39.5 374 c 128,-1,6
 43 382 43 382 49 382 c 2,7,-1
 71 382 l 2,8,9
 77 382 77 382 80.5 374 c 128,-1,10
 84 366 84 366 84 357 c 2,11,-1
 84 275 l 2,12,13
 84 267 84 267 80.5 258.5 c 128,-1,14
 77 250 77 250 71 250 c 2,15,-1
 49 250 l 2,0,1
80 -55 m 0,16,17
 79 -63 79 -63 74 -70.5 c 128,-1,18
 69 -78 69 -78 59 -78 c 0,19,20
 55 -78 55 -78 46.5 -73 c 128,-1,21
 38 -68 38 -68 38 -52 c 2,22,-1
 36 101 l 2,23,24
 36 109 36 109 39 117.5 c 128,-1,25
 42 126 42 126 49 126 c 2,26,-1
 71 126 l 2,27,28
 78 126 78 126 81 117.5 c 128,-1,29
 84 109 84 109 84 101 c 0,30,31
 84 59 84 59 83 22 c 128,-1,32
 82 -15 82 -15 80 -55 c 0,16,17
EndSplineSet
EndChar

StartChar: less
Encoding: 60 60 31
Width: 375
GlyphClass: 2
Flags: W
LayerCount: 2
Back
Fore
SplineSet
66 210 m 2,0,1
 59 213 59 213 53.5 219 c 128,-1,2
 48 225 48 225 48 234 c 2,3,-1
 48 247 l 2,4,5
 48 257 48 257 53.5 262.5 c 128,-1,6
 59 268 59 268 66 271 c 2,7,-1
 295 360 l 2,8,9
 306 365 306 365 316.5 359 c 128,-1,10
 327 353 327 353 327 339 c 2,11,-1
 327 330 l 2,12,13
 327 312 327 312 311 306 c 2,14,-1
 136 241 l 1,15,-1
 311 175 l 2,16,17
 316 173 316 173 321.5 167.5 c 128,-1,18
 327 162 327 162 327 152 c 2,19,-1
 327 142 l 2,20,21
 327 128 327 128 316 122.5 c 128,-1,22
 305 117 305 117 294 123 c 2,23,-1
 66 210 l 2,0,1
EndSplineSet
EndChar

StartChar: equal
Encoding: 61 61 32
Width: 391
GlyphClass: 2
Flags: W
LayerCount: 2
Back
Fore
SplineSet
80 265 m 2,0,1
 72 265 72 265 64 270.5 c 128,-1,2
 56 276 56 276 56 287 c 2,3,-1
 56 294 l 2,4,5
 56 306 56 306 64 311 c 128,-1,6
 72 316 72 316 80 316 c 2,7,-1
 311 316 l 2,8,9
 319 316 319 316 327 311 c 128,-1,10
 335 306 335 306 335 294 c 2,11,-1
 335 287 l 2,12,13
 335 276 335 276 327 270.5 c 128,-1,14
 319 265 319 265 311 265 c 2,15,-1
 80 265 l 2,0,1
80 165 m 2,16,17
 72 165 72 165 64 170 c 128,-1,18
 56 175 56 175 56 187 c 2,19,-1
 56 194 l 2,20,21
 56 205 56 205 64 210.5 c 128,-1,22
 72 216 72 216 80 216 c 2,23,-1
 311 216 l 2,24,25
 319 216 319 216 327 210.5 c 128,-1,26
 335 205 335 205 335 194 c 2,27,-1
 335 187 l 2,28,29
 335 175 335 175 327 170 c 128,-1,30
 319 165 319 165 311 165 c 2,31,-1
 80 165 l 2,16,17
EndSplineSet
EndChar

StartChar: greater
Encoding: 62 62 33
Width: 391
GlyphClass: 2
Flags: W
LayerCount: 2
Back
Fore
SplineSet
89 122 m 2,0,1
 78 117 78 117 67 122.5 c 128,-1,2
 56 128 56 128 56 142 c 2,3,-1
 56 152 l 2,4,5
 56 162 56 162 61.5 167.5 c 128,-1,6
 67 173 67 173 72 175 c 2,7,-1
 247 241 l 1,8,-1
 72 306 l 2,9,10
 56 312 56 312 56 330 c 2,11,-1
 56 339 l 2,12,13
 56 353 56 353 66.5 359 c 128,-1,14
 77 365 77 365 88 360 c 2,15,-1
 317 271 l 2,16,17
 324 268 324 268 329.5 262.5 c 128,-1,18
 335 257 335 257 335 247 c 2,19,-1
 335 234 l 2,20,21
 335 225 335 225 329.5 219 c 128,-1,22
 324 213 324 213 317 210 c 2,23,-1
 89 122 l 2,0,1
EndSplineSet
EndChar

StartChar: question
Encoding: 63 63 34
Width: 356
GlyphClass: 2
Flags: W
LayerCount: 2
Back
Fore
SplineSet
234 243 m 2,0,1
 225 235 225 235 221 229 c 128,-1,2
 217 223 217 223 215 220 c 0,3,4
 214 218 214 218 213 211 c 128,-1,5
 212 204 212 204 212 192 c 2,6,-1
 212 165 l 2,7,8
 212 157 212 157 206.5 148.5 c 128,-1,9
 201 140 201 140 189 140 c 2,10,-1
 181 140 l 2,11,12
 168 140 168 140 162.5 148.5 c 128,-1,13
 157 157 157 157 157 165 c 2,14,-1
 157 189 l 2,15,16
 157 206 157 206 159.5 219 c 128,-1,17
 162 232 162 232 166 243 c 0,18,19
 171 254 171 254 180.5 265 c 128,-1,20
 190 276 190 276 201 287 c 2,21,-1
 221 306 l 2,22,23
 233 317 233 317 237 327 c 128,-1,24
 241 337 241 337 241 347 c 2,25,-1
 241 370 l 2,26,27
 241 424 241 424 193 424 c 2,28,-1
 163 424 l 2,29,30
 115 424 115 424 115 370 c 2,31,-1
 115 338 l 2,32,33
 115 329 115 329 109.5 320.5 c 128,-1,34
 104 312 104 312 92 312 c 2,35,-1
 83 312 l 2,36,37
 71 312 71 312 65.5 320.5 c 128,-1,38
 60 329 60 329 60 338 c 2,39,-1
 60 371 l 2,40,41
 60 422 60 422 88.5 451.5 c 128,-1,42
 117 481 117 481 163 481 c 2,43,-1
 193 481 l 2,44,45
 239 481 239 481 267.5 451.5 c 128,-1,46
 296 422 296 422 296 371 c 2,47,-1
 296 346 l 2,48,49
 296 300 296 300 259 266 c 2,50,-1
 234 243 l 2,0,1
178 0 m 2,51,52
 166 0 166 0 160.5 8.5 c 128,-1,53
 155 17 155 17 155 25 c 2,54,-1
 155 107 l 2,55,56
 155 116 155 116 160.5 124.5 c 128,-1,57
 166 133 166 133 178 133 c 2,58,-1
 191 133 l 2,59,60
 203 133 203 133 208.5 124.5 c 128,-1,61
 214 116 214 116 214 107 c 2,62,-1
 214 25 l 2,63,64
 214 17 214 17 208.5 8.5 c 128,-1,65
 203 0 203 0 191 0 c 2,66,-1
 178 0 l 2,51,52
EndSplineSet
EndChar

StartChar: at
Encoding: 64 64 35
Width: 566
GlyphClass: 2
Flags: W
LayerCount: 2
Back
Fore
SplineSet
499 167 m 2,0,1
 499 115 499 115 469 84.5 c 128,-1,2
 439 54 439 54 388 54 c 2,3,-1
 372 54 l 2,4,5
 350 54 350 54 340 72 c 1,6,7
 315 56 315 56 277 56 c 0,8,9
 226 56 226 56 196 85.5 c 128,-1,10
 166 115 166 115 166 169 c 2,11,-1
 166 240 l 2,12,13
 166 292 166 292 196 322.5 c 128,-1,14
 226 353 226 353 277 353 c 2,15,-1
 368 353 l 2,16,17
 380 353 380 353 386 345 c 128,-1,18
 392 337 392 337 392 328 c 2,19,-1
 392 111 l 1,20,21
 440 114 440 114 440 168 c 2,22,-1
 440 338 l 2,23,24
 440 394 440 394 388 394 c 2,25,-1
 256 394 l 2,26,27
 230 394 230 394 207 384 c 128,-1,28
 184 374 184 374 165 356 c 0,29,30
 126 318 126 318 126 258 c 2,31,-1
 126 151 l 2,32,33
 126 91 126 91 165 52 c 0,34,35
 203 14 203 14 256 14 c 2,36,-1
 382 14 l 2,37,38
 406 14 406 14 406 -11 c 2,39,-1
 406 -19 l 2,40,41
 406 -44 406 -44 382 -44 c 2,42,-1
 257 -44 l 2,43,44
 183 -44 183 -44 125 8 c 0,45,46
 67 62 67 62 67 152 c 2,47,-1
 67 257 l 2,48,49
 67 346 67 346 125 400 c 0,50,51
 183 452 183 452 257 452 c 2,52,-1
 388 452 l 2,53,54
 439 452 439 452 469 421 c 128,-1,55
 499 390 499 390 499 339 c 2,56,-1
 499 167 l 2,0,1
342 287 m 1,57,58
 342 295 342 295 338.5 299.5 c 128,-1,59
 335 304 335 304 324 303 c 2,60,-1
 282 300 l 2,61,62
 252 298 252 298 234.5 284.5 c 128,-1,63
 217 271 217 271 217 239 c 2,64,-1
 217 169 l 2,65,66
 217 105 217 105 277 105 c 2,67,-1
 278 105 l 2,68,69
 342 105 342 105 342 166 c 2,70,-1
 342 287 l 1,71,-1
 342 287 l 1,57,58
EndSplineSet
EndChar

StartChar: A
Encoding: 65 65 36
Width: 355
GlyphClass: 2
Flags: W
LayerCount: 2
Back
Fore
SplineSet
302 0 m 2,0,1
 291 0 291 0 286 7.5 c 128,-1,2
 281 15 281 15 279 20 c 2,3,-1
 248 112 l 1,4,-1
 107 112 l 1,5,-1
 75 18 l 2,6,7
 72 11 72 11 66 5.5 c 128,-1,8
 60 0 60 0 51 0 c 2,9,-1
 43 0 l 2,10,11
 29 0 29 0 24 10.5 c 128,-1,12
 19 21 19 21 22 30 c 2,13,-1
 147 414 l 2,14,15
 149 419 149 419 153.5 426.5 c 128,-1,16
 158 434 158 434 170 434 c 2,17,-1
 184 434 l 2,18,19
 202 434 202 434 209 415 c 2,20,-1
 333 30 l 2,21,22
 336 21 336 21 331 10.5 c 128,-1,23
 326 0 326 0 312 0 c 2,24,-1
 302 0 l 2,0,1
177 336 m 1,25,26
 171 316 171 316 164 293 c 128,-1,27
 157 270 157 270 150 247 c 128,-1,28
 143 224 143 224 136.5 203.5 c 128,-1,29
 130 183 130 183 126 169 c 1,30,-1
 229 169 l 1,31,-1
 177 336 l 1,25,26
EndSplineSet
EndChar

StartChar: B
Encoding: 66 66 37
Width: 367
GlyphClass: 2
Flags: W
LayerCount: 2
Back
Fore
SplineSet
83 0 m 2,0,1
 72 0 72 0 66 7 c 128,-1,2
 60 14 60 14 60 24 c 2,3,-1
 60 409 l 2,4,5
 60 418 60 418 65.5 426 c 128,-1,6
 71 434 71 434 83 434 c 2,7,-1
 217 434 l 2,8,9
 262 434 262 434 287.5 407.5 c 128,-1,10
 313 381 313 381 313 333 c 2,11,-1
 313 293 l 2,12,13
 313 246 313 246 285 221 c 1,14,15
 299 208 299 208 308 188.5 c 128,-1,16
 317 169 317 169 317 146 c 2,17,-1
 317 101 l 2,18,19
 317 53 317 53 290.5 26.5 c 128,-1,20
 264 0 264 0 221 0 c 2,21,-1
 83 0 l 2,0,1
259 333 m 2,22,23
 259 379 259 379 217 379 c 2,24,-1
 115 379 l 1,25,-1
 115 247 l 1,26,-1
 216 247 l 2,27,28
 237 247 237 247 248 257.5 c 128,-1,29
 259 268 259 268 259 294 c 2,30,-1
 259 333 l 2,22,23
262 146 m 2,31,32
 262 170 262 170 252 181 c 128,-1,33
 242 192 242 192 216 192 c 2,34,-1
 115 192 l 1,35,-1
 115 55 l 1,36,-1
 221 55 l 2,37,38
 262 55 262 55 262 101 c 2,39,-1
 262 146 l 2,31,32
EndSplineSet
EndChar

StartChar: C
Encoding: 67 67 38
Width: 366
GlyphClass: 2
Flags: W
LayerCount: 2
Back
Fore
SplineSet
150 0 m 2,0,1
 105 0 105 0 79.5 27.5 c 128,-1,2
 54 55 54 55 54 103 c 2,3,-1
 54 331 l 2,4,5
 54 377 54 377 79.5 405.5 c 128,-1,6
 105 434 105 434 150 434 c 2,7,-1
 226 434 l 2,8,9
 271 434 271 434 296.5 405.5 c 128,-1,10
 322 377 322 377 322 331 c 2,11,-1
 322 301 l 2,12,13
 322 294 322 294 317.5 285 c 128,-1,14
 313 276 313 276 299 276 c 2,15,-1
 292 276 l 2,16,17
 279 276 279 276 273.5 284 c 128,-1,18
 268 292 268 292 268 301 c 2,19,-1
 268 330 l 2,20,21
 268 379 268 379 226 379 c 2,22,-1
 150 379 l 2,23,24
 108 379 108 379 108 330 c 2,25,-1
 108 104 l 2,26,27
 108 55 108 55 150 55 c 2,28,-1
 226 55 l 2,29,30
 268 55 268 55 268 104 c 2,31,-1
 268 133 l 2,32,33
 268 157 268 157 292 157 c 2,34,-1
 299 157 l 2,35,36
 311 157 311 157 316.5 149 c 128,-1,37
 322 141 322 141 322 133 c 2,38,-1
 322 103 l 2,39,40
 322 55 322 55 296.5 27.5 c 128,-1,41
 271 0 271 0 226 0 c 2,42,-1
 150 0 l 2,0,1
EndSplineSet
EndChar

StartChar: D
Encoding: 68 68 39
Width: 376
GlyphClass: 2
Flags: W
LayerCount: 2
Back
Fore
SplineSet
83 0 m 2,0,1
 72 0 72 0 66 7 c 128,-1,2
 60 14 60 14 60 24 c 2,3,-1
 60 409 l 2,4,5
 60 418 60 418 65.5 426 c 128,-1,6
 71 434 71 434 83 434 c 2,7,-1
 226 434 l 2,8,9
 271 434 271 434 296.5 405.5 c 128,-1,10
 322 377 322 377 322 331 c 2,11,-1
 322 103 l 2,12,13
 322 55 322 55 296.5 27.5 c 128,-1,14
 271 0 271 0 226 0 c 2,15,-1
 83 0 l 2,0,1
268 330 m 2,16,17
 268 379 268 379 226 379 c 2,18,-1
 115 379 l 1,19,-1
 115 55 l 1,20,-1
 226 55 l 2,21,22
 268 55 268 55 268 104 c 2,23,-1
 268 330 l 2,16,17
EndSplineSet
EndChar

StartChar: E
Encoding: 69 69 40
Width: 325
GlyphClass: 2
Flags: W
LayerCount: 2
Back
Fore
SplineSet
83 0 m 2,0,1
 72 0 72 0 66 7 c 128,-1,2
 60 14 60 14 60 24 c 2,3,-1
 60 409 l 2,4,5
 60 417 60 417 65.5 425.5 c 128,-1,6
 71 434 71 434 83 434 c 2,7,-1
 254 434 l 2,8,9
 265 434 265 434 271 427 c 128,-1,10
 277 420 277 420 277 410 c 2,11,-1
 277 402 l 2,12,13
 277 391 277 391 269.5 385 c 128,-1,14
 262 379 262 379 254 379 c 2,15,-1
 113 379 l 1,16,-1
 113 248 l 1,17,-1
 240 248 l 2,18,19
 248 248 248 248 255.5 242 c 128,-1,20
 263 236 263 236 263 224 c 2,21,-1
 263 217 l 2,22,23
 263 207 263 207 257 200 c 128,-1,24
 251 193 251 193 240 193 c 2,25,-1
 113 193 l 1,26,-1
 113 55 l 1,27,-1
 254 55 l 2,28,29
 265 55 265 55 271 48 c 128,-1,30
 277 41 277 41 277 31 c 2,31,-1
 277 24 l 2,32,33
 277 12 277 12 269.5 6 c 128,-1,34
 262 0 262 0 254 0 c 2,35,-1
 83 0 l 2,0,1
EndSplineSet
EndChar

StartChar: F
Encoding: 70 70 41
Width: 311
GlyphClass: 2
Flags: W
LayerCount: 2
Back
Fore
SplineSet
113 379 m 1,0,-1
 113 243 l 1,1,-1
 240 243 l 2,2,3
 248 243 248 243 255.5 237 c 128,-1,4
 263 231 263 231 263 220 c 2,5,-1
 263 212 l 2,6,7
 263 200 263 200 255.5 194 c 128,-1,8
 248 188 248 188 240 188 c 2,9,-1
 113 188 l 1,10,-1
 113 24 l 2,11,12
 113 16 113 16 108 8 c 128,-1,13
 103 0 103 0 91 0 c 2,14,-1
 83 0 l 2,15,16
 72 0 72 0 66 7 c 128,-1,17
 60 14 60 14 60 24 c 2,18,-1
 60 409 l 2,19,20
 60 417 60 417 65.5 425.5 c 128,-1,21
 71 434 71 434 83 434 c 2,22,-1
 255 434 l 2,23,24
 266 434 266 434 272 427 c 128,-1,25
 278 420 278 420 278 410 c 2,26,-1
 278 402 l 2,27,28
 278 391 278 391 270.5 385 c 128,-1,29
 263 379 263 379 255 379 c 2,30,-1
 113 379 l 1,0,-1
EndSplineSet
EndChar

StartChar: G
Encoding: 71 71 42
Width: 363
GlyphClass: 2
Flags: W
LayerCount: 2
Back
Fore
SplineSet
149 0 m 2,0,1
 104 0 104 0 79 27.5 c 128,-1,2
 54 55 54 55 54 103 c 2,3,-1
 54 331 l 2,4,5
 54 377 54 377 79 405.5 c 128,-1,6
 104 434 104 434 149 434 c 2,7,-1
 214 434 l 2,8,9
 259 434 259 434 284 405.5 c 128,-1,10
 309 377 309 377 309 331 c 2,11,-1
 309 301 l 2,12,13
 309 292 309 292 303.5 284 c 128,-1,14
 298 276 298 276 286 276 c 2,15,-1
 278 276 l 2,16,17
 264 276 264 276 259.5 285 c 128,-1,18
 255 294 255 294 255 301 c 2,19,-1
 255 330 l 2,20,21
 255 379 255 379 214 379 c 2,22,-1
 149 379 l 2,23,24
 108 379 108 379 108 330 c 2,25,-1
 108 104 l 2,26,27
 108 55 108 55 149 55 c 2,28,-1
 214 55 l 2,29,30
 255 55 255 55 255 104 c 2,31,-1
 255 183 l 1,32,-1
 193 183 l 2,33,34
 183 183 183 183 177 189.5 c 128,-1,35
 171 196 171 196 171 206 c 2,36,-1
 171 213 l 2,37,38
 171 221 171 221 176 229.5 c 128,-1,39
 181 238 181 238 193 238 c 2,40,-1
 280 238 l 2,41,42
 294 238 294 238 301.5 229 c 128,-1,43
 309 220 309 220 309 207 c 2,44,-1
 309 103 l 2,45,46
 309 55 309 55 284 27.5 c 128,-1,47
 259 0 259 0 214 0 c 2,48,-1
 149 0 l 2,0,1
EndSplineSet
EndChar

StartChar: H
Encoding: 72 72 43
Width: 383
GlyphClass: 2
Flags: W
LayerCount: 2
Back
Fore
SplineSet
292 0 m 2,0,1
 281 0 281 0 274.5 7 c 128,-1,2
 268 14 268 14 268 24 c 2,3,-1
 268 193 l 1,4,-1
 115 193 l 1,5,-1
 115 24 l 2,6,7
 115 16 115 16 109.5 8 c 128,-1,8
 104 0 104 0 92 0 c 2,9,-1
 83 0 l 2,10,11
 72 0 72 0 66 7 c 128,-1,12
 60 14 60 14 60 24 c 2,13,-1
 60 409 l 2,14,15
 60 418 60 418 65.5 426 c 128,-1,16
 71 434 71 434 83 434 c 2,17,-1
 92 434 l 2,18,19
 106 434 106 434 110.5 425 c 128,-1,20
 115 416 115 416 115 409 c 2,21,-1
 115 248 l 1,22,-1
 268 248 l 1,23,-1
 268 409 l 2,24,25
 268 418 268 418 273.5 426 c 128,-1,26
 279 434 279 434 292 434 c 2,27,-1
 299 434 l 2,28,29
 313 434 313 434 317.5 425 c 128,-1,30
 322 416 322 416 322 409 c 2,31,-1
 322 24 l 2,32,33
 322 16 322 16 316.5 8 c 128,-1,34
 311 0 311 0 299 0 c 2,35,-1
 292 0 l 2,0,1
EndSplineSet
EndChar

StartChar: I
Encoding: 73 73 44
Width: 148
GlyphClass: 2
Flags: W
LayerCount: 2
Back
Fore
SplineSet
64 0 m 2,0,1
 52 0 52 0 47 8.5 c 128,-1,2
 42 17 42 17 42 25 c 2,3,-1
 42 409 l 2,4,5
 42 417 42 417 47 425.5 c 128,-1,6
 52 434 52 434 64 434 c 2,7,-1
 72 434 l 2,8,9
 95 434 95 434 95 409 c 2,10,-1
 95 25 l 2,11,12
 95 0 95 0 72 0 c 2,13,-1
 64 0 l 2,0,1
EndSplineSet
EndChar

StartChar: J
Encoding: 74 74 45
Width: 333
GlyphClass: 2
Flags: W
LayerCount: 2
Back
Fore
SplineSet
122 0 m 2,0,1
 77 0 77 0 52 27.5 c 128,-1,2
 27 55 27 55 27 103 c 2,3,-1
 27 152 l 2,4,5
 27 160 27 160 32.5 168.5 c 128,-1,6
 38 177 38 177 49 177 c 2,7,-1
 57 177 l 2,8,9
 80 177 80 177 80 152 c 2,10,-1
 80 104 l 2,11,12
 80 55 80 55 122 55 c 2,13,-1
 179 55 l 2,14,15
 222 55 222 55 222 104 c 2,16,-1
 222 409 l 2,17,18
 222 415 222 415 226 424.5 c 128,-1,19
 230 434 230 434 244 434 c 2,20,-1
 253 434 l 2,21,22
 264 434 264 434 269.5 426 c 128,-1,23
 275 418 275 418 275 410 c 2,24,-1
 275 103 l 2,25,26
 275 55 275 55 249.5 27.5 c 128,-1,27
 224 0 224 0 179 0 c 2,28,-1
 122 0 l 2,0,1
EndSplineSet
EndChar

StartChar: K
Encoding: 75 75 46
Width: 353
GlyphClass: 2
Flags: W
LayerCount: 2
Back
Fore
SplineSet
302 0 m 2,0,1
 284 0 284 0 277 15 c 2,2,-1
 161 196 l 1,3,-1
 115 136 l 1,4,-1
 115 24 l 2,5,6
 115 16 115 16 109.5 8 c 128,-1,7
 104 0 104 0 92 0 c 2,8,-1
 84 0 l 2,9,10
 73 0 73 0 66.5 7 c 128,-1,11
 60 14 60 14 60 24 c 2,12,-1
 60 409 l 6,13,14
 60 418 60 418 65.5 426 c 132,-1,15
 71 434 71 434 84 434 c 6,16,-1
 92 434 l 6,17,18
 106 434 106 434 110.5 425 c 132,-1,19
 115 416 115 416 115 409 c 6,20,-1
 115 225 l 1,21,-1
 257 420 l 2,22,23
 261 425 261 425 267 429.5 c 128,-1,24
 273 434 273 434 281 434 c 2,25,-1
 292 434 l 2,26,27
 302 434 302 434 307 430 c 128,-1,28
 312 426 312 426 313 420 c 128,-1,29
 314 414 314 414 312.5 408 c 128,-1,30
 311 402 311 402 309 398 c 2,31,-1
 197 242 l 1,32,-1
 328 35 l 2,33,34
 334 26 334 26 331 13 c 128,-1,35
 328 0 328 0 310 0 c 2,36,-1
 302 0 l 2,0,1
EndSplineSet
EndChar

StartChar: L
Encoding: 76 76 47
Width: 305
GlyphClass: 2
Flags: W
LayerCount: 2
Back
Fore
SplineSet
83 0 m 2,0,1
 72 0 72 0 66 7 c 128,-1,2
 60 14 60 14 60 24 c 2,3,-1
 60 409 l 2,4,5
 60 417 60 417 65.5 425.5 c 128,-1,6
 71 434 71 434 83 434 c 2,7,-1
 91 434 l 2,8,9
 105 434 105 434 109.5 424.5 c 128,-1,10
 114 415 114 415 114 409 c 2,11,-1
 114 56 l 1,12,-1
 262 56 l 2,13,14
 273 56 273 56 278.5 48 c 128,-1,15
 284 40 284 40 284 32 c 2,16,-1
 284 24 l 2,17,18
 284 14 284 14 278 7 c 128,-1,19
 272 0 272 0 262 0 c 2,20,-1
 83 0 l 2,0,1
EndSplineSet
EndChar

StartChar: M
Encoding: 77 77 48
Width: 464
GlyphClass: 2
Flags: W
LayerCount: 2
Back
Fore
SplineSet
372 0 m 2,0,1
 348 0 348 0 348 24 c 2,2,-1
 348 295 l 1,3,-1
 262 102 l 2,4,5
 255 86 255 86 237 86 c 2,6,-1
 227 86 l 2,7,8
 209 86 209 86 202 102 c 2,9,-1
 116 297 l 1,10,-1
 116 24 l 2,11,12
 116 16 116 16 110.5 8 c 128,-1,13
 105 0 105 0 93 0 c 2,14,-1
 84 0 l 2,15,16
 60 0 60 0 60 24 c 2,17,-1
 60 409 l 2,18,19
 60 418 60 418 66 426 c 128,-1,20
 72 434 72 434 84 434 c 2,21,-1
 101 434 l 2,22,23
 117 434 117 434 122 420 c 2,24,-1
 232 172 l 1,25,-1
 341 420 l 2,26,27
 347 434 347 434 363 434 c 2,28,-1
 380 434 l 2,29,30
 394 434 394 434 398.5 425 c 128,-1,31
 403 416 403 416 403 409 c 2,32,-1
 403 24 l 2,33,34
 403 16 403 16 397.5 8 c 128,-1,35
 392 0 392 0 380 0 c 2,36,-1
 372 0 l 2,0,1
EndSplineSet
EndChar

StartChar: N
Encoding: 78 78 49
Width: 390
GlyphClass: 2
Flags: W
LayerCount: 2
Back
Fore
SplineSet
300 0 m 2,0,1
 286 0 286 0 278 14 c 2,2,-1
 115 306 l 1,3,-1
 115 24 l 2,4,5
 115 16 115 16 109.5 8 c 128,-1,6
 104 0 104 0 92 0 c 2,7,-1
 84 0 l 2,8,9
 73 0 73 0 66.5 7 c 128,-1,10
 60 14 60 14 60 24 c 2,11,-1
 60 409 l 2,12,13
 60 418 60 418 65.5 426 c 128,-1,14
 71 434 71 434 84 434 c 2,15,-1
 92 434 l 2,16,17
 101 434 101 434 105.5 429 c 128,-1,18
 110 424 110 424 111 422 c 2,19,-1
 275 130 l 1,20,-1
 275 409 l 2,21,22
 275 416 275 416 279.5 425 c 128,-1,23
 284 434 284 434 298 434 c 2,24,-1
 306 434 l 2,25,26
 320 434 320 434 324.5 425 c 128,-1,27
 329 416 329 416 329 409 c 2,28,-1
 329 24 l 2,29,30
 329 16 329 16 323.5 8 c 128,-1,31
 318 0 318 0 306 0 c 2,32,-1
 300 0 l 2,0,1
EndSplineSet
EndChar

StartChar: O
Encoding: 79 79 50
Width: 373
GlyphClass: 2
Flags: W
LayerCount: 2
Back
Fore
SplineSet
150 0 m 2,0,1
 105 0 105 0 79.5 27.5 c 128,-1,2
 54 55 54 55 54 103 c 2,3,-1
 54 331 l 2,4,5
 54 377 54 377 79.5 405.5 c 128,-1,6
 105 434 105 434 150 434 c 2,7,-1
 223 434 l 2,8,9
 268 434 268 434 293.5 405.5 c 128,-1,10
 319 377 319 377 319 331 c 2,11,-1
 319 103 l 2,12,13
 319 55 319 55 293.5 27.5 c 128,-1,14
 268 0 268 0 223 0 c 2,15,-1
 150 0 l 2,0,1
265 330 m 2,16,17
 265 379 265 379 223 379 c 2,18,-1
 150 379 l 2,19,20
 108 379 108 379 108 330 c 2,21,-1
 108 104 l 2,22,23
 108 55 108 55 150 55 c 2,24,-1
 223 55 l 2,25,26
 265 55 265 55 265 104 c 2,27,-1
 265 330 l 2,16,17
EndSplineSet
EndChar

StartChar: P
Encoding: 80 80 51
Width: 353
GlyphClass: 2
Flags: W
LayerCount: 2
Back
Fore
SplineSet
114 152 m 1,0,-1
 114 24 l 2,1,2
 114 16 114 16 109 8 c 128,-1,3
 104 0 104 0 92 0 c 2,4,-1
 83 0 l 2,5,6
 72 0 72 0 66 7 c 128,-1,7
 60 14 60 14 60 24 c 2,8,-1
 60 409 l 2,9,10
 60 418 60 418 65.5 426 c 128,-1,11
 71 434 71 434 83 434 c 2,12,-1
 214 434 l 2,13,14
 259 434 259 434 284 405.5 c 128,-1,15
 309 377 309 377 309 331 c 2,16,-1
 309 255 l 2,17,18
 309 210 309 210 284 181 c 128,-1,19
 259 152 259 152 214 152 c 2,20,-1
 114 152 l 1,0,-1
256 330 m 2,21,22
 256 379 256 379 214 379 c 2,23,-1
 114 379 l 1,24,-1
 114 208 l 1,25,-1
 214 208 l 2,26,27
 234 208 234 208 245 219 c 128,-1,28
 256 230 256 230 256 256 c 2,29,-1
 256 330 l 2,21,22
EndSplineSet
EndChar

StartChar: Q
Encoding: 81 81 52
Width: 373
GlyphClass: 2
Flags: W
LayerCount: 2
Back
Fore
SplineSet
284 -56 m 2,0,1
 285 -59 285 -59 286 -64.5 c 128,-1,2
 287 -70 287 -70 285.5 -76 c 128,-1,3
 284 -82 284 -82 279.5 -86 c 128,-1,4
 275 -90 275 -90 265 -90 c 2,5,-1
 256 -90 l 2,6,7
 247 -90 247 -90 241 -85.5 c 128,-1,8
 235 -81 235 -81 232 -76 c 2,9,-1
 192 -7 l 1,10,-1
 150 -7 l 2,11,12
 105 -7 105 -7 79.5 21.5 c 128,-1,13
 54 50 54 50 54 98 c 2,14,-1
 54 330 l 2,15,16
 54 376 54 376 79.5 405 c 128,-1,17
 105 434 105 434 150 434 c 2,18,-1
 223 434 l 2,19,20
 268 434 268 434 293.5 405 c 128,-1,21
 319 376 319 376 319 330 c 2,22,-1
 319 98 l 2,23,24
 319 60 319 60 301.5 33.5 c 128,-1,25
 284 7 284 7 253 -2 c 1,26,-1
 284 -56 l 2,0,1
265 329 m 2,27,28
 265 378 265 378 223 378 c 2,29,-1
 150 378 l 2,30,31
 108 378 108 378 108 329 c 2,32,-1
 108 99 l 2,33,34
 108 49 108 49 150 49 c 2,35,-1
 223 49 l 2,36,37
 265 49 265 49 265 99 c 2,38,-1
 265 329 l 2,27,28
EndSplineSet
EndChar

StartChar: R
Encoding: 82 82 53
Width: 352
GlyphClass: 2
Flags: W
LayerCount: 2
Back
Fore
SplineSet
280 0 m 2,0,1
 272 0 272 0 266 4.5 c 128,-1,2
 260 9 260 9 257 14 c 2,3,-1
 191 166 l 1,4,-1
 110 166 l 1,5,-1
 110 24 l 2,6,7
 110 12 110 12 102 6 c 128,-1,8
 94 0 94 0 86 0 c 2,9,-1
 79 0 l 2,10,11
 72 0 72 0 63.5 5 c 128,-1,12
 55 10 55 10 55 24 c 2,13,-1
 55 410 l 2,14,15
 55 422 55 422 62.5 428 c 128,-1,16
 70 434 70 434 79 434 c 2,17,-1
 208 434 l 2,18,19
 253 434 253 434 279 406.5 c 128,-1,20
 305 379 305 379 305 331 c 2,21,-1
 305 270 l 2,22,23
 305 197 305 197 246 174 c 1,24,-1
 310 32 l 2,25,26
 311 29 311 29 312 23.5 c 128,-1,27
 313 18 313 18 311.5 13 c 128,-1,28
 310 8 310 8 305.5 4 c 128,-1,29
 301 0 301 0 292 0 c 2,30,-1
 280 0 l 2,0,1
251 330 m 2,31,32
 251 380 251 380 208 380 c 2,33,-1
 110 380 l 1,34,-1
 110 222 l 1,35,-1
 208 222 l 2,36,37
 251 222 251 222 251 270 c 2,38,-1
 251 330 l 2,31,32
EndSplineSet
EndChar

StartChar: S
Encoding: 83 83 54
Width: 383
GlyphClass: 2
Flags: W
LayerCount: 2
Back
Fore
SplineSet
157 0 m 2,0,1
 112 0 112 0 86 27.5 c 128,-1,2
 60 55 60 55 60 103 c 2,3,-1
 60 128 l 2,4,5
 60 138 60 138 66 145 c 128,-1,6
 72 152 72 152 83 152 c 2,7,-1
 92 152 l 2,8,9
 104 152 104 152 109.5 144 c 128,-1,10
 115 136 115 136 115 128 c 2,11,-1
 115 104 l 2,12,13
 115 55 115 55 157 55 c 2,14,-1
 226 55 l 2,15,16
 268 55 268 55 268 104 c 2,17,-1
 268 134 l 2,18,19
 268 151 268 151 253 165 c 128,-1,20
 238 179 238 179 209 186 c 0,21,22
 188 191 188 191 162 197 c 128,-1,23
 136 203 136 203 113.5 214.5 c 128,-1,24
 91 226 91 226 75.5 245 c 128,-1,25
 60 264 60 264 60 294 c 2,26,-1
 60 331 l 2,27,28
 60 377 60 377 86 405.5 c 128,-1,29
 112 434 112 434 157 434 c 2,30,-1
 226 434 l 2,31,32
 271 434 271 434 296.5 405.5 c 128,-1,33
 322 377 322 377 322 331 c 2,34,-1
 322 313 l 2,35,36
 322 305 322 305 316.5 296.5 c 128,-1,37
 311 288 311 288 299 288 c 2,38,-1
 292 288 l 2,39,40
 268 288 268 288 268 313 c 2,41,-1
 268 330 l 2,42,43
 268 379 268 379 226 379 c 2,44,-1
 157 379 l 2,45,46
 115 379 115 379 115 330 c 2,47,-1
 115 295 l 2,48,49
 115 283 115 283 126.5 270.5 c 128,-1,50
 138 258 138 258 173 250 c 0,51,52
 197 245 197 245 221 239 c 128,-1,53
 245 233 245 233 268 221 c 256,54,55
 291 209 291 209 306.5 188.5 c 128,-1,56
 322 168 322 168 322 136 c 2,57,-1
 322 103 l 2,58,59
 322 55 322 55 296.5 27.5 c 128,-1,60
 271 0 271 0 226 0 c 2,61,-1
 157 0 l 2,0,1
EndSplineSet
EndChar

StartChar: T
Encoding: 84 84 55
Width: 279
GlyphClass: 2
Flags: W
LayerCount: 2
Back
Fore
SplineSet
166 379 m 1,0,-1
 166 24 l 2,1,2
 166 16 166 16 160.5 8 c 128,-1,3
 155 0 155 0 143 0 c 2,4,-1
 136 0 l 2,5,6
 124 0 124 0 118.5 8 c 128,-1,7
 113 16 113 16 113 24 c 2,8,-1
 113 379 l 1,9,-1
 37 379 l 2,10,11
 30 379 30 379 21.5 384 c 128,-1,12
 13 389 13 389 13 402 c 2,13,-1
 13 410 l 2,14,15
 13 422 13 422 20.5 428 c 128,-1,16
 28 434 28 434 37 434 c 2,17,-1
 243 434 l 2,18,19
 254 434 254 434 259.5 426 c 128,-1,20
 265 418 265 418 265 410 c 2,21,-1
 265 402 l 2,22,23
 265 393 265 393 259 386 c 128,-1,24
 253 379 253 379 243 379 c 2,25,-1
 166 379 l 1,0,-1
EndSplineSet
EndChar

StartChar: U
Encoding: 85 85 56
Width: 371
GlyphClass: 2
Flags: W
LayerCount: 2
Back
Fore
SplineSet
153 0 m 2,0,1
 108 0 108 0 83 27.5 c 128,-1,2
 58 55 58 55 58 103 c 2,3,-1
 58 409 l 2,4,5
 58 415 58 415 62.5 424.5 c 128,-1,6
 67 434 67 434 81 434 c 2,7,-1
 88 434 l 2,8,9
 102 434 102 434 106.5 424.5 c 128,-1,10
 111 415 111 415 111 409 c 2,11,-1
 111 104 l 2,12,13
 111 55 111 55 153 55 c 2,14,-1
 218 55 l 2,15,16
 259 55 259 55 259 104 c 2,17,-1
 259 409 l 2,18,19
 259 418 259 418 265 426 c 128,-1,20
 271 434 271 434 283 434 c 2,21,-1
 291 434 l 2,22,23
 303 434 303 434 308.5 426 c 128,-1,24
 314 418 314 418 314 410 c 2,25,-1
 314 103 l 2,26,27
 314 55 314 55 288.5 27.5 c 128,-1,28
 263 0 263 0 218 0 c 2,29,-1
 153 0 l 2,0,1
EndSplineSet
EndChar

StartChar: V
Encoding: 86 86 57
Width: 333
GlyphClass: 2
Flags: W
LayerCount: 2
Back
Fore
SplineSet
197 17 m 2,0,1
 195 13 195 13 190 6.5 c 128,-1,2
 185 0 185 0 174 0 c 2,3,-1
 159 0 l 2,4,5
 147 0 147 0 142.5 7.5 c 128,-1,6
 138 15 138 15 136 19 c 2,7,-1
 22 404 l 2,8,9
 20 410 20 410 23 422 c 128,-1,10
 26 434 26 434 43 434 c 2,11,-1
 52 434 l 2,12,13
 64 434 64 434 68.5 426.5 c 128,-1,14
 73 419 73 419 75 414 c 2,15,-1
 167 108 l 1,16,-1
 258 414 l 2,17,18
 260 419 260 419 264.5 426.5 c 128,-1,19
 269 434 269 434 281 434 c 2,20,-1
 291 434 l 2,21,22
 307 434 307 434 310 422 c 128,-1,23
 313 410 313 410 311 404 c 2,24,-1
 197 17 l 2,0,1
EndSplineSet
EndChar

StartChar: W
Encoding: 87 87 58
Width: 533
GlyphClass: 2
Flags: W
LayerCount: 2
Back
Fore
SplineSet
418 20 m 2,0,1
 413 0 413 0 393 0 c 2,2,-1
 377 0 l 2,3,4
 357 0 357 0 352 19 c 2,5,-1
 267 322 l 1,6,-1
 182 18 l 2,7,8
 180 13 180 13 174 6.5 c 128,-1,9
 168 0 168 0 157 0 c 2,10,-1
 141 0 l 2,11,12
 133 0 133 0 125.5 4.5 c 128,-1,13
 118 9 118 9 115 20 c 2,14,-1
 24 404 l 2,15,16
 20 419 20 419 29 426.5 c 128,-1,17
 38 434 38 434 49 434 c 2,18,-1
 57 434 l 2,19,20
 68 434 68 434 74 427.5 c 128,-1,21
 80 421 80 421 82 413 c 2,22,-1
 150 115 l 1,23,-1
 235 415 l 2,24,25
 238 422 238 422 244 428 c 128,-1,26
 250 434 250 434 260 434 c 2,27,-1
 272 434 l 2,28,29
 283 434 283 434 289 427.5 c 128,-1,30
 295 421 295 421 297 414 c 2,31,-1
 383 113 l 1,32,-1
 451 413 l 2,33,34
 453 421 453 421 459 427.5 c 128,-1,35
 465 434 465 434 477 434 c 2,36,-1
 486 434 l 2,37,38
 504 434 504 434 506.5 422 c 128,-1,39
 509 410 509 410 507 404 c 2,40,-1
 418 20 l 2,0,1
EndSplineSet
EndChar

StartChar: X
Encoding: 88 88 59
Width: 333
GlyphClass: 2
Flags: W
LayerCount: 2
Back
Fore
SplineSet
278 0 m 2,0,1
 274 0 274 0 267 2.5 c 128,-1,2
 260 5 260 5 255 13 c 2,3,-1
 167 177 l 1,4,-1
 79 13 l 2,5,6
 74 5 74 5 67 2.5 c 128,-1,7
 60 0 60 0 55 0 c 2,8,-1
 46 0 l 2,9,10
 29 0 29 0 25.5 12.5 c 128,-1,11
 22 25 22 25 27 34 c 2,12,-1
 134 229 l 1,13,-1
 34 399 l 2,14,15
 32 403 32 403 31 409 c 128,-1,16
 30 415 30 415 31.5 420.5 c 128,-1,17
 33 426 33 426 38 430 c 128,-1,18
 43 434 43 434 53 434 c 2,19,-1
 62 434 l 2,20,21
 78 434 78 434 86 417 c 2,22,-1
 167 279 l 1,23,-1
 248 417 l 2,24,25
 252 423 252 423 257 428.5 c 128,-1,26
 262 434 262 434 271 434 c 2,27,-1
 281 434 l 2,28,29
 291 434 291 434 295.5 430 c 128,-1,30
 300 426 300 426 301.5 420.5 c 128,-1,31
 303 415 303 415 302 409 c 128,-1,32
 301 403 301 403 299 399 c 2,33,-1
 200 229 l 1,34,-1
 308 31 l 2,35,36
 309 28 309 28 309.5 23 c 128,-1,37
 310 18 310 18 308 12.5 c 128,-1,38
 306 7 306 7 301.5 3.5 c 128,-1,39
 297 0 297 0 288 0 c 2,40,-1
 278 0 l 2,0,1
EndSplineSet
EndChar

StartChar: Y
Encoding: 89 89 60
Width: 328
GlyphClass: 2
Flags: W
LayerCount: 2
Back
Fore
SplineSet
191 166 m 1,0,-1
 191 24 l 2,1,2
 191 14 191 14 184.5 7 c 128,-1,3
 178 0 178 0 167 0 c 2,4,-1
 160 0 l 2,5,6
 148 0 148 0 142.5 8 c 128,-1,7
 137 16 137 16 137 24 c 2,8,-1
 137 166 l 1,9,-1
 23 400 l 2,10,11
 21 403 21 403 20 408.5 c 128,-1,12
 19 414 19 414 20.5 420 c 128,-1,13
 22 426 22 426 27 430 c 128,-1,14
 32 434 32 434 42 434 c 2,15,-1
 52 434 l 2,16,17
 63 434 63 434 68.5 428 c 128,-1,18
 74 422 74 422 76 417 c 2,19,-1
 164 234 l 1,20,-1
 252 417 l 2,21,22
 254 422 254 422 259.5 428 c 128,-1,23
 265 434 265 434 276 434 c 2,24,-1
 285 434 l 2,25,26
 303 434 303 434 305.5 421.5 c 128,-1,27
 308 409 308 409 305 401 c 2,28,-1
 191 166 l 1,0,-1
EndSplineSet
EndChar

StartChar: Z
Encoding: 90 90 61
Width: 318
GlyphClass: 2
Flags: W
LayerCount: 2
Back
Fore
SplineSet
50 0 m 2,0,1
 42 0 42 0 34.5 6 c 128,-1,2
 27 12 27 12 27 24 c 2,3,-1
 27 34 l 2,4,5
 27 41 27 41 30 49 c 2,6,-1
 216 379 l 1,7,-1
 56 379 l 2,8,9
 49 379 49 379 40.5 384 c 128,-1,10
 32 389 32 389 32 402 c 2,11,-1
 32 410 l 2,12,13
 32 422 32 422 39.5 428 c 128,-1,14
 47 434 47 434 56 434 c 2,15,-1
 261 434 l 2,16,17
 272 434 272 434 278.5 427 c 128,-1,18
 285 420 285 420 285 410 c 2,19,-1
 285 399 l 2,20,21
 285 395 285 395 284.5 391.5 c 128,-1,22
 284 388 284 388 282 384 c 2,23,-1
 96 55 l 1,24,-1
 267 55 l 2,25,26
 276 55 276 55 283.5 49 c 128,-1,27
 291 43 291 43 291 31 c 2,28,-1
 291 24 l 2,29,30
 291 10 291 10 282.5 5 c 128,-1,31
 274 0 274 0 267 0 c 2,32,-1
 50 0 l 2,0,1
EndSplineSet
EndChar

StartChar: bracketleft
Encoding: 91 91 62
Width: 187
GlyphClass: 2
Flags: W
LayerCount: 2
Back
Fore
SplineSet
60 -69 m 2,0,1
 49 -69 49 -69 44.5 -61 c 128,-1,2
 40 -53 40 -53 40 -44 c 2,3,-1
 40 408 l 2,4,5
 40 416 40 416 44.5 425 c 128,-1,6
 49 434 49 434 60 434 c 2,7,-1
 119 434 l 2,8,9
 130 434 130 434 134.5 426 c 128,-1,10
 139 418 139 418 139 409 c 2,11,-1
 139 402 l 2,12,13
 139 391 139 391 133 384.5 c 128,-1,14
 127 378 127 378 119 378 c 2,15,-1
 85 378 l 1,16,-1
 85 -13 l 1,17,-1
 119 -13 l 2,18,19
 130 -13 130 -13 134.5 -21 c 128,-1,20
 139 -29 139 -29 139 -38 c 2,21,-1
 139 -45 l 2,22,23
 139 -56 139 -56 133 -62.5 c 128,-1,24
 127 -69 127 -69 119 -69 c 2,25,-1
 60 -69 l 2,0,1
EndSplineSet
EndChar

StartChar: backslash
Encoding: 92 92 63
Width: 265
GlyphClass: 2
Flags: W
LayerCount: 2
Back
Fore
SplineSet
189 0 m 2,0,1
 179 0 179 0 173.5 6 c 128,-1,2
 168 12 168 12 165 18 c 2,3,-1
 49 401 l 2,4,5
 47 408 47 408 49 421 c 128,-1,6
 51 434 51 434 68 434 c 2,7,-1
 76 434 l 2,8,9
 93 434 93 434 99 415 c 2,10,-1
 216 32 l 2,11,12
 220 21 220 21 214.5 10.5 c 128,-1,13
 209 0 209 0 195 0 c 2,14,-1
 189 0 l 2,0,1
EndSplineSet
EndChar

StartChar: bracketright
Encoding: 93 93 64
Width: 187
GlyphClass: 2
Flags: W
LayerCount: 2
Back
Fore
SplineSet
61 -69 m 2,0,1
 53 -69 53 -69 46.5 -63 c 128,-1,2
 40 -57 40 -57 40 -45 c 2,3,-1
 40 -38 l 2,4,5
 40 -27 40 -27 46 -20 c 128,-1,6
 52 -13 52 -13 61 -13 c 2,7,-1
 94 -13 l 1,8,-1
 94 378 l 1,9,-1
 61 378 l 2,10,11
 53 378 53 378 46.5 384 c 128,-1,12
 40 390 40 390 40 402 c 2,13,-1
 40 409 l 2,14,15
 40 420 40 420 46 427 c 128,-1,16
 52 434 52 434 61 434 c 2,17,-1
 120 434 l 2,18,19
 132 434 132 434 135.5 423.5 c 128,-1,20
 139 413 139 413 139 408 c 2,21,-1
 139 -44 l 2,22,23
 139 -51 139 -51 135 -60 c 128,-1,24
 131 -69 131 -69 120 -69 c 2,25,-1
 61 -69 l 2,0,1
EndSplineSet
EndChar

StartChar: asciicircum
Encoding: 94 94 65
Width: 306
GlyphClass: 2
Flags: W
LayerCount: 2
Back
Fore
SplineSet
236 247 m 2,0,1
 228 247 228 247 223 251 c 128,-1,2
 218 255 218 255 214 258 c 2,3,-1
 152 369 l 1,4,-1
 92 258 l 1,5,6
 81 247 81 247 69 247 c 2,7,-1
 64 247 l 2,8,9
 51 247 51 247 44.5 256.5 c 128,-1,10
 38 266 38 266 43 279 c 2,11,-1
 119 419 l 2,12,13
 124 428 124 428 131.5 431 c 128,-1,14
 139 434 139 434 146 434 c 2,15,-1
 159 434 l 2,16,17
 165 434 165 434 173.5 431.5 c 128,-1,18
 182 429 182 429 187 419 c 2,19,-1
 262 279 l 2,20,21
 269 266 269 266 262 256.5 c 128,-1,22
 255 247 255 247 242 247 c 2,23,-1
 236 247 l 2,0,1
EndSplineSet
EndChar

StartChar: underscore
Encoding: 95 95 66
Width: 251
GlyphClass: 2
Flags: W
LayerCount: 2
Back
Fore
SplineSet
23 -75 m 2,0,1
 13 -75 13 -75 6.5 -71.5 c 128,-1,2
 0 -68 0 -68 0 -65 c 2,3,-1
 0 -46 l 2,4,5
 0 -42 0 -42 7.5 -39 c 128,-1,6
 15 -36 15 -36 23 -36 c 2,7,-1
 228 -36 l 2,8,9
 236 -36 236 -36 243.5 -39 c 128,-1,10
 251 -42 251 -42 251 -46 c 2,11,-1
 251 -65 l 2,12,13
 251 -68 251 -68 244.5 -71.5 c 128,-1,14
 238 -75 238 -75 228 -75 c 2,15,-1
 23 -75 l 2,0,1
EndSplineSet
EndChar

StartChar: grave
Encoding: 96 96 67
Width: 176
GlyphClass: 2
Flags: W
LayerCount: 2
Back
Fore
SplineSet
108 387 m 2,0,1
 102 387 102 387 97 390 c 128,-1,2
 92 393 92 393 90 397 c 2,3,-1
 52 445 l 2,4,5
 43 456 43 456 49.5 465 c 128,-1,6
 56 474 56 474 65 474 c 2,7,-1
 77 474 l 2,8,9
 91 474 91 474 97 463 c 2,10,-1
 126 414 l 2,11,12
 131 406 131 406 127.5 396.5 c 128,-1,13
 124 387 124 387 111 387 c 2,14,-1
 108 387 l 2,0,1
EndSplineSet
EndChar

StartChar: a
Encoding: 97 97 68
Width: 336
GlyphClass: 2
Flags: W
LayerCount: 2
Back
Fore
SplineSet
251 0 m 2,0,1
 237 0 237 0 232 11 c 1,2,3
 208 0 208 0 184 0 c 2,4,-1
 142 0 l 2,5,6
 97 0 97 0 72 27.5 c 128,-1,7
 47 55 47 55 47 101 c 2,8,-1
 47 243 l 2,9,10
 47 289 47 289 72 316.5 c 128,-1,11
 97 344 97 344 142 344 c 2,12,-1
 259 344 l 2,13,14
 270 344 270 344 276 337 c 128,-1,15
 282 330 282 330 282 320 c 2,16,-1
 282 24 l 2,17,18
 282 14 282 14 276 7 c 128,-1,19
 270 0 270 0 259 0 c 2,20,-1
 251 0 l 2,0,1
230 254 m 0,21,22
 230 264 230 264 229 265 c 2,23,-1
 229 272 l 2,24,25
 230 277 230 277 227.5 283 c 128,-1,26
 225 289 225 289 211 290 c 0,27,28
 208 291 208 291 205 291 c 0,29,30
 201 291 201 291 200 290 c 0,31,32
 195 290 195 290 183 289.5 c 128,-1,33
 171 289 171 289 142 290 c 0,34,35
 100 290 100 290 100 243 c 2,36,-1
 100 102 l 2,37,38
 100 54 100 54 142 54 c 2,39,-1
 183 54 l 2,40,41
 229 54 229 54 229 98 c 0,42,43
 229 173 229 173 229.5 207 c 128,-1,44
 230 241 230 241 230 254 c 0,21,22
EndSplineSet
EndChar

StartChar: b
Encoding: 98 98 69
Width: 336
GlyphClass: 2
Flags: W
LayerCount: 2
Back
Fore
SplineSet
76 0 m 2,0,1
 65 0 65 0 59.5 8.5 c 128,-1,2
 54 17 54 17 54 25 c 2,3,-1
 54 449 l 2,4,5
 54 457 54 457 59.5 465.5 c 128,-1,6
 65 474 65 474 76 474 c 2,7,-1
 84 474 l 2,8,9
 107 474 107 474 107 449 c 2,10,-1
 107 351 l 1,11,12
 126 361 126 361 152 361 c 2,13,-1
 194 361 l 2,14,15
 237 361 237 361 263 332 c 128,-1,16
 289 303 289 303 289 257 c 2,17,-1
 289 104 l 2,18,19
 289 56 289 56 263 28 c 128,-1,20
 237 0 237 0 194 0 c 2,21,-1
 76 0 l 2,0,1
235 256 m 2,22,23
 235 305 235 305 194 305 c 2,24,-1
 152 305 l 2,25,26
 107 305 107 305 107 260 c 2,27,-1
 107 56 l 1,28,-1
 194 56 l 2,29,30
 215 56 215 56 225 67.5 c 128,-1,31
 235 79 235 79 235 105 c 2,32,-1
 235 256 l 2,22,23
EndSplineSet
EndChar

StartChar: c
Encoding: 99 99 70
Width: 263
GlyphClass: 2
Flags: W
LayerCount: 2
Back
Fore
SplineSet
139 0 m 2,0,1
 97 0 97 0 72 27.5 c 128,-1,2
 47 55 47 55 47 101 c 2,3,-1
 47 243 l 2,4,5
 47 289 47 289 72 316.5 c 128,-1,6
 97 344 97 344 139 344 c 2,7,-1
 216 344 l 2,8,9
 227 344 227 344 233 337 c 128,-1,10
 239 330 239 330 239 320 c 2,11,-1
 239 313 l 2,12,13
 239 302 239 302 231.5 296 c 128,-1,14
 224 290 224 290 216 290 c 2,15,-1
 139 290 l 2,16,17
 99 290 99 290 99 243 c 2,18,-1
 99 102 l 2,19,20
 99 76 99 76 109 65 c 128,-1,21
 119 54 119 54 139 54 c 2,22,-1
 216 54 l 2,23,24
 227 54 227 54 233 47 c 128,-1,25
 239 40 239 40 239 30 c 2,26,-1
 239 23 l 2,27,28
 239 12 239 12 231.5 6 c 128,-1,29
 224 0 224 0 216 0 c 2,30,-1
 139 0 l 2,0,1
EndSplineSet
EndChar

StartChar: d
Encoding: 100 100 71
Width: 336
GlyphClass: 2
Flags: W
LayerCount: 2
Back
Fore
SplineSet
251 0 m 2,0,1
 236 0 236 0 232 12 c 1,2,3
 211 0 211 0 184 0 c 2,4,-1
 142 0 l 2,5,6
 97 0 97 0 72 28 c 128,-1,7
 47 56 47 56 47 104 c 2,8,-1
 47 251 l 2,9,10
 47 299 47 299 72 326.5 c 128,-1,11
 97 354 97 354 142 354 c 2,12,-1
 184 354 l 2,13,14
 210 354 210 354 229 344 c 1,15,-1
 229 449 l 2,16,17
 229 457 229 457 234 465.5 c 128,-1,18
 239 474 239 474 251 474 c 2,19,-1
 259 474 l 2,20,21
 282 474 282 474 282 449 c 2,22,-1
 282 25 l 2,23,24
 282 0 282 0 259 0 c 2,25,-1
 251 0 l 2,0,1
229 254 m 2,26,27
 229 299 229 299 183 299 c 2,28,-1
 142 299 l 2,29,30
 100 299 100 299 100 251 c 2,31,-1
 100 105 l 2,32,33
 100 79 100 79 110.5 67.5 c 128,-1,34
 121 56 121 56 142 56 c 2,35,-1
 183 56 l 2,36,37
 229 56 229 56 229 101 c 2,38,-1
 229 254 l 2,26,27
EndSplineSet
EndChar

StartChar: e
Encoding: 101 101 72
Width: 331
GlyphClass: 2
Flags: W
LayerCount: 2
Back
Fore
SplineSet
100 143 m 1,0,-1
 100 102 l 2,1,2
 100 54 100 54 142 54 c 2,3,-1
 260 54 l 2,4,5
 270 54 270 54 276.5 47.5 c 128,-1,6
 283 41 283 41 283 30 c 2,7,-1
 283 23 l 2,8,9
 283 12 283 12 275.5 6 c 128,-1,10
 268 0 268 0 260 0 c 2,11,-1
 142 0 l 2,12,13
 97 0 97 0 72 27.5 c 128,-1,14
 47 55 47 55 47 101 c 2,15,-1
 47 243 l 2,16,17
 47 289 47 289 72 316.5 c 128,-1,18
 97 344 97 344 142 344 c 2,19,-1
 192 344 l 2,20,21
 237 344 237 344 262 316.5 c 128,-1,22
 287 289 287 289 287 243 c 2,23,-1
 287 167 l 2,24,25
 287 159 287 159 281.5 151 c 128,-1,26
 276 143 276 143 265 143 c 2,27,-1
 100 143 l 1,0,-1
142 290 m 2,28,29
 100 290 100 290 100 243 c 2,30,-1
 100 197 l 1,31,-1
 234 197 l 1,32,-1
 234 243 l 2,33,34
 234 290 234 290 192 290 c 2,35,-1
 142 290 l 2,28,29
EndSplineSet
EndChar

StartChar: f
Encoding: 102 102 73
Width: 195
GlyphClass: 2
Flags: W
LayerCount: 2
Back
Fore
SplineSet
121 299 m 1,0,-1
 121 25 l 2,1,2
 121 17 121 17 116 8.5 c 128,-1,3
 111 0 111 0 100 0 c 2,4,-1
 93 0 l 2,5,6
 81 0 81 0 76.5 8.5 c 128,-1,7
 72 17 72 17 72 25 c 2,8,-1
 72 299 l 1,9,-1
 48 299 l 2,10,11
 40 299 40 299 33 305.5 c 128,-1,12
 26 312 26 312 26 323 c 2,13,-1
 26 330 l 2,14,15
 26 340 26 340 31.5 347 c 128,-1,16
 37 354 37 354 48 354 c 2,17,-1
 72 354 l 1,18,-1
 72 372 l 2,19,20
 72 420 72 420 91 447 c 128,-1,21
 110 474 110 474 150 474 c 2,22,-1
 158 474 l 2,23,24
 166 474 166 474 173 467.5 c 128,-1,25
 180 461 180 461 180 450 c 2,26,-1
 180 443 l 2,27,28
 180 433 180 433 174.5 425.5 c 128,-1,29
 169 418 169 418 158 418 c 2,30,-1
 150 418 l 2,31,32
 135 418 135 418 128 409 c 128,-1,33
 121 400 121 400 121 371 c 2,34,-1
 121 354 l 1,35,-1
 158 354 l 2,36,37
 169 354 169 354 174.5 347 c 128,-1,38
 180 340 180 340 180 330 c 2,39,-1
 180 323 l 2,40,41
 180 312 180 312 173 305.5 c 128,-1,42
 166 299 166 299 158 299 c 2,43,-1
 121 299 l 1,0,-1
EndSplineSet
EndChar

StartChar: g
Encoding: 103 103 74
Width: 339
GlyphClass: 2
Flags: W
LayerCount: 2
Back
Fore
SplineSet
88 -90 m 2,0,1
 80 -90 80 -90 72.5 -84 c 128,-1,2
 65 -78 65 -78 65 -66 c 2,3,-1
 65 -59 l 2,4,5
 65 -49 65 -49 71 -42 c 128,-1,6
 77 -35 77 -35 88 -35 c 2,7,-1
 191 -35 l 2,8,9
 232 -35 232 -35 232 14 c 2,10,-1
 232 20 l 1,11,12
 213 10 213 10 187 10 c 2,13,-1
 145 10 l 2,14,15
 102 10 102 10 76 37.5 c 128,-1,16
 50 65 50 65 50 113 c 2,17,-1
 50 241 l 2,18,19
 50 289 50 289 76 316.5 c 128,-1,20
 102 344 102 344 145 344 c 2,21,-1
 263 344 l 2,22,23
 274 344 274 344 279.5 336 c 128,-1,24
 285 328 285 328 285 320 c 2,25,-1
 285 13 l 2,26,27
 285 -35 285 -35 259.5 -62.5 c 128,-1,28
 234 -90 234 -90 191 -90 c 2,29,-1
 88 -90 l 2,0,1
143 288 m 2,30,31
 122 288 122 288 113 277 c 128,-1,32
 104 266 104 266 104 241 c 2,33,-1
 104 113 l 2,34,35
 104 66 104 66 145 66 c 2,36,-1
 187 66 l 2,37,38
 232 66 232 66 232 111 c 2,39,-1
 234 289 l 1,40,-1
 143 288 l 2,30,31
EndSplineSet
EndChar

StartChar: h
Encoding: 104 104 75
Width: 339
GlyphClass: 2
Flags: W
LayerCount: 2
Back
Fore
SplineSet
258 0 m 2,0,1
 235 0 235 0 235 25 c 2,2,-1
 235 251 l 2,3,4
 235 299 235 299 194 299 c 2,5,-1
 152 299 l 2,6,7
 107 299 107 299 107 254 c 2,8,-1
 107 25 l 2,9,10
 107 0 107 0 84 0 c 2,11,-1
 76 0 l 2,12,13
 65 0 65 0 59.5 8.5 c 128,-1,14
 54 17 54 17 54 25 c 2,15,-1
 54 449 l 2,16,17
 54 457 54 457 59.5 465.5 c 128,-1,18
 65 474 65 474 76 474 c 2,19,-1
 84 474 l 2,20,21
 107 474 107 474 107 449 c 2,22,-1
 107 345 l 1,23,24
 126 354 126 354 152 354 c 2,25,-1
 194 354 l 2,26,27
 237 354 237 354 263 326.5 c 128,-1,28
 289 299 289 299 289 251 c 2,29,-1
 289 25 l 2,30,31
 289 0 289 0 266 0 c 2,32,-1
 258 0 l 2,0,1
EndSplineSet
EndChar

StartChar: i
Encoding: 105 105 76
Width: 135
GlyphClass: 2
Flags: W
LayerCount: 2
Back
Fore
SplineSet
50 373 m 6,0,1
 46 373 46 373 43 381 c 132,-1,2
 40 389 40 389 40 398 c 6,3,-1
 40 448 l 6,4,5
 40 457 40 457 43 465 c 132,-1,6
 46 473 46 473 50 473 c 6,7,-1
 83 473 l 6,8,9
 87 473 87 473 90 465 c 132,-1,10
 93 457 93 457 93 448 c 6,11,-1
 93 398 l 6,12,13
 93 389 93 389 90 381 c 132,-1,14
 87 373 87 373 83 373 c 6,15,-1
 50 373 l 6,0,1
50 0 m 2,16,17
 46 0 46 0 43 8 c 128,-1,18
 40 16 40 16 40 25 c 2,19,-1
 40 330 l 2,20,21
 40 339 40 339 43 346.5 c 128,-1,22
 46 354 46 354 50 354 c 2,23,-1
 83 354 l 2,24,25
 87 354 87 354 90 346.5 c 128,-1,26
 93 339 93 339 93 330 c 2,27,-1
 93 25 l 2,28,29
 93 16 93 16 90 8 c 128,-1,30
 87 0 87 0 83 0 c 2,31,-1
 50 0 l 2,16,17
EndSplineSet
EndChar

StartChar: j
Encoding: 106 106 77
Width: 135
GlyphClass: 2
Flags: W
LayerCount: 2
Back
Fore
SplineSet
51 361 m 2,0,1
 40 361 40 361 35.5 370 c 128,-1,2
 31 379 31 379 31 386 c 2,3,-1
 31 448 l 2,4,5
 31 455 31 455 35.5 464 c 128,-1,6
 40 473 40 473 51 473 c 2,7,-1
 64 473 l 2,8,9
 75 473 75 473 79.5 464 c 128,-1,10
 84 455 84 455 84 448 c 2,11,-1
 84 386 l 2,12,13
 84 379 84 379 79.5 370 c 128,-1,14
 75 361 75 361 64 361 c 2,15,-1
 51 361 l 2,0,1
-12 -90 m 2,16,17
 -20 -90 -20 -90 -26 -83.5 c 128,-1,18
 -32 -77 -32 -77 -32 -66 c 2,19,-1
 -32 -59 l 2,20,21
 -32 -50 -32 -50 -27 -42 c 128,-1,22
 -22 -34 -22 -34 -12 -34 c 2,23,-1
 -2 -34 l 2,24,25
 14 -34 14 -34 22.5 -23 c 128,-1,26
 31 -12 31 -12 31 16 c 2,27,-1
 31 328 l 2,28,29
 31 335 31 335 35.5 344 c 128,-1,30
 40 353 40 353 51 353 c 2,31,-1
 64 353 l 2,32,33
 75 353 75 353 79.5 344 c 128,-1,34
 84 335 84 335 84 328 c 2,35,-1
 84 15 l 2,36,37
 84 -31 84 -31 63 -60.5 c 128,-1,38
 42 -90 42 -90 -2 -90 c 2,39,-1
 -12 -90 l 2,16,17
EndSplineSet
EndChar

StartChar: k
Encoding: 107 107 78
Width: 283
GlyphClass: 2
Flags: W
LayerCount: 2
Back
Fore
SplineSet
245 0 m 2,0,1
 238 0 238 0 231 3 c 128,-1,2
 224 6 224 6 219 14 c 2,3,-1
 121 168 l 2,4,5
 109 183 109 183 121 198 c 2,6,-1
 208 340 l 2,7,8
 213 349 213 349 221 351.5 c 128,-1,9
 229 354 229 354 234 354 c 2,10,-1
 241 354 l 2,11,12
 258 354 258 354 261.5 341 c 128,-1,13
 265 328 265 328 259 320 c 2,14,-1
 175 183 l 1,15,-1
 271 35 l 2,16,17
 278 25 278 25 274 12.5 c 128,-1,18
 270 0 270 0 254 0 c 2,19,-1
 245 0 l 2,0,1
76 0 m 6,20,21
 64 0 64 0 59 8.5 c 132,-1,22
 54 17 54 17 54 25 c 6,23,-1
 54 449 l 6,24,25
 54 457 54 457 59 465.5 c 132,-1,26
 64 474 64 474 76 474 c 6,27,-1
 84 474 l 6,28,29
 107 474 107 474 107 449 c 6,30,-1
 107 25 l 6,31,32
 107 0 107 0 84 0 c 6,33,-1
 76 0 l 6,20,21
EndSplineSet
EndChar

StartChar: l
Encoding: 108 108 79
Width: 135
GlyphClass: 2
Flags: W
LayerCount: 2
Back
Fore
SplineSet
64 0 m 2,0,1
 52 0 52 0 47 8.5 c 128,-1,2
 42 17 42 17 42 25 c 2,3,-1
 42 449 l 2,4,5
 42 457 42 457 47 465.5 c 128,-1,6
 52 474 52 474 64 474 c 2,7,-1
 72 474 l 2,8,9
 95 474 95 474 95 449 c 2,10,-1
 95 25 l 2,11,12
 95 0 95 0 72 0 c 2,13,-1
 64 0 l 2,0,1
EndSplineSet
EndChar

StartChar: m
Encoding: 109 109 80
Width: 514
GlyphClass: 2
Flags: W
LayerCount: 2
Back
Fore
SplineSet
431 0 m 2,0,1
 419 0 419 0 413 8 c 128,-1,2
 407 16 407 16 407 24 c 2,3,-1
 407 243 l 2,4,5
 407 290 407 290 362 290 c 2,6,-1
 338 290 l 2,7,8
 312 290 312 290 299 277.5 c 128,-1,9
 286 265 286 265 286 243 c 2,10,-1
 286 24 l 2,11,12
 286 16 286 16 280 8 c 128,-1,13
 274 0 274 0 263 0 c 2,14,-1
 254 0 l 2,15,16
 244 0 244 0 237 6.5 c 128,-1,17
 230 13 230 13 230 24 c 2,18,-1
 230 243 l 2,19,20
 230 290 230 290 185 290 c 2,21,-1
 159 290 l 2,22,23
 110 290 110 290 110 246 c 2,24,-1
 110 24 l 2,25,26
 110 0 110 0 86 0 c 2,27,-1
 77 0 l 2,28,29
 66 0 66 0 60 8 c 128,-1,30
 54 16 54 16 54 24 c 2,31,-1
 54 320 l 2,32,33
 54 328 54 328 60 336 c 128,-1,34
 66 344 66 344 77 344 c 2,35,-1
 86 344 l 2,36,37
 99 344 99 344 107 333 c 1,38,39
 131 344 131 344 158 344 c 2,40,-1
 185 344 l 2,41,42
 233 344 233 344 260 316 c 1,43,44
 276 331 276 331 297 337.5 c 128,-1,45
 318 344 318 344 338 344 c 2,46,-1
 362 344 l 2,47,48
 408 344 408 344 435.5 316.5 c 128,-1,49
 463 289 463 289 463 243 c 2,50,-1
 463 24 l 2,51,52
 463 0 463 0 439 0 c 2,53,-1
 431 0 l 2,0,1
EndSplineSet
EndChar

StartChar: n
Encoding: 110 110 81
Width: 339
GlyphClass: 2
Flags: W
LayerCount: 2
Back
Fore
SplineSet
258 0 m 2,0,1
 247 0 247 0 241 7 c 128,-1,2
 235 14 235 14 235 24 c 2,3,-1
 235 243 l 2,4,5
 235 290 235 290 194 290 c 2,6,-1
 152 290 l 2,7,8
 107 290 107 290 107 246 c 2,9,-1
 107 24 l 2,10,11
 107 14 107 14 101 7 c 128,-1,12
 95 0 95 0 84 0 c 2,13,-1
 76 0 l 2,14,15
 65 0 65 0 59.5 8 c 128,-1,16
 54 16 54 16 54 24 c 2,17,-1
 54 320 l 2,18,19
 54 328 54 328 59.5 336 c 128,-1,20
 65 344 65 344 76 344 c 2,21,-1
 84 344 l 2,22,23
 98 344 98 344 104 333 c 1,24,25
 122 344 122 344 152 344 c 2,26,-1
 194 344 l 2,27,28
 237 344 237 344 263 316.5 c 128,-1,29
 289 289 289 289 289 243 c 2,30,-1
 289 24 l 2,31,32
 289 14 289 14 283 7 c 128,-1,33
 277 0 277 0 266 0 c 2,34,-1
 258 0 l 2,0,1
EndSplineSet
EndChar

StartChar: o
Encoding: 111 111 82
Width: 333
GlyphClass: 2
Flags: W
LayerCount: 2
Back
Fore
SplineSet
142 0 m 2,0,1
 97 0 97 0 72 27.5 c 128,-1,2
 47 55 47 55 47 101 c 2,3,-1
 47 243 l 2,4,5
 47 289 47 289 72 316.5 c 128,-1,6
 97 344 97 344 142 344 c 2,7,-1
 191 344 l 2,8,9
 234 344 234 344 259.5 316.5 c 128,-1,10
 285 289 285 289 285 243 c 2,11,-1
 285 101 l 2,12,13
 285 55 285 55 259.5 27.5 c 128,-1,14
 234 0 234 0 191 0 c 2,15,-1
 142 0 l 2,0,1
232 243 m 2,16,17
 232 290 232 290 191 290 c 2,18,-1
 142 290 l 2,19,20
 100 290 100 290 100 243 c 2,21,-1
 100 102 l 2,22,23
 100 54 100 54 142 54 c 2,24,-1
 191 54 l 2,25,26
 232 54 232 54 232 102 c 2,27,-1
 232 243 l 2,16,17
EndSplineSet
EndChar

StartChar: p
Encoding: 112 112 83
Width: 336
GlyphClass: 2
Flags: W
LayerCount: 2
Back
Fore
SplineSet
152 -9 m 2,0,1
 126 -9 126 -9 107 1 c 1,2,-1
 107 -79 l 2,3,4
 107 -87 107 -87 101.5 -95.5 c 128,-1,5
 96 -104 96 -104 84 -104 c 2,6,-1
 76 -104 l 2,7,8
 63 -104 63 -104 58.5 -94.5 c 128,-1,9
 54 -85 54 -85 54 -79 c 2,10,-1
 54 320 l 2,11,12
 54 328 54 328 59.5 336 c 128,-1,13
 65 344 65 344 76 344 c 2,14,-1
 84 344 l 2,15,16
 98 344 98 344 104 333 c 1,17,18
 124 344 124 344 152 344 c 2,19,-1
 194 344 l 2,20,21
 237 344 237 344 263 316.5 c 128,-1,22
 289 289 289 289 289 241 c 2,23,-1
 289 94 l 2,24,25
 289 46 289 46 263 18.5 c 128,-1,26
 237 -9 237 -9 194 -9 c 2,27,-1
 152 -9 l 2,0,1
235 241 m 2,28,29
 235 289 235 289 194 289 c 2,30,-1
 152 289 l 2,31,32
 107 289 107 289 107 244 c 2,33,-1
 107 92 l 2,34,35
 107 47 107 47 152 47 c 2,36,-1
 194 47 l 2,37,38
 215 47 215 47 225 58 c 128,-1,39
 235 69 235 69 235 95 c 2,40,-1
 235 241 l 2,28,29
EndSplineSet
EndChar

StartChar: q
Encoding: 113 113 84
Width: 336
GlyphClass: 2
Flags: W
LayerCount: 2
Back
Fore
SplineSet
251 -104 m 2,0,1
 238 -104 238 -104 233.5 -94.5 c 128,-1,2
 229 -85 229 -85 229 -79 c 2,3,-1
 229 1 l 1,4,5
 218 -5 218 -5 206 -8 c 0,6,7
 200 -9 200 -9 193.5 -9 c 128,-1,8
 187 -9 187 -9 181 -9 c 2,9,-1
 142 -9 l 2,10,11
 97 -9 97 -9 72 18.5 c 128,-1,12
 47 46 47 46 47 94 c 2,13,-1
 47 241 l 2,14,15
 47 289 47 289 72 316.5 c 128,-1,16
 97 344 97 344 142 344 c 2,17,-1
 259 344 l 2,18,19
 270 344 270 344 276 337 c 128,-1,20
 282 330 282 330 282 320 c 2,21,-1
 282 -79 l 2,22,23
 282 -87 282 -87 276.5 -95.5 c 128,-1,24
 271 -104 271 -104 259 -104 c 2,25,-1
 251 -104 l 2,0,1
142 287 m 2,26,27
 100 287 100 287 100 241 c 2,28,-1
 100 95 l 2,29,30
 100 69 100 69 110.5 58 c 128,-1,31
 121 47 121 47 142 47 c 2,32,-1
 181 47 l 2,33,34
 229 47 229 47 229 95 c 2,35,-1
 230 254 l 1,36,-1
 230 270 l 1,37,-1
 230 278 l 1,38,39
 225 289 225 289 213 287 c 2,40,-1
 142 287 l 2,26,27
EndSplineSet
EndChar

StartChar: r
Encoding: 114 114 85
Width: 204
GlyphClass: 2
Flags: W
LayerCount: 2
Back
Fore
SplineSet
142 290 m 2,0,1
 125 290 125 290 113.5 276.5 c 128,-1,2
 102 263 102 263 102 237 c 2,3,-1
 102 24 l 2,4,5
 102 15 102 15 97 7.5 c 128,-1,6
 92 0 92 0 81 0 c 2,7,-1
 74 0 l 2,8,9
 63 0 63 0 58.5 8.5 c 128,-1,10
 54 17 54 17 54 24 c 2,11,-1
 54 320 l 2,12,13
 54 327 54 327 58.5 335.5 c 128,-1,14
 63 344 63 344 74 344 c 2,15,-1
 81 344 l 2,16,17
 95 344 95 344 100 332 c 1,18,19
 108 337 108 337 118.5 340.5 c 128,-1,20
 129 344 129 344 143 344 c 2,21,-1
 163 344 l 2,22,23
 173 344 173 344 178.5 336.5 c 128,-1,24
 184 329 184 329 184 320 c 2,25,-1
 184 313 l 2,26,27
 184 302 184 302 177.5 296 c 128,-1,28
 171 290 171 290 163 290 c 2,29,-1
 142 290 l 2,0,1
EndSplineSet
EndChar

StartChar: s
Encoding: 115 115 86
Width: 290
GlyphClass: 2
Flags: W
LayerCount: 2
Back
Fore
SplineSet
62 0 m 2,0,1
 54 0 54 0 46.5 6 c 128,-1,2
 39 12 39 12 39 23 c 2,3,-1
 39 30 l 2,4,5
 39 41 39 41 45.5 47.5 c 128,-1,6
 52 54 52 54 62 54 c 2,7,-1
 157 54 l 2,8,9
 181 54 181 54 189 62 c 128,-1,10
 197 70 197 70 197 84 c 2,11,-1
 197 102 l 2,12,13
 197 120 197 120 192 128 c 128,-1,14
 187 136 187 136 174 141 c 2,15,-1
 100 169 l 2,16,17
 66 182 66 182 51 202 c 128,-1,18
 36 222 36 222 36 258 c 0,19,20
 36 301 36 301 58.5 322.5 c 128,-1,21
 81 344 81 344 123 344 c 2,22,-1
 214 344 l 2,23,24
 225 344 225 344 230.5 336 c 128,-1,25
 236 328 236 328 236 320 c 2,26,-1
 236 313 l 2,27,28
 236 303 236 303 230 296.5 c 128,-1,29
 224 290 224 290 214 290 c 2,30,-1
 123 290 l 2,31,32
 102 290 102 290 96 282.5 c 128,-1,33
 90 275 90 275 90 267 c 2,34,-1
 90 250 l 2,35,36
 90 239 90 239 94.5 233.5 c 128,-1,37
 99 228 99 228 116 221 c 2,38,-1
 190 192 l 2,39,40
 225 178 225 178 237 153 c 128,-1,41
 249 128 249 128 249 88 c 0,42,43
 249 42 249 42 225.5 21 c 128,-1,44
 202 0 202 0 157 0 c 2,45,-1
 62 0 l 2,0,1
EndSplineSet
EndChar

StartChar: t
Encoding: 116 116 87
Width: 233
GlyphClass: 2
Flags: W
LayerCount: 2
Back
Fore
SplineSet
160 0 m 2,0,1
 118 0 118 0 91.5 27.5 c 128,-1,2
 65 55 65 55 65 101 c 2,3,-1
 65 295 l 1,4,-1
 42 295 l 2,5,6
 34 295 34 295 27 301 c 128,-1,7
 20 307 20 307 20 318 c 2,8,-1
 20 326 l 2,9,10
 20 336 20 336 26 343 c 128,-1,11
 32 350 32 350 42 350 c 2,12,-1
 65 350 l 1,13,-1
 65 384 l 2,14,15
 65 392 65 392 70.5 400.5 c 128,-1,16
 76 409 76 409 88 409 c 2,17,-1
 96 409 l 2,18,19
 109 409 109 409 113 399.5 c 128,-1,20
 117 390 117 390 117 384 c 2,21,-1
 117 350 l 1,22,-1
 175 350 l 2,23,24
 186 350 186 350 191.5 343 c 128,-1,25
 197 336 197 336 197 326 c 2,26,-1
 197 318 l 2,27,28
 197 307 197 307 190 301 c 128,-1,29
 183 295 183 295 175 295 c 2,30,-1
 117 295 l 1,31,-1
 117 101 l 2,32,33
 117 55 117 55 160 55 c 2,34,-1
 181 55 l 2,35,36
 191 55 191 55 197 48 c 128,-1,37
 203 41 203 41 203 31 c 2,38,-1
 203 23 l 2,39,40
 203 12 203 12 196 6 c 128,-1,41
 189 0 189 0 181 0 c 2,42,-1
 160 0 l 2,0,1
EndSplineSet
EndChar

StartChar: u
Encoding: 117 117 88
Width: 339
GlyphClass: 2
Flags: W
LayerCount: 2
Back
Fore
SplineSet
255 0 m 2,0,1
 241 0 241 0 235 11 c 1,2,3
 217 0 217 0 187 0 c 2,4,-1
 145 0 l 2,5,6
 102 0 102 0 76 27.5 c 128,-1,7
 50 55 50 55 50 101 c 2,8,-1
 50 320 l 2,9,10
 50 330 50 330 56 337 c 128,-1,11
 62 344 62 344 73 344 c 2,12,-1
 82 344 l 2,13,14
 93 344 93 344 98.5 336 c 128,-1,15
 104 328 104 328 104 320 c 2,16,-1
 104 102 l 2,17,18
 104 76 104 76 114 65 c 128,-1,19
 124 54 124 54 145 54 c 2,20,-1
 187 54 l 2,21,22
 232 54 232 54 232 98 c 2,23,-1
 232 320 l 2,24,25
 232 330 232 330 238 337 c 128,-1,26
 244 344 244 344 255 344 c 2,27,-1
 263 344 l 2,28,29
 274 344 274 344 279.5 336 c 128,-1,30
 285 328 285 328 285 320 c 2,31,-1
 285 24 l 2,32,33
 285 16 285 16 279.5 8 c 128,-1,34
 274 0 274 0 263 0 c 2,35,-1
 255 0 l 2,0,1
EndSplineSet
EndChar

StartChar: v
Encoding: 118 118 89
Width: 271
GlyphClass: 2
Flags: W
LayerCount: 2
Back
Fore
SplineSet
165 18 m 2,0,1
 163 11 163 11 157.5 5.5 c 128,-1,2
 152 0 152 0 142 0 c 2,3,-1
 129 0 l 2,4,5
 118 0 118 0 113 6.5 c 128,-1,6
 108 13 108 13 106 18 c 2,7,-1
 15 314 l 2,8,9
 12 323 12 323 16.5 333.5 c 128,-1,10
 21 344 21 344 36 344 c 2,11,-1
 45 344 l 2,12,13
 56 344 56 344 61 337.5 c 128,-1,14
 66 331 66 331 68 327 c 2,15,-1
 136 101 l 1,16,17
 144 130 144 130 156 169 c 128,-1,18
 168 208 168 208 179 243 c 2,19,-1
 204 326 l 2,20,21
 205 330 205 330 210 337 c 128,-1,22
 215 344 215 344 226 344 c 2,23,-1
 235 344 l 2,24,25
 250 344 250 344 254.5 333.5 c 128,-1,26
 259 323 259 323 256 314 c 2,27,-1
 165 18 l 2,0,1
EndSplineSet
EndChar

StartChar: w
Encoding: 119 119 90
Width: 458
GlyphClass: 2
Flags: W
LayerCount: 2
Back
Fore
SplineSet
351 19 m 2,0,1
 346 0 346 0 327 0 c 2,2,-1
 313 0 l 2,3,4
 294 0 294 0 288 19 c 2,5,-1
 229 226 l 1,6,-1
 169 17 l 2,7,8
 166 10 166 10 160 5 c 128,-1,9
 154 0 154 0 144 0 c 2,10,-1
 131 0 l 2,11,12
 112 0 112 0 107 19 c 2,13,-1
 15 315 l 2,14,15
 13 323 13 323 17.5 333.5 c 128,-1,16
 22 344 22 344 37 344 c 2,17,-1
 46 344 l 2,18,19
 65 344 65 344 70 325 c 2,20,-1
 137 107 l 1,21,-1
 200 325 l 2,22,23
 206 344 206 344 225 344 c 2,24,-1
 234 344 l 2,25,26
 245 344 245 344 250.5 338 c 128,-1,27
 256 332 256 332 258 325 c 2,28,-1
 320 107 l 1,29,-1
 387 327 l 2,30,31
 389 332 389 332 394.5 338 c 128,-1,32
 400 344 400 344 411 344 c 2,33,-1
 421 344 l 2,34,35
 436 344 436 344 440.5 333.5 c 128,-1,36
 445 323 445 323 443 315 c 2,37,-1
 351 19 l 2,0,1
EndSplineSet
EndChar

StartChar: x
Encoding: 120 120 91
Width: 270
GlyphClass: 2
Flags: W
LayerCount: 2
Back
Fore
SplineSet
218 0 m 2,0,1
 210 0 210 0 204.5 5 c 128,-1,2
 199 10 199 10 197 15 c 2,3,-1
 135 128 l 1,4,-1
 72 14 l 2,5,6
 69 10 69 10 63.5 5 c 128,-1,7
 58 0 58 0 49 0 c 2,8,-1
 38 0 l 2,9,10
 27 0 27 0 22.5 4 c 128,-1,11
 18 8 18 8 17 14 c 128,-1,12
 16 20 16 20 18 26 c 128,-1,13
 20 32 20 32 22 35 c 2,14,-1
 101 175 l 1,15,-1
 26 311 l 2,16,17
 24 314 24 314 23 319.5 c 128,-1,18
 22 325 22 325 23.5 330.5 c 128,-1,19
 25 336 25 336 29.5 340 c 128,-1,20
 34 344 34 344 44 344 c 2,21,-1
 55 344 l 2,22,23
 63 344 63 344 68.5 339.5 c 128,-1,24
 74 335 74 335 77 330 c 2,25,-1
 135 225 l 1,26,-1
 191 329 l 2,27,28
 193 334 193 334 198.5 339 c 128,-1,29
 204 344 204 344 214 344 c 2,30,-1
 225 344 l 2,31,32
 235 344 235 344 239.5 340 c 128,-1,33
 244 336 244 336 245 330.5 c 128,-1,34
 246 325 246 325 244.5 319.5 c 128,-1,35
 243 314 243 314 242 311 c 2,36,-1
 168 176 l 1,37,-1
 249 34 l 2,38,39
 250 31 250 31 251 25.5 c 128,-1,40
 252 20 252 20 251 14 c 128,-1,41
 250 8 250 8 245.5 4 c 128,-1,42
 241 0 241 0 231 0 c 2,43,-1
 218 0 l 2,0,1
EndSplineSet
EndChar

StartChar: y
Encoding: 121 121 92
Width: 308
GlyphClass: 2
Flags: W
LayerCount: 2
Back
Fore
SplineSet
187 26 m 2,0,1
 169 -29 169 -29 157 -48 c 0,2,3
 128 -99 128 -99 72 -99 c 2,4,-1
 56 -99 l 2,5,6
 48 -99 48 -99 39.5 -94 c 128,-1,7
 31 -89 31 -89 31 -75 c 2,8,-1
 31 -68 l 2,9,10
 31 -56 31 -56 38.5 -50 c 128,-1,11
 46 -44 46 -44 56 -44 c 2,12,-1
 72 -44 l 2,13,14
 96 -44 96 -44 108 -25.5 c 128,-1,15
 120 -7 120 -7 128 16 c 1,16,17
 116 48 116 48 103 84.5 c 128,-1,18
 90 121 90 121 76.5 159.5 c 128,-1,19
 63 198 63 198 49 237 c 128,-1,20
 35 276 35 276 22 314 c 0,21,22
 20 321 20 321 23.5 332.5 c 128,-1,23
 27 344 27 344 43 344 c 2,24,-1
 52 344 l 2,25,26
 63 344 63 344 68 337 c 128,-1,27
 73 330 73 330 75 326 c 2,28,-1
 154 96 l 1,29,-1
 203 240 l 1,30,-1
 232 326 l 2,31,32
 235 333 235 333 241 338.5 c 128,-1,33
 247 344 247 344 256 344 c 2,34,-1
 265 344 l 2,35,36
 281 344 281 344 284 332.5 c 128,-1,37
 287 321 287 321 286 314 c 2,38,-1
 187 26 l 2,0,1
EndSplineSet
EndChar

StartChar: z
Encoding: 122 122 93
Width: 265
GlyphClass: 2
Flags: W
LayerCount: 2
Back
Fore
SplineSet
47 0 m 2,0,1
 40 0 40 0 31.5 5 c 128,-1,2
 23 10 23 10 23 23 c 2,3,-1
 23 29 l 2,4,5
 23 34 23 34 24.5 37.5 c 128,-1,6
 26 41 26 41 27 43 c 2,7,-1
 168 290 l 1,8,-1
 49 290 l 2,9,10
 39 290 39 290 33 296.5 c 128,-1,11
 27 303 27 303 27 313 c 2,12,-1
 27 320 l 2,13,14
 27 328 27 328 32.5 336 c 128,-1,15
 38 344 38 344 49 344 c 2,16,-1
 215 344 l 2,17,18
 224 344 224 344 231 338 c 128,-1,19
 238 332 238 332 238 320 c 2,20,-1
 238 313 l 2,21,22
 238 308 238 308 236.5 304.5 c 128,-1,23
 235 301 235 301 234 299 c 2,24,-1
 94 54 l 1,25,-1
 219 54 l 2,26,27
 230 54 230 54 235.5 46 c 128,-1,28
 241 38 241 38 241 30 c 2,29,-1
 241 23 l 2,30,31
 241 14 241 14 235 7 c 128,-1,32
 229 0 229 0 219 0 c 2,33,-1
 47 0 l 2,0,1
EndSplineSet
EndChar

StartChar: braceleft
Encoding: 123 123 94
Width: 198
GlyphClass: 2
Flags: W
LayerCount: 2
Back
Fore
SplineSet
134 -69 m 2,0,1
 96 -69 96 -69 80.5 -38.5 c 128,-1,2
 65 -8 65 -8 65 34 c 2,3,-1
 65 122 l 2,4,5
 65 146 65 146 60.5 150.5 c 128,-1,6
 56 155 56 155 48 155 c 256,7,8
 40 155 40 155 33.5 161 c 128,-1,9
 27 167 27 167 27 178 c 2,10,-1
 27 186 l 2,11,12
 27 195 27 195 32 202.5 c 128,-1,13
 37 210 37 210 48 210 c 0,14,15
 56 210 56 210 60.5 214.5 c 128,-1,16
 65 219 65 219 65 242 c 2,17,-1
 65 330 l 2,18,19
 65 351 65 351 68.5 369.5 c 128,-1,20
 72 388 72 388 80.5 402.5 c 128,-1,21
 89 417 89 417 102 425.5 c 128,-1,22
 115 434 115 434 134 434 c 2,23,-1
 136 434 l 2,24,25
 147 434 147 434 152 426.5 c 128,-1,26
 157 419 157 419 157 409 c 2,27,-1
 157 402 l 2,28,29
 157 391 157 391 150.5 384.5 c 128,-1,30
 144 378 144 378 136 378 c 2,31,-1
 134 378 l 2,32,33
 125 378 125 378 119 370.5 c 128,-1,34
 113 363 113 363 113 329 c 2,35,-1
 113 242 l 2,36,37
 113 225 113 225 110 209 c 128,-1,38
 107 193 107 193 99 182 c 1,39,40
 107 171 107 171 110 155.5 c 128,-1,41
 113 140 113 140 113 123 c 2,42,-1
 113 35 l 2,43,44
 113 2 113 2 119 -5.5 c 128,-1,45
 125 -13 125 -13 134 -13 c 2,46,-1
 136 -13 l 2,47,48
 147 -13 147 -13 152 -20.5 c 128,-1,49
 157 -28 157 -28 157 -38 c 2,50,-1
 157 -45 l 2,51,52
 157 -56 157 -56 150.5 -62.5 c 128,-1,53
 144 -69 144 -69 136 -69 c 2,54,-1
 134 -69 l 2,0,1
EndSplineSet
EndChar

StartChar: bar
Encoding: 124 124 95
Width: 135
GlyphClass: 2
Flags: W
LayerCount: 2
Back
Fore
SplineSet
64 0 m 2,0,1
 52 0 52 0 47 8.5 c 128,-1,2
 42 17 42 17 42 25 c 2,3,-1
 42 409 l 2,4,5
 42 417 42 417 47 425.5 c 128,-1,6
 52 434 52 434 64 434 c 2,7,-1
 72 434 l 2,8,9
 95 434 95 434 95 409 c 2,10,-1
 95 25 l 2,11,12
 95 0 95 0 72 0 c 2,13,-1
 64 0 l 2,0,1
EndSplineSet
EndChar

StartChar: braceright
Encoding: 125 125 96
Width: 198
GlyphClass: 2
Flags: W
LayerCount: 2
Back
Fore
SplineSet
136 155 m 256,0,1
 128 155 128 155 123.5 150.5 c 128,-1,2
 119 146 119 146 119 122 c 2,3,-1
 119 34 l 2,4,5
 119 -8 119 -8 103.5 -38.5 c 128,-1,6
 88 -69 88 -69 50 -69 c 2,7,-1
 48 -69 l 2,8,9
 40 -69 40 -69 33.5 -62.5 c 128,-1,10
 27 -56 27 -56 27 -45 c 2,11,-1
 27 -38 l 2,12,13
 27 -28 27 -28 32 -20.5 c 128,-1,14
 37 -13 37 -13 48 -13 c 2,15,-1
 50 -13 l 2,16,17
 59 -13 59 -13 64.5 -5.5 c 128,-1,18
 70 2 70 2 70 35 c 2,19,-1
 70 123 l 2,20,21
 70 140 70 140 73.5 155.5 c 128,-1,22
 77 171 77 171 85 182 c 1,23,24
 77 193 77 193 73.5 209 c 128,-1,25
 70 225 70 225 70 242 c 2,26,-1
 70 329 l 2,27,28
 70 363 70 363 64 370.5 c 128,-1,29
 58 378 58 378 50 378 c 2,30,-1
 48 378 l 2,31,32
 40 378 40 378 33.5 384.5 c 128,-1,33
 27 391 27 391 27 402 c 2,34,-1
 27 409 l 2,35,36
 27 419 27 419 32 426.5 c 128,-1,37
 37 434 37 434 48 434 c 2,38,-1
 50 434 l 2,39,40
 69 434 69 434 82 425.5 c 128,-1,41
 95 417 95 417 103 402.5 c 128,-1,42
 111 388 111 388 115 369.5 c 128,-1,43
 119 351 119 351 119 330 c 2,44,-1
 119 242 l 2,45,46
 119 219 119 219 123.5 214.5 c 128,-1,47
 128 210 128 210 136 210 c 0,48,49
 147 210 147 210 152 202.5 c 128,-1,50
 157 195 157 195 157 186 c 2,51,-1
 157 178 l 2,52,53
 157 167 157 167 150.5 161 c 128,-1,54
 144 155 144 155 136 155 c 256,0,1
EndSplineSet
EndChar

StartChar: asciitilde
Encoding: 126 126 97
Width: 346
GlyphClass: 2
Flags: W
LayerCount: 2
Back
Fore
SplineSet
230 190 m 0,0,1
 219 190 219 190 203.5 191 c 128,-1,2
 188 192 188 192 168 194 c 0,3,4
 150 196 150 196 138.5 197 c 128,-1,5
 127 198 127 198 120 198 c 0,6,7
 112 198 112 198 72 192 c 0,8,9
 64 192 64 192 55.5 195.5 c 128,-1,10
 47 199 47 199 47 207 c 2,11,-1
 47 218 l 2,12,13
 47 222 47 222 68 230 c 128,-1,14
 89 238 89 238 116 238 c 0,15,16
 127 238 127 238 142.5 237 c 128,-1,17
 158 236 158 236 178 234 c 0,18,19
 195 232 195 232 207 231 c 128,-1,20
 219 230 219 230 226 230 c 0,21,22
 234 230 234 230 273 236 c 0,23,24
 281 236 281 236 289.5 233 c 128,-1,25
 298 230 298 230 298 221 c 2,26,-1
 298 210 l 2,27,28
 298 205 298 205 277.5 197.5 c 128,-1,29
 257 190 257 190 230 190 c 0,0,1
EndSplineSet
EndChar

StartChar: cent
Encoding: 162 162 98
Width: 276
GlyphClass: 2
Flags: W
LayerCount: 2
Back
Fore
SplineSet
197 -5 m 1,0,-1
 197 -35 l 2,1,2
 197 -43 197 -43 191.5 -51.5 c 128,-1,3
 186 -60 186 -60 175 -60 c 2,4,-1
 167 -60 l 2,5,6
 156 -60 156 -60 150.5 -51.5 c 128,-1,7
 145 -43 145 -43 145 -35 c 2,8,-1
 145 -5 l 1,9,-1
 140 -5 l 2,10,11
 97 -5 97 -5 72 23 c 128,-1,12
 47 51 47 51 47 99 c 2,13,-1
 47 246 l 2,14,15
 47 294 47 294 72 322 c 128,-1,16
 97 350 97 350 140 350 c 2,17,-1
 145 350 l 1,18,-1
 145 390 l 2,19,20
 145 400 145 400 151 407 c 128,-1,21
 157 414 157 414 167 414 c 2,22,-1
 175 414 l 2,23,24
 185 414 185 414 191 407 c 128,-1,25
 197 400 197 400 197 390 c 2,26,-1
 197 350 l 1,27,-1
 230 350 l 2,28,29
 241 350 241 350 247 342.5 c 128,-1,30
 253 335 253 335 253 325 c 2,31,-1
 253 318 l 2,32,33
 253 306 253 306 245.5 300 c 128,-1,34
 238 294 238 294 230 294 c 2,35,-1
 140 294 l 2,36,37
 99 294 99 294 99 246 c 2,38,-1
 99 100 l 2,39,40
 99 74 99 74 109.5 62.5 c 128,-1,41
 120 51 120 51 140 51 c 2,42,-1
 230 51 l 2,43,44
 241 51 241 51 247 43.5 c 128,-1,45
 253 36 253 36 253 26 c 2,46,-1
 253 19 l 2,47,48
 253 8 253 8 245.5 1.5 c 128,-1,49
 238 -5 238 -5 230 -5 c 2,50,-1
 197 -5 l 1,0,-1
EndSplineSet
EndChar

StartChar: copyright
Encoding: 169 169 99
Width: 491
GlyphClass: 2
Flags: W
LayerCount: 2
Back
Fore
SplineSet
151 0 m 2,0,1
 106 0 106 0 78 27.5 c 128,-1,2
 50 55 50 55 50 103 c 2,3,-1
 50 331 l 2,4,5
 50 377 50 377 78 405.5 c 128,-1,6
 106 434 106 434 151 434 c 2,7,-1
 340 434 l 2,8,9
 385 434 385 434 413 405.5 c 128,-1,10
 441 377 441 377 441 331 c 2,11,-1
 441 103 l 2,12,13
 441 55 441 55 413 27.5 c 128,-1,14
 385 0 385 0 340 0 c 2,15,-1
 151 0 l 2,0,1
384 330 m 2,16,17
 384 379 384 379 340 379 c 2,18,-1
 151 379 l 2,19,20
 107 379 107 379 107 330 c 2,21,-1
 107 104 l 2,22,23
 107 55 107 55 151 55 c 2,24,-1
 340 55 l 2,25,26
 384 55 384 55 384 104 c 2,27,-1
 384 330 l 2,16,17
237 72 m 2,28,29
 191 72 191 72 166.5 94.5 c 128,-1,30
 142 117 142 117 142 162 c 2,31,-1
 142 266 l 2,32,33
 142 314 142 314 167 335 c 128,-1,34
 192 356 192 356 237 356 c 2,35,-1
 250 356 l 2,36,37
 295 356 295 356 319.5 335 c 128,-1,38
 344 314 344 314 344 266 c 2,39,-1
 344 255 l 2,40,41
 344 231 344 231 320 231 c 2,42,-1
 312 231 l 2,43,44
 300 231 300 231 294.5 239 c 128,-1,45
 289 247 289 247 289 255 c 2,46,-1
 289 266 l 2,47,48
 289 288 289 288 281.5 294.5 c 128,-1,49
 274 301 274 301 250 301 c 2,50,-1
 237 301 l 2,51,52
 213 301 213 301 206 294.5 c 128,-1,53
 199 288 199 288 199 266 c 2,54,-1
 199 163 l 2,55,56
 199 141 199 141 206 134 c 128,-1,57
 213 127 213 127 237 127 c 2,58,-1
 250 127 l 2,59,60
 274 127 274 127 281.5 134 c 128,-1,61
 289 141 289 141 289 163 c 2,62,-1
 289 178 l 2,63,64
 289 186 289 186 294.5 194 c 128,-1,65
 300 202 300 202 312 202 c 2,66,-1
 320 202 l 2,67,68
 344 202 344 202 344 178 c 2,69,-1
 344 162 l 2,70,71
 344 117 344 117 319.5 94.5 c 128,-1,72
 295 72 295 72 250 72 c 2,73,-1
 237 72 l 2,28,29
EndSplineSet
EndChar

StartChar: registered
Encoding: 174 174 100
Width: 430
GlyphClass: 2
Flags: W
LayerCount: 2
Back
Fore
SplineSet
180 409 m 2,0,1
 129 409 129 409 99.5 439.5 c 128,-1,2
 70 470 70 470 70 521 c 2,3,-1
 70 591 l 2,4,5
 70 642 70 642 99.5 672.5 c 128,-1,6
 129 703 129 703 180 703 c 2,7,-1
 249 703 l 2,8,9
 300 703 300 703 330 672.5 c 128,-1,10
 360 642 360 642 360 591 c 2,11,-1
 360 521 l 2,12,13
 360 470 360 470 330 439.5 c 128,-1,14
 300 409 300 409 249 409 c 2,15,-1
 180 409 l 2,0,1
302 590 m 2,16,17
 302 647 302 647 249 647 c 2,18,-1
 180 647 l 2,19,20
 127 647 127 647 127 590 c 2,21,-1
 127 522 l 2,22,23
 127 465 127 465 180 465 c 2,24,-1
 249 465 l 2,25,26
 302 465 302 465 302 522 c 2,27,-1
 302 590 l 2,16,17
253 472 m 2,28,29
 247 472 247 472 240 475.5 c 128,-1,30
 233 479 233 479 231 488 c 2,31,-1
 215 523 l 1,32,-1
 210 523 l 1,33,-1
 210 496 l 2,34,35
 210 487 210 487 204 479.5 c 128,-1,36
 198 472 198 472 187 472 c 2,37,-1
 182 472 l 2,38,39
 171 472 171 472 165 479.5 c 128,-1,40
 159 487 159 487 159 496 c 2,41,-1
 159 617 l 2,42,43
 159 626 159 626 165 633.5 c 128,-1,44
 171 641 171 641 182 641 c 2,45,-1
 229 641 l 2,46,47
 252 641 252 641 265 627 c 128,-1,48
 278 613 278 613 278 591 c 2,49,-1
 278 573 l 2,50,51
 278 548 278 548 263 535 c 1,52,-1
 278 503 l 2,53,54
 281 496 281 496 280 484 c 128,-1,55
 279 472 279 472 261 472 c 2,56,-1
 253 472 l 2,28,29
228 572 m 1,57,-1
 228 592 l 1,58,-1
 210 592 l 1,59,-1
 210 572 l 1,60,-1
 228 572 l 1,57,-1
EndSplineSet
EndChar

StartChar: onequarter
Encoding: 188 188 101
Width: 721
GlyphClass: 2
Flags: W
LayerCount: 2
Back
Fore
SplineSet
616 122 m 1,0,-1
 616 253 l 1,1,-1
 519 122 l 1,2,-1
 616 122 l 1,0,-1
616 -11 m 1,3,-1
 616 72 l 1,4,-1
 451 72 l 1,5,-1
 451 115 l 1,6,-1
 619 339 l 1,7,-1
 674 339 l 1,8,-1
 674 122 l 1,9,-1
 724 122 l 1,10,-1
 724 72 l 1,11,-1
 674 72 l 1,12,-1
 674 -11 l 1,13,-1
 616 -11 l 1,3,-1
134 -29 m 1,14,-1
 536 614 l 1,15,-1
 607 614 l 1,16,-1
 206 -29 l 1,17,-1
 134 -29 l 1,14,-1
144 246 m 1,18,-1
 144 510 l 1,19,20
 158 510 158 510 155.5 508.5 c 128,-1,21
 153 507 153 507 136 503 c 0,22,23
 101 497 101 497 66 497 c 2,24,-1
 50 497 l 1,25,-1
 50 540 l 1,26,-1
 63 540 l 2,27,28
 106 540 106 540 125.5 553.5 c 128,-1,29
 145 567 145 567 149 606 c 1,30,-1
 203 606 l 1,31,-1
 203 246 l 1,32,-1
 144 246 l 1,18,-1
EndSplineSet
EndChar

StartChar: onehalf
Encoding: 189 189 102
Width: 721
GlyphClass: 2
Flags: W
LayerCount: 2
Back
Fore
SplineSet
450 -11 m 1,0,-1
 450 10 l 2,1,2
 450 52 450 52 473.5 82.5 c 128,-1,3
 497 113 497 113 549 141 c 0,4,5
 555 145 555 145 564 149.5 c 128,-1,6
 573 154 573 154 584 160 c 0,7,8
 607 171 607 171 621 180 c 128,-1,9
 635 189 635 189 642 194 c 0,10,11
 651 205 651 205 656 215 c 128,-1,12
 661 225 661 225 661 239 c 0,13,14
 661 267 661 267 643.5 283 c 128,-1,15
 626 299 626 299 593 299 c 0,16,17
 556 299 556 299 537 280 c 128,-1,18
 518 261 518 261 517 215 c 1,19,-1
 459 215 l 1,20,21
 461 285 461 285 496 316.5 c 128,-1,22
 531 348 531 348 594 348 c 0,23,24
 651 348 651 348 685.5 319 c 128,-1,25
 720 290 720 290 720 239 c 0,26,27
 720 193 720 193 686 163 c 0,28,29
 669 145 669 145 613 116 c 2,30,-1
 584 101 l 2,31,32
 542 80 542 80 526.5 62.5 c 128,-1,33
 511 45 511 45 510 38 c 1,34,-1
 719 38 l 1,35,-1
 719 -11 l 1,36,-1
 450 -11 l 1,0,-1
134 -29 m 1,37,-1
 536 614 l 1,38,-1
 607 614 l 1,39,-1
 206 -29 l 1,40,-1
 134 -29 l 1,37,-1
144 246 m 1,41,-1
 144 510 l 1,42,43
 158 510 158 510 155.5 508.5 c 128,-1,44
 153 507 153 507 136 503 c 0,45,46
 101 497 101 497 66 497 c 2,47,-1
 50 497 l 1,48,-1
 50 540 l 1,49,-1
 63 540 l 2,50,51
 106 540 106 540 125.5 553.5 c 128,-1,52
 145 567 145 567 149 606 c 1,53,-1
 203 606 l 1,54,-1
 203 246 l 1,55,-1
 144 246 l 1,41,-1
EndSplineSet
EndChar

StartChar: threequarters
Encoding: 190 190 103
Width: 720
GlyphClass: 2
Flags: W
LayerCount: 2
Back
Fore
SplineSet
616 122 m 1,0,-1
 616 253 l 1,1,-1
 519 122 l 1,2,-1
 616 122 l 1,0,-1
616 -11 m 1,3,-1
 616 72 l 1,4,-1
 451 72 l 1,5,-1
 451 115 l 1,6,-1
 618 339 l 1,7,-1
 673 339 l 1,8,-1
 673 122 l 1,9,-1
 724 122 l 1,10,-1
 724 72 l 1,11,-1
 673 72 l 1,12,-1
 673 -11 l 1,13,-1
 616 -11 l 1,3,-1
134 -29 m 1,14,-1
 536 614 l 1,15,-1
 608 614 l 1,16,-1
 205 -29 l 1,17,-1
 134 -29 l 1,14,-1
18 366 m 1,18,-1
 78 366 l 1,19,20
 79 321 79 321 97.5 303.5 c 128,-1,21
 116 286 116 286 151 286 c 0,22,23
 227 286 227 286 227 349 c 0,24,25
 227 379 227 379 207 393.5 c 128,-1,26
 187 408 187 408 142 408 c 0,27,28
 136 408 136 408 132.5 408 c 128,-1,29
 129 408 129 408 115 406 c 1,30,-1
 115 455 l 1,31,-1
 140 455 l 2,32,33
 216 455 216 455 216 508 c 0,34,35
 216 530 216 530 200 543.5 c 128,-1,36
 184 557 184 557 155 557 c 0,37,38
 123 557 123 557 105.5 541.5 c 128,-1,39
 88 526 88 526 87 484 c 1,40,-1
 29 484 l 1,41,42
 33 547 33 547 65.5 576.5 c 128,-1,43
 98 606 98 606 155 606 c 0,44,45
 210 606 210 606 242 579.5 c 128,-1,46
 274 553 274 553 274 508 c 0,47,48
 274 477 274 477 258 457 c 0,49,50
 243 437 243 437 244 437 c 0,51,52
 247 437 247 437 267 411 c 256,53,54
 287 385 287 385 287 349 c 0,55,56
 287 297 287 297 251 267 c 128,-1,57
 215 237 215 237 152 237 c 256,58,59
 89 237 89 237 53.5 268 c 128,-1,60
 18 299 18 299 18 354 c 2,61,-1
 18 366 l 1,18,-1
EndSplineSet
EndChar

StartChar: multiply
Encoding: 215 215 104
Width: 545
GlyphClass: 2
Flags: W
LayerCount: 2
Back
Fore
SplineSet
117 -2 m 1,0,-1
 70 45 l 1,1,-1
 225 201 l 1,2,-1
 70 356 l 1,3,-1
 121 407 l 1,4,-1
 276 252 l 1,5,-1
 431 407 l 1,6,-1
 481 356 l 1,7,-1
 326 201 l 1,8,-1
 481 45 l 1,9,-1
 432 -5 l 1,10,-1
 276 151 l 1,11,-1
 117 -7 l 1,12,-1
 117 -2 l 1,0,-1
EndSplineSet
EndChar

StartChar: divide
Encoding: 247 247 105
Width: 329
GlyphClass: 2
Flags: W
LayerCount: 2
Back
Fore
SplineSet
123 262 m 1,0,-1
 123 302 l 1,1,-1
 167 302 l 1,2,-1
 167 262 l 1,3,-1
 123 262 l 1,0,-1
-1 155 m 1,4,-1
 -1 199 l 1,5,-1
 282 199 l 1,6,-1
 282 155 l 1,7,-1
 -1 155 l 1,4,-1
125 38 m 1,8,-1
 125 79 l 1,9,-1
 170 79 l 1,10,-1
 170 38 l 1,11,-1
 125 38 l 1,8,-1
EndSplineSet
EndChar

StartChar: uni0950
Encoding: 2384 2384 106
Width: 568
GlyphClass: 2
Flags: W
LayerCount: 2
Back
Fore
SplineSet
380 402 m 2,0,1
 369 402 369 402 364.5 408.5 c 128,-1,2
 360 415 360 415 360 422 c 2,3,-1
 360 439 l 2,4,5
 360 446 360 446 364 453.5 c 128,-1,6
 368 461 368 461 380 461 c 2,7,-1
 392 461 l 2,8,9
 403 461 403 461 408 454 c 128,-1,10
 413 447 413 447 413 439 c 2,11,-1
 413 422 l 2,12,13
 413 413 413 413 407 407.5 c 128,-1,14
 401 402 401 402 392 402 c 2,15,-1
 380 402 l 2,0,1
366 328 m 2,16,17
 275 328 275 328 275 420 c 2,18,-1
 275 424 l 2,19,20
 275 435 275 435 281.5 439.5 c 128,-1,21
 288 444 288 444 296 444 c 2,22,-1
 305 444 l 2,23,24
 313 444 313 444 319 438.5 c 128,-1,25
 325 433 325 433 325 424 c 2,26,-1
 325 420 l 2,27,28
 325 394 325 394 332.5 385.5 c 128,-1,29
 340 377 340 377 366 377 c 2,30,-1
 405 377 l 2,31,32
 431 377 431 377 438.5 385.5 c 128,-1,33
 446 394 446 394 446 420 c 2,34,-1
 446 424 l 2,35,36
 446 435 446 435 453 439.5 c 128,-1,37
 460 444 460 444 467 444 c 2,38,-1
 476 444 l 2,39,40
 484 444 484 444 490 438.5 c 128,-1,41
 496 433 496 433 496 424 c 2,42,-1
 496 420 l 2,43,44
 496 328 496 328 405 328 c 2,45,-1
 366 328 l 2,16,17
405 27 m 2,46,47
 360 27 360 27 335.5 50 c 128,-1,48
 311 73 311 73 311 118 c 2,49,-1
 311 166 l 1,50,-1
 259 166 l 1,51,-1
 259 158 l 1,52,-1
 259 128 l 2,53,54
 259 82 259 82 232 54.5 c 128,-1,55
 205 27 205 27 160 27 c 2,56,-1
 137 27 l 2,57,58
 92 27 92 27 64.5 53.5 c 128,-1,59
 37 80 37 80 37 128 c 2,60,-1
 37 153 l 2,61,62
 37 161 37 161 42 167.5 c 128,-1,63
 47 174 47 174 57 174 c 2,64,-1
 66 174 l 2,65,66
 76 174 76 174 81.5 168 c 128,-1,67
 87 162 87 162 87 153 c 2,68,-1
 87 129 l 2,69,70
 87 75 87 75 137 75 c 2,71,-1
 160 75 l 2,72,73
 210 75 210 75 210 129 c 2,74,-1
 210 158 l 2,75,76
 210 208 210 208 160 208 c 2,77,-1
 117 208 l 2,78,79
 106 208 106 208 101.5 214.5 c 128,-1,80
 97 221 97 221 97 229 c 2,81,-1
 97 237 l 2,82,83
 97 245 97 245 103 251 c 128,-1,84
 109 257 109 257 117 257 c 2,85,-1
 160 257 l 2,86,87
 210 257 210 257 210 308 c 2,88,-1
 210 324 l 2,89,90
 210 375 210 375 160 375 c 2,91,-1
 100 375 l 2,92,93
 91 375 91 375 85 380.5 c 128,-1,94
 79 386 79 386 79 396 c 2,95,-1
 79 403 l 2,96,97
 79 413 79 413 85.5 418 c 128,-1,98
 92 423 92 423 100 423 c 2,99,-1
 160 423 l 2,100,101
 205 423 205 423 232 397.5 c 128,-1,102
 259 372 259 372 259 324 c 2,103,-1
 259 307 l 2,104,105
 259 257 259 257 228 233 c 1,106,107
 237 226 237 226 245 214 c 1,108,-1
 321 214 l 2,109,110
 339 214 339 214 349.5 203.5 c 128,-1,111
 360 193 360 193 360 174 c 2,112,-1
 360 119 l 2,113,114
 360 93 360 93 369 84 c 128,-1,115
 378 75 378 75 405 75 c 2,116,-1
 414 75 l 2,117,118
 440 75 440 75 449 84 c 128,-1,119
 458 93 458 93 458 119 c 2,120,-1
 458 217 l 2,121,122
 458 244 458 244 447.5 255 c 128,-1,123
 437 266 437 266 415 266 c 2,124,-1
 341 266 l 2,125,126
 332 266 332 266 326 272 c 128,-1,127
 320 278 320 278 320 287 c 2,128,-1
 320 294 l 2,129,130
 320 305 320 305 326.5 309.5 c 128,-1,131
 333 314 333 314 341 314 c 2,132,-1
 414 314 l 2,133,134
 457 314 457 314 482.5 289.5 c 128,-1,135
 508 265 508 265 508 217 c 2,136,-1
 508 118 l 2,137,138
 508 73 508 73 483.5 50 c 128,-1,139
 459 27 459 27 414 27 c 2,140,-1
 405 27 l 2,46,47
EndSplineSet
EndChar

StartChar: uni0951
Encoding: 2385 2385 107
Width: 0
GlyphClass: 2
Flags: W
LayerCount: 2
Back
Fore
SplineSet
-174 867 m 1,0,-1
 -235 867 l 1,1,-1
 -235 1270 l 1,2,-1
 -174 1270 l 1,3,-1
 -174 867 l 1,0,-1
EndSplineSet
EndChar

StartChar: uni0952
Encoding: 2386 2386 108
Width: 0
GlyphClass: 2
Flags: W
LayerCount: 2
Back
Fore
SplineSet
-47 -392 m 1,0,-1
 -606 -392 l 1,1,-1
 -607 -346 l 1,2,-1
 -48 -346 l 1,3,-1
 -47 -392 l 1,0,-1
EndSplineSet
EndChar

StartChar: uni0964
Encoding: 2404 2404 109
Width: 104
GlyphClass: 2
Flags: W
LayerCount: 2
Back
Fore
SplineSet
0 0 m 1,0,-1
 0 261 l 1,1,-1
 51 261 l 1,2,-1
 51 0 l 1,3,-1
 0 0 l 1,0,-1
EndSplineSet
EndChar

StartChar: uni0965
Encoding: 2405 2405 110
Width: 257
GlyphClass: 2
Flags: W
LayerCount: 2
Back
Fore
SplineSet
30 0 m 1,0,-1
 30 301 l 1,1,-1
 81 301 l 1,2,-1
 81 0 l 1,3,-1
 30 0 l 1,0,-1
140 0 m 1,4,-1
 140 301 l 1,5,-1
 191 301 l 1,6,-1
 191 0 l 1,7,-1
 140 0 l 1,4,-1
EndSplineSet
EndChar

StartChar: uni0C01
Encoding: 3073 3073 111
Width: 209
GlyphClass: 2
Flags: W
LayerCount: 2
Back
Fore
SplineSet
61 0 m 2,0,1
 38 0 38 0 19 18.5 c 128,-1,2
 0 37 0 37 0 66 c 2,3,-1
 0 263 l 2,4,5
 0 291 0 291 19 309.5 c 128,-1,6
 38 328 38 328 61 328 c 2,7,-1
 162 328 l 1,8,-1
 162 280 l 1,9,-1
 64 280 l 2,10,11
 47 280 47 280 47 263 c 2,12,-1
 47 66 l 2,13,14
 47 48 47 48 64 48 c 2,15,-1
 162 48 l 1,16,-1
 162 0 l 1,17,-1
 61 0 l 2,0,1
EndSplineSet
EndChar

StartChar: uni0C02
Encoding: 3074 3074 112
Width: 314
GlyphClass: 2
Flags: W
LayerCount: 2
Back
Fore
SplineSet
62 0 m 2,0,1
 39 0 39 0 19.5 18.5 c 128,-1,2
 0 37 0 37 0 66 c 2,3,-1
 0 263 l 2,4,5
 0 291 0 291 19.5 309.5 c 128,-1,6
 39 328 39 328 62 328 c 2,7,-1
 197 328 l 2,8,9
 220 328 220 328 239.5 309.5 c 128,-1,10
 259 291 259 291 259 263 c 2,11,-1
 259 66 l 2,12,13
 259 46 259 46 251.5 33.5 c 128,-1,14
 244 21 244 21 234.5 13.5 c 128,-1,15
 225 6 225 6 215 3 c 128,-1,16
 205 0 205 0 199 0 c 2,17,-1
 62 0 l 2,0,1
211 263 m 2,18,19
 211 272 211 272 206 276 c 128,-1,20
 201 280 201 280 195 280 c 2,21,-1
 65 280 l 2,22,23
 48 280 48 280 48 263 c 2,24,-1
 48 66 l 2,25,26
 48 48 48 48 65 48 c 2,27,-1
 195 48 l 2,28,29
 201 48 201 48 206 52.5 c 128,-1,30
 211 57 211 57 211 66 c 2,31,-1
 211 263 l 2,18,19
EndSplineSet
EndChar

StartChar: uni0C03
Encoding: 3075 3075 113
Width: 216
GlyphClass: 2
Flags: W
LayerCount: 2
Back
Fore
SplineSet
61 180 m 2,0,1
 38 180 38 180 19 198.5 c 128,-1,2
 0 217 0 217 0 245 c 2,3,-1
 0 263 l 2,4,5
 0 291 0 291 19 309.5 c 128,-1,6
 38 328 38 328 61 328 c 2,7,-1
 100 328 l 2,8,9
 124 328 124 328 143 309.5 c 128,-1,10
 162 291 162 291 162 263 c 2,11,-1
 162 245 l 2,12,13
 162 217 162 217 143 198.5 c 128,-1,14
 124 180 124 180 100 180 c 2,15,-1
 61 180 l 2,0,1
61 0 m 2,16,17
 38 0 38 0 19 18.5 c 128,-1,18
 0 37 0 37 0 66 c 2,19,-1
 0 82 l 2,20,21
 0 110 0 110 19 128.5 c 128,-1,22
 38 147 38 147 61 147 c 2,23,-1
 100 147 l 2,24,25
 124 147 124 147 143 128.5 c 128,-1,26
 162 110 162 110 162 82 c 2,27,-1
 162 66 l 2,28,29
 162 37 162 37 143 18.5 c 128,-1,30
 124 0 124 0 100 0 c 2,31,-1
 61 0 l 2,16,17
115 263 m 2,32,33
 115 280 115 280 98 280 c 2,34,-1
 64 280 l 2,35,36
 47 280 47 280 47 263 c 2,37,-1
 47 245 l 2,38,39
 47 228 47 228 64 228 c 2,40,-1
 98 228 l 2,41,42
 115 228 115 228 115 245 c 2,43,-1
 115 263 l 2,32,33
115 82 m 2,44,45
 115 100 115 100 98 100 c 2,46,-1
 64 100 l 2,47,48
 47 100 47 100 47 82 c 2,49,-1
 47 66 l 2,50,51
 47 48 47 48 64 48 c 2,52,-1
 98 48 l 2,53,54
 115 48 115 48 115 66 c 2,55,-1
 115 82 l 2,44,45
EndSplineSet
EndChar

StartChar: uni0C05
Encoding: 3077 3077 114
Width: 379
GlyphClass: 2
Flags: W
LayerCount: 2
Back
Fore
SplineSet
158 148 m 2,0,1
 174 148 174 148 178 155.5 c 128,-1,2
 182 163 182 163 182 173 c 2,3,-1
 182 262 l 2,4,5
 182 291 182 291 202 309.5 c 128,-1,6
 222 328 222 328 245 328 c 2,7,-1
 276 328 l 2,8,9
 300 328 300 328 319.5 309.5 c 128,-1,10
 339 291 339 291 339 262 c 2,11,-1
 339 66 l 2,12,13
 339 37 339 37 319.5 18.5 c 128,-1,14
 300 0 300 0 276 0 c 2,15,-1
 63 0 l 2,16,17
 39 0 39 0 19.5 18.5 c 128,-1,18
 0 37 0 37 0 66 c 2,19,-1
 0 262 l 2,20,21
 0 291 0 291 19.5 309.5 c 128,-1,22
 39 328 39 328 63 328 c 2,23,-1
 94 328 l 2,24,25
 117 328 117 328 137 309.5 c 128,-1,26
 157 291 157 291 157 262 c 2,27,-1
 157 232 l 2,28,29
 157 203 157 203 137 184.5 c 128,-1,30
 117 166 117 166 94 166 c 2,31,-1
 48 166 l 1,32,-1
 48 66 l 2,33,34
 48 57 48 57 53 52.5 c 128,-1,35
 58 48 58 48 65 48 c 2,36,-1
 274 48 l 2,37,38
 281 48 281 48 286 52.5 c 128,-1,39
 291 57 291 57 291 66 c 2,40,-1
 291 263 l 2,41,42
 291 280 291 280 274 280 c 2,43,-1
 247 280 l 2,44,45
 240 280 240 280 235 276 c 128,-1,46
 230 272 230 272 230 263 c 2,47,-1
 230 156 l 2,48,49
 230 148 230 148 227.5 138.5 c 128,-1,50
 225 129 225 129 220 120.5 c 128,-1,51
 215 112 215 112 206 106 c 128,-1,52
 197 100 197 100 184 100 c 2,53,-1
 70 100 l 1,54,-1
 70 148 l 1,55,-1
 158 148 l 2,0,1
108 263 m 2,56,57
 108 280 108 280 92 280 c 2,58,-1
 65 280 l 2,59,60
 48 280 48 280 48 263 c 2,61,-1
 48 214 l 1,62,-1
 92 214 l 2,63,64
 108 214 108 214 108 231 c 2,65,-1
 108 263 l 2,56,57
EndSplineSet
EndChar

StartChar: uni0C06
Encoding: 3078 3078 115
Width: 370
GlyphClass: 2
Flags: W
LayerCount: 2
Back
Fore
SplineSet
63 0 m 2,0,1
 39 0 39 0 19.5 18.5 c 128,-1,2
 0 37 0 37 0 66 c 2,3,-1
 0 262 l 2,4,5
 0 291 0 291 19.5 309.5 c 128,-1,6
 39 328 39 328 63 328 c 2,7,-1
 94 328 l 2,8,9
 117 328 117 328 137 309.5 c 128,-1,10
 157 291 157 291 157 262 c 2,11,-1
 157 232 l 2,12,13
 157 203 157 203 137 184.5 c 128,-1,14
 117 166 117 166 94 166 c 2,15,-1
 48 166 l 1,16,-1
 48 66 l 2,17,18
 48 57 48 57 52.5 52.5 c 128,-1,19
 57 48 57 48 63 48 c 2,20,-1
 262 48 l 2,21,22
 269 48 269 48 274 52.5 c 128,-1,23
 279 57 279 57 279 66 c 2,24,-1
 279 82 l 2,25,26
 279 100 279 100 262 100 c 2,27,-1
 73 100 l 1,28,-1
 73 148 l 1,29,-1
 194 148 l 2,30,31
 190 148 190 148 185 156 c 128,-1,32
 180 164 180 164 180 172 c 2,33,-1
 180 262 l 2,34,35
 180 291 180 291 200 309.5 c 128,-1,36
 220 328 220 328 243 328 c 2,37,-1
 264 328 l 2,38,39
 287 328 287 328 307 309.5 c 128,-1,40
 327 291 327 291 327 262 c 2,41,-1
 327 164 l 2,42,43
 327 151 327 151 316.5 138.5 c 128,-1,44
 306 126 306 126 296 126 c 1,45,46
 310 124 310 124 318.5 113.5 c 128,-1,47
 327 103 327 103 327 93 c 2,48,-1
 327 66 l 2,49,50
 327 37 327 37 307 18.5 c 128,-1,51
 287 0 287 0 264 0 c 2,52,-1
 63 0 l 2,0,1
279 263 m 2,53,54
 279 280 279 280 262 280 c 2,55,-1
 245 280 l 2,56,57
 238 280 238 280 233 276 c 128,-1,58
 228 272 228 272 228 263 c 2,59,-1
 228 169 l 2,60,61
 228 160 228 160 233 155.5 c 128,-1,62
 238 151 238 151 245 151 c 2,63,-1
 262 151 l 2,64,65
 269 151 269 151 274 156 c 128,-1,66
 279 161 279 161 279 169 c 2,67,-1
 279 263 l 2,53,54
108 263 m 2,68,69
 108 280 108 280 92 280 c 2,70,-1
 65 280 l 2,71,72
 48 280 48 280 48 263 c 2,73,-1
 48 214 l 1,74,-1
 92 214 l 2,75,76
 108 214 108 214 108 231 c 2,77,-1
 108 263 l 2,68,69
EndSplineSet
EndChar

StartChar: uni0C07
Encoding: 3079 3079 116
Width: 406
GlyphClass: 2
Flags: W
LayerCount: 2
Back
Fore
SplineSet
316 -1 m 1,0,-1
 316 122 l 2,1,2
 316 132 316 132 311 136.5 c 128,-1,3
 306 141 306 141 299 141 c 2,4,-1
 65 141 l 2,5,6
 58 141 58 141 53 136.5 c 128,-1,7
 48 132 48 132 48 122 c 2,8,-1
 48 65 l 2,9,10
 48 56 48 56 53 51.5 c 128,-1,11
 58 47 58 47 65 47 c 2,12,-1
 223 47 l 2,13,14
 229 47 229 47 233.5 51.5 c 128,-1,15
 238 56 238 56 238 65 c 2,16,-1
 238 262 l 2,17,18
 238 272 238 272 233 276 c 128,-1,19
 228 280 228 280 222 280 c 2,20,-1
 183 280 l 2,21,22
 166 280 166 280 166 262 c 2,23,-1
 166 240 l 1,24,-1
 119 240 l 1,25,-1
 119 262 l 2,26,27
 119 271 119 271 113.5 275.5 c 128,-1,28
 108 280 108 280 101 280 c 2,29,-1
 65 280 l 2,30,31
 48 280 48 280 48 262 c 2,32,-1
 48 220 l 1,33,-1
 0 220 l 1,34,-1
 0 262 l 2,35,36
 0 291 0 291 19.5 309.5 c 128,-1,37
 39 328 39 328 62 328 c 2,38,-1
 103 328 l 2,39,40
 115 328 115 328 125.5 322.5 c 128,-1,41
 136 317 136 317 142 309 c 1,42,43
 149 328 149 328 171 328 c 2,44,-1
 224 328 l 2,45,46
 247 328 247 328 266.5 309.5 c 128,-1,47
 286 291 286 291 286 262 c 2,48,-1
 286 65 l 2,49,50
 286 36 286 36 266.5 17.5 c 128,-1,51
 247 -1 247 -1 224 -1 c 2,52,-1
 62 -1 l 2,53,54
 39 -1 39 -1 19.5 17.5 c 128,-1,55
 0 36 0 36 0 65 c 2,56,-1
 0 122 l 2,57,58
 0 151 0 151 19.5 170 c 128,-1,59
 39 189 39 189 62 189 c 2,60,-1
 305 189 l 2,61,62
 328 189 328 189 345.5 172.5 c 128,-1,63
 363 156 363 156 363 126 c 2,64,-1
 363 -1 l 1,65,-1
 316 -1 l 1,0,-1
EndSplineSet
EndChar

StartChar: uni0C08
Encoding: 3080 3080 117
Width: 516
GlyphClass: 2
Flags: W
LayerCount: 2
Back
Fore
SplineSet
376 0 m 2,0,1
 354 0 354 0 336.5 16.5 c 128,-1,2
 319 33 319 33 319 59 c 2,3,-1
 319 151 l 2,4,5
 319 156 319 156 319 157 c 128,-1,6
 319 158 319 158 319.5 158 c 128,-1,7
 320 158 320 158 320.5 158 c 128,-1,8
 321 158 321 158 322 160 c 2,9,-1
 285 160 l 1,10,-1
 285 59 l 2,11,12
 285 33 285 33 268 16.5 c 128,-1,13
 251 0 251 0 229 0 c 2,14,-1
 96 0 l 2,15,16
 75 0 75 0 58.5 16.5 c 128,-1,17
 42 33 42 33 42 59 c 2,18,-1
 42 160 l 1,19,-1
 0 160 l 1,20,-1
 0 208 l 1,21,-1
 42 208 l 1,22,-1
 42 271 l 2,23,24
 42 283 42 283 47.5 293.5 c 128,-1,25
 53 304 53 304 61 312 c 1,26,27
 50 326 50 326 50 343 c 2,28,-1
 50 394 l 1,29,-1
 98 394 l 1,30,-1
 98 348 l 2,31,32
 98 338 98 338 102.5 335 c 128,-1,33
 107 332 107 332 116 330 c 2,34,-1
 152 330 l 1,35,-1
 152 372 l 2,36,37
 152 398 152 398 170 415 c 128,-1,38
 188 432 188 432 209 432 c 2,39,-1
 283 432 l 1,40,-1
 283 384 l 1,41,-1
 215 384 l 2,42,43
 202 384 202 384 202 367 c 2,44,-1
 202 330 l 1,45,-1
 229 330 l 2,46,47
 251 330 251 330 268 313.5 c 128,-1,48
 285 297 285 297 285 271 c 2,49,-1
 285 208 l 1,50,-1
 406 208 l 2,51,52
 419 208 419 208 419 223 c 2,53,-1
 419 267 l 2,54,55
 419 282 419 282 406 282 c 2,56,-1
 383 282 l 2,57,58
 367 282 367 282 367 267 c 2,59,-1
 367 246 l 1,60,-1
 319 246 l 1,61,-1
 319 271 l 2,62,63
 319 303 319 303 331.5 316.5 c 128,-1,64
 344 330 344 330 373 330 c 2,65,-1
 415 330 l 2,66,67
 468 330 468 330 468 271 c 2,68,-1
 468 219 l 2,69,70
 468 211 468 211 465.5 200.5 c 128,-1,71
 463 190 463 190 453 182 c 1,72,73
 459 177 459 177 461.5 170.5 c 128,-1,74
 464 164 464 164 466 158 c 0,75,76
 467 153 467 153 467.5 149 c 128,-1,77
 468 145 468 145 468 143 c 2,78,-1
 468 59 l 2,79,80
 468 33 468 33 451.5 16.5 c 128,-1,81
 435 0 435 0 415 0 c 2,82,-1
 376 0 l 2,0,1
419 145 m 2,83,84
 419 159 419 159 406 159 c 2,85,-1
 381 159 l 2,86,87
 367 159 367 159 367 145 c 2,88,-1
 367 62 l 2,89,90
 367 48 367 48 381 48 c 2,91,-1
 406 48 l 2,92,93
 419 48 419 48 419 62 c 2,94,-1
 419 145 l 2,83,84
237 267 m 2,95,96
 237 274 237 274 232.5 278 c 128,-1,97
 228 282 228 282 222 282 c 2,98,-1
 107 282 l 2,99,100
 90 282 90 282 90 267 c 2,101,-1
 90 208 l 1,102,-1
 237 208 l 1,103,-1
 237 267 l 2,95,96
237 160 m 1,104,-1
 90 160 l 1,105,-1
 90 62 l 2,106,107
 90 48 90 48 107 48 c 2,108,-1
 222 48 l 2,109,110
 228 48 228 48 232.5 51.5 c 128,-1,111
 237 55 237 55 237 62 c 2,112,-1
 237 160 l 1,104,-1
EndSplineSet
EndChar

StartChar: uni0C09
Encoding: 3081 3081 118
Width: 354
GlyphClass: 2
Flags: W
LayerCount: 2
Back
Fore
SplineSet
184 329 m 1,0,-1
 248 329 l 2,1,2
 270 329 270 329 287.5 313 c 128,-1,3
 305 297 305 297 305 271 c 2,4,-1
 305 242 l 1,5,-1
 257 242 l 1,6,-1
 257 267 l 2,7,8
 257 281 257 281 245 281 c 2,9,-1
 80 281 l 2,10,11
 66 281 66 281 66 267 c 2,12,-1
 66 208 l 1,13,-1
 175 208 l 1,14,-1
 175 160 l 1,15,-1
 66 160 l 1,16,-1
 66 64 l 2,17,18
 66 48 66 48 80 48 c 2,19,-1
 123 48 l 2,20,21
 131 48 131 48 134.5 52.5 c 128,-1,22
 138 57 138 57 138 63 c 2,23,-1
 138 97 l 1,24,-1
 186 97 l 1,25,-1
 186 64 l 2,26,27
 186 48 186 48 200 48 c 2,28,-1
 245 48 l 2,29,30
 257 48 257 48 257 65 c 2,31,-1
 257 144 l 2,32,33
 257 160 257 160 245 160 c 2,34,-1
 219 160 l 1,35,-1
 219 208 l 1,36,-1
 248 208 l 2,37,38
 270 208 270 208 287.5 192 c 128,-1,39
 305 176 305 176 305 150 c 2,40,-1
 305 60 l 2,41,42
 305 34 305 34 287.5 17 c 128,-1,43
 270 0 270 0 248 0 c 2,44,-1
 201 0 l 2,45,46
 199 -1 199 -1 188 0.5 c 128,-1,47
 177 2 177 2 163 15 c 1,48,49
 156 9 156 9 145.5 4.5 c 128,-1,50
 135 0 135 0 122 0 c 2,51,-1
 74 0 l 2,52,53
 54 0 54 0 36.5 16.5 c 128,-1,54
 19 33 19 33 19 58 c 2,55,-1
 19 160 l 1,56,-1
 0 160 l 1,57,-1
 0 208 l 1,58,-1
 19 208 l 1,59,-1
 19 271 l 2,60,61
 19 297 19 297 36.5 313 c 128,-1,62
 54 329 54 329 74 329 c 2,63,-1
 136 329 l 1,64,-1
 136 390 l 1,65,-1
 184 390 l 1,66,-1
 184 329 l 1,0,-1
EndSplineSet
EndChar

StartChar: uni0C0A
Encoding: 3082 3082 119
Width: 561
GlyphClass: 2
Flags: W
LayerCount: 2
Back
Fore
SplineSet
463 139 m 2,0,1
 463 148 463 148 460 151 c 128,-1,2
 457 154 457 154 450 154 c 2,3,-1
 424 154 l 2,4,5
 418 154 418 154 415 151 c 128,-1,6
 412 148 412 148 412 139 c 2,7,-1
 412 59 l 2,8,9
 412 48 412 48 424 48 c 2,10,-1
 450 48 l 2,11,12
 463 48 463 48 463 59 c 2,13,-1
 463 139 l 2,0,1
419 0 m 2,14,15
 398 0 398 0 380.5 15.5 c 128,-1,16
 363 31 363 31 363 57 c 2,17,-1
 363 134 l 2,18,19
 363 148 363 148 366 157 c 1,20,-1
 324 157 l 1,21,-1
 324 205 l 1,22,-1
 450 205 l 2,23,24
 463 205 463 205 463 216 c 2,25,-1
 463 266 l 2,26,27
 463 276 463 276 460 278.5 c 128,-1,28
 457 281 457 281 450 281 c 2,29,-1
 421 281 l 2,30,31
 415 281 415 281 412 276.5 c 128,-1,32
 409 272 409 272 409 266 c 2,33,-1
 409 231 l 1,34,-1
 360 231 l 1,35,-1
 360 270 l 2,36,37
 360 295 360 295 377.5 312 c 128,-1,38
 395 329 395 329 416 329 c 2,39,-1
 455 329 l 2,40,41
 477 329 477 329 494 312 c 128,-1,42
 511 295 511 295 511 270 c 2,43,-1
 511 217 l 2,44,45
 511 201 511 201 508.5 193 c 128,-1,46
 506 185 506 185 499 179 c 1,47,48
 510 173 510 173 510.5 159 c 128,-1,49
 511 145 511 145 511 139 c 2,50,-1
 511 57 l 2,51,52
 511 31 511 31 494 15.5 c 128,-1,53
 477 0 477 0 455 0 c 2,54,-1
 419 0 l 2,14,15
201 0 m 2,55,56
 199 -1 199 -1 188 0.5 c 128,-1,57
 177 2 177 2 163 15 c 1,58,59
 156 9 156 9 145.5 4.5 c 128,-1,60
 135 0 135 0 122 0 c 2,61,-1
 74 0 l 2,62,63
 54 0 54 0 36.5 16.5 c 128,-1,64
 19 33 19 33 19 58 c 2,65,-1
 19 160 l 1,66,-1
 0 160 l 1,67,-1
 0 208 l 1,68,-1
 19 208 l 1,69,-1
 19 271 l 2,70,71
 19 297 19 297 36.5 313 c 128,-1,72
 54 329 54 329 74 329 c 2,73,-1
 98 329 l 1,74,-1
 98 388 l 1,75,-1
 147 388 l 1,76,-1
 147 329 l 1,77,-1
 179 329 l 1,78,-1
 179 388 l 1,79,-1
 228 388 l 1,80,-1
 228 329 l 1,81,-1
 248 329 l 2,82,83
 270 329 270 329 287.5 313 c 128,-1,84
 305 297 305 297 305 271 c 2,85,-1
 305 242 l 1,86,-1
 257 242 l 1,87,-1
 257 267 l 2,88,89
 257 281 257 281 245 281 c 2,90,-1
 80 281 l 2,91,92
 66 281 66 281 66 267 c 2,93,-1
 66 208 l 1,94,-1
 175 208 l 1,95,-1
 175 160 l 1,96,-1
 66 160 l 1,97,-1
 66 64 l 2,98,99
 66 48 66 48 80 48 c 2,100,-1
 123 48 l 2,101,102
 131 48 131 48 134.5 52.5 c 128,-1,103
 138 57 138 57 138 63 c 2,104,-1
 138 97 l 1,105,-1
 186 97 l 1,106,-1
 186 64 l 2,107,108
 186 48 186 48 200 48 c 2,109,-1
 245 48 l 2,110,111
 257 48 257 48 257 65 c 2,112,-1
 257 144 l 2,113,114
 257 160 257 160 245 160 c 2,115,-1
 219 160 l 1,116,-1
 219 208 l 1,117,-1
 248 208 l 2,118,119
 270 208 270 208 287.5 192 c 128,-1,120
 305 176 305 176 305 150 c 2,121,-1
 305 60 l 2,122,123
 305 34 305 34 287.5 17 c 128,-1,124
 270 0 270 0 248 0 c 2,125,-1
 201 0 l 2,55,56
EndSplineSet
EndChar

StartChar: uni0C0B
Encoding: 3083 3083 120
Width: 603
GlyphClass: 2
Flags: W
LayerCount: 2
Back
Fore
SplineSet
179 0 m 2,0,1
 171 0 171 0 160.5 3.5 c 128,-1,2
 150 7 150 7 145 14 c 1,3,4
 140 6 140 6 128 3 c 128,-1,5
 116 0 116 0 105 0 c 2,6,-1
 63 0 l 2,7,8
 39 0 39 0 19.5 18.5 c 128,-1,9
 0 37 0 37 0 66 c 2,10,-1
 0 142 l 2,11,12
 0 171 0 171 19.5 189.5 c 128,-1,13
 39 208 39 208 63 208 c 2,14,-1
 102 208 l 2,15,16
 120 208 120 208 120 225 c 2,17,-1
 120 263 l 2,18,19
 120 280 120 280 102 280 c 2,20,-1
 65 280 l 2,21,22
 48 280 48 280 48 263 c 2,23,-1
 48 240 l 1,24,-1
 0 240 l 1,25,-1
 0 262 l 2,26,27
 0 291 0 291 19.5 309.5 c 128,-1,28
 39 328 39 328 63 328 c 2,29,-1
 104 328 l 2,30,31
 128 328 128 328 147.5 309.5 c 128,-1,32
 167 291 167 291 167 262 c 2,33,-1
 167 226 l 2,34,35
 167 197 167 197 147.5 178.5 c 128,-1,36
 128 160 128 160 104 160 c 2,37,-1
 65 160 l 2,38,39
 58 160 58 160 53 155.5 c 128,-1,40
 48 151 48 151 48 142 c 2,41,-1
 48 66 l 2,42,43
 48 57 48 57 53 52.5 c 128,-1,44
 58 48 58 48 65 48 c 2,45,-1
 102 48 l 2,46,47
 120 48 120 48 120 66 c 2,48,-1
 120 98 l 1,49,-1
 167 98 l 1,50,-1
 167 66 l 2,51,52
 167 48 167 48 185 48 c 2,53,-1
 225 48 l 2,54,55
 232 48 232 48 237 52.5 c 128,-1,56
 242 57 242 57 242 66 c 2,57,-1
 242 263 l 2,58,59
 242 280 242 280 225 280 c 2,60,-1
 201 280 l 1,61,-1
 201 328 l 1,62,-1
 227 328 l 2,63,64
 250 328 250 328 270 309.5 c 128,-1,65
 290 291 290 291 290 262 c 2,66,-1
 290 66 l 2,67,68
 290 37 290 37 270 18.5 c 128,-1,69
 250 0 250 0 227 0 c 2,70,-1
 179 0 l 2,0,1
314 0 m 2,71,72
 300 0 300 0 284 9 c 128,-1,73
 268 18 268 18 264 32 c 1,74,-1
 290 84 l 1,75,76
 290 65 290 65 298 57 c 128,-1,77
 306 49 306 49 316 49 c 2,78,-1
 362 49 l 2,79,80
 369 49 369 49 374 53.5 c 128,-1,81
 379 58 379 58 379 67 c 2,82,-1
 379 264 l 2,83,84
 379 281 379 281 362 281 c 2,85,-1
 347 281 l 1,86,-1
 347 329 l 1,87,-1
 364 329 l 2,88,89
 387 329 387 329 406.5 310.5 c 128,-1,90
 426 292 426 292 426 263 c 2,91,-1
 426 67 l 2,92,93
 426 38 426 38 406.5 19 c 128,-1,94
 387 0 387 0 364 0 c 2,95,-1
 314 0 l 2,71,72
450 0 m 2,96,97
 436 0 436 0 420 8.5 c 128,-1,98
 404 17 404 17 400 31 c 1,99,-1
 426 83 l 1,100,101
 426 65 426 65 434 56.5 c 128,-1,102
 442 48 442 48 452 48 c 2,103,-1
 498 48 l 2,104,105
 505 48 505 48 510 52.5 c 128,-1,106
 515 57 515 57 515 66 c 2,107,-1
 515 263 l 2,108,109
 515 280 515 280 498 280 c 2,110,-1
 483 280 l 1,111,-1
 483 328 l 1,112,-1
 500 328 l 2,113,114
 523 328 523 328 542.5 309.5 c 128,-1,115
 562 291 562 291 562 262 c 2,116,-1
 562 66 l 2,117,118
 562 37 562 37 542.5 18.5 c 128,-1,119
 523 0 523 0 500 0 c 2,120,-1
 450 0 l 2,96,97
EndSplineSet
EndChar

StartChar: uni0C0C
Encoding: 3084 3084 121
Width: 357
GlyphClass: 2
Flags: W
LayerCount: 2
Back
Fore
SplineSet
291 -74 m 2,0,1
 291 -103 291 -103 272 -122 c 128,-1,2
 253 -141 253 -141 229 -141 c 2,3,-1
 151 -141 l 2,4,5
 127 -141 127 -141 107.5 -122 c 128,-1,6
 88 -103 88 -103 88 -73 c 2,7,-1
 88 76 l 2,8,9
 88 106 88 106 108 122 c 128,-1,10
 128 138 128 138 148 143 c 2,11,-1
 222 162 l 2,12,13
 245 168 245 168 245 183 c 2,14,-1
 245 260 l 2,15,16
 245 281 245 281 226 281 c 2,17,-1
 189 281 l 2,18,19
 170 281 170 281 170 260 c 2,20,-1
 170 238 l 1,21,-1
 124 238 l 1,22,-1
 124 260 l 2,23,24
 124 271 124 271 118.5 276 c 128,-1,25
 113 281 113 281 106 281 c 2,26,-1
 65 281 l 2,27,28
 46 281 46 281 46 260 c 2,29,-1
 46 204 l 2,30,31
 46 184 46 184 65 184 c 2,32,-1
 77 184 l 1,33,-1
 77 138 l 1,34,-1
 63 138 l 2,35,36
 39 138 39 138 20 157 c 128,-1,37
 1 176 1 176 1 205 c 2,38,-1
 1 260 l 2,39,40
 1 289 1 289 20 308.5 c 128,-1,41
 39 328 39 328 63 328 c 2,42,-1
 110 328 l 2,43,44
 118 328 118 328 128 325 c 128,-1,45
 138 322 138 322 146 315 c 1,46,47
 156 323 156 323 166.5 325.5 c 128,-1,48
 177 328 177 328 185 328 c 2,49,-1
 229 328 l 2,50,51
 253 328 253 328 272 308.5 c 128,-1,52
 291 289 291 289 291 260 c 2,53,-1
 291 183 l 2,54,55
 291 167 291 167 285.5 155.5 c 128,-1,56
 280 144 280 144 271 136 c 128,-1,57
 262 128 262 128 251.5 123 c 128,-1,58
 241 118 241 118 232 116 c 2,59,-1
 157 97 l 2,60,61
 148 95 148 95 141 87 c 128,-1,62
 134 79 134 79 134 68 c 2,63,-1
 134 -74 l 2,64,65
 134 -94 134 -94 153 -94 c 2,66,-1
 226 -94 l 2,67,68
 245 -94 245 -94 245 -74 c 2,69,-1
 245 46 l 1,70,-1
 291 46 l 1,71,-1
 291 -74 l 2,0,1
EndSplineSet
EndChar

StartChar: uni0C0E
Encoding: 3086 3086 122
Width: 343
GlyphClass: 2
Flags: W
LayerCount: 2
Back
Fore
SplineSet
182 0 m 2,0,1
 163 0 163 0 146 14 c 1,2,3
 129 0 129 0 106 0 c 2,4,-1
 63 0 l 2,5,6
 39 0 39 0 19.5 19 c 128,-1,7
 0 38 0 38 0 67 c 2,8,-1
 0 153 l 2,9,10
 0 182 0 182 19.5 201 c 128,-1,11
 39 220 39 220 63 220 c 2,12,-1
 106 220 l 2,13,14
 129 220 129 220 149 201 c 128,-1,15
 169 182 169 182 169 153 c 2,16,-1
 169 67 l 1,17,-1
 169 59 l 1,18,19
 175 48 175 48 187 48 c 2,20,-1
 224 48 l 2,21,22
 230 48 230 48 235 52.5 c 128,-1,23
 240 57 240 57 240 67 c 2,24,-1
 240 284 l 2,25,26
 240 302 240 302 224 302 c 2,27,-1
 141 302 l 1,28,-1
 141 351 l 1,29,-1
 226 351 l 2,30,31
 249 351 249 351 269 332 c 128,-1,32
 289 313 289 313 289 283 c 2,33,-1
 289 67 l 2,34,35
 289 38 289 38 269 19 c 128,-1,36
 249 0 249 0 226 0 c 2,37,-1
 182 0 l 2,0,1
121 154 m 2,38,39
 121 163 121 163 116 167.5 c 128,-1,40
 111 172 111 172 104 172 c 2,41,-1
 65 172 l 2,42,43
 48 172 48 172 48 154 c 2,44,-1
 48 67 l 2,45,46
 48 57 48 57 53 52.5 c 128,-1,47
 58 48 58 48 65 48 c 2,48,-1
 104 48 l 2,49,50
 111 48 111 48 116 52.5 c 128,-1,51
 121 57 121 57 121 67 c 2,52,-1
 121 154 l 2,38,39
EndSplineSet
EndChar

StartChar: uni0C0F
Encoding: 3087 3087 123
Width: 343
GlyphClass: 2
Flags: W
LayerCount: 2
Back
Fore
SplineSet
82 378 m 2,0,1
 64 378 64 378 64 360 c 2,2,-1
 64 298 l 1,3,-1
 17 298 l 1,4,-1
 17 359 l 2,5,6
 17 388 17 388 36 407 c 128,-1,7
 55 426 55 426 80 426 c 2,8,-1
 155 426 l 1,9,-1
 155 378 l 1,10,-1
 82 378 l 2,0,1
182 0 m 2,11,12
 163 0 163 0 146 14 c 1,13,14
 129 0 129 0 106 0 c 2,15,-1
 63 0 l 2,16,17
 39 0 39 0 19.5 19 c 128,-1,18
 0 38 0 38 0 67 c 2,19,-1
 0 153 l 2,20,21
 0 182 0 182 19.5 201 c 128,-1,22
 39 220 39 220 63 220 c 2,23,-1
 106 220 l 2,24,25
 129 220 129 220 149 201 c 128,-1,26
 169 182 169 182 169 153 c 2,27,-1
 169 67 l 1,28,-1
 169 59 l 1,29,30
 175 48 175 48 187 48 c 2,31,-1
 224 48 l 2,32,33
 230 48 230 48 235 52.5 c 128,-1,34
 240 57 240 57 240 67 c 2,35,-1
 240 284 l 2,36,37
 240 302 240 302 224 302 c 2,38,-1
 141 302 l 1,39,-1
 141 351 l 1,40,-1
 226 351 l 2,41,42
 249 351 249 351 269 332 c 128,-1,43
 289 313 289 313 289 283 c 2,44,-1
 289 67 l 2,45,46
 289 38 289 38 269 19 c 128,-1,47
 249 0 249 0 226 0 c 2,48,-1
 182 0 l 2,11,12
121 154 m 2,49,50
 121 163 121 163 116 167.5 c 128,-1,51
 111 172 111 172 104 172 c 2,52,-1
 65 172 l 2,53,54
 48 172 48 172 48 154 c 2,55,-1
 48 67 l 2,56,57
 48 57 48 57 53 52.5 c 128,-1,58
 58 48 58 48 65 48 c 2,59,-1
 104 48 l 2,60,61
 111 48 111 48 116 52.5 c 128,-1,62
 121 57 121 57 121 67 c 2,63,-1
 121 154 l 2,49,50
EndSplineSet
EndChar

StartChar: uni0C10
Encoding: 3088 3088 124
Width: 342
GlyphClass: 2
Flags: W
LayerCount: 2
Back
Fore
SplineSet
177 0 m 2,0,1
 169 0 169 0 160 4 c 128,-1,2
 151 8 151 8 143 14 c 1,3,4
 126 0 126 0 104 0 c 2,5,-1
 62 0 l 2,6,7
 39 0 39 0 19.5 18.5 c 128,-1,8
 0 37 0 37 0 66 c 2,9,-1
 0 141 l 2,10,11
 0 170 0 170 19.5 188 c 128,-1,12
 39 206 39 206 62 206 c 2,13,-1
 104 206 l 2,14,15
 128 206 128 206 147.5 188 c 128,-1,16
 167 170 167 170 167 141 c 2,17,-1
 167 66 l 1,18,-1
 167 60 l 1,19,20
 174 48 174 48 187 48 c 2,21,-1
 223 48 l 2,22,23
 229 48 229 48 234 52.5 c 128,-1,24
 239 57 239 57 239 66 c 2,25,-1
 239 263 l 2,26,27
 239 280 239 280 223 280 c 2,28,-1
 183 280 l 2,29,30
 166 280 166 280 166 263 c 2,31,-1
 166 240 l 1,32,-1
 119 240 l 1,33,-1
 119 263 l 2,34,35
 119 272 119 272 113.5 276 c 128,-1,36
 108 280 108 280 101 280 c 2,37,-1
 65 280 l 2,38,39
 48 280 48 280 48 263 c 2,40,-1
 48 230 l 1,41,-1
 0 230 l 1,42,-1
 0 263 l 2,43,44
 0 291 0 291 19.5 309.5 c 128,-1,45
 39 328 39 328 62 328 c 2,46,-1
 104 328 l 2,47,48
 126 328 126 328 143 313 c 1,49,50
 148 320 148 320 157.5 324 c 128,-1,51
 167 328 167 328 172 328 c 2,52,-1
 225 328 l 2,53,54
 248 328 248 328 267.5 310 c 128,-1,55
 287 292 287 292 287 263 c 2,56,-1
 287 66 l 2,57,58
 287 37 287 37 267.5 18.5 c 128,-1,59
 248 0 248 0 225 0 c 2,60,-1
 177 0 l 2,0,1
120 141 m 2,61,62
 120 158 120 158 102 158 c 2,63,-1
 65 158 l 2,64,65
 48 158 48 158 48 141 c 2,66,-1
 48 66 l 2,67,68
 48 57 48 57 53 52.5 c 128,-1,69
 58 48 58 48 65 48 c 2,70,-1
 102 48 l 2,71,72
 120 48 120 48 120 66 c 2,73,-1
 120 141 l 2,61,62
EndSplineSet
EndChar

StartChar: uni0C12
Encoding: 3090 3090 125
Width: 313
GlyphClass: 2
Flags: W
LayerCount: 2
Back
Fore
SplineSet
170 0 m 2,0,1
 160 0 160 0 150 4.5 c 128,-1,2
 140 9 140 9 135 14 c 1,3,4
 127 9 127 9 116.5 4.5 c 128,-1,5
 106 0 106 0 95 0 c 2,6,-1
 63 0 l 2,7,8
 39 0 39 0 19.5 18.5 c 128,-1,9
 0 37 0 37 0 66 c 2,10,-1
 0 142 l 2,11,12
 0 171 0 171 19.5 189.5 c 128,-1,13
 39 208 39 208 63 208 c 2,14,-1
 102 208 l 2,15,16
 120 208 120 208 120 225 c 2,17,-1
 120 263 l 2,18,19
 120 280 120 280 102 280 c 2,20,-1
 65 280 l 2,21,22
 48 280 48 280 48 263 c 2,23,-1
 48 230 l 1,24,-1
 0 230 l 1,25,-1
 0 262 l 2,26,27
 0 291 0 291 19.5 309.5 c 128,-1,28
 39 328 39 328 63 328 c 2,29,-1
 104 328 l 2,30,31
 128 328 128 328 147.5 309.5 c 128,-1,32
 167 291 167 291 167 262 c 2,33,-1
 167 226 l 2,34,35
 167 197 167 197 147.5 178.5 c 128,-1,36
 128 160 128 160 104 160 c 2,37,-1
 65 160 l 2,38,39
 58 160 58 160 53 155.5 c 128,-1,40
 48 151 48 151 48 142 c 2,41,-1
 48 66 l 2,42,43
 48 57 48 57 53 52.5 c 128,-1,44
 58 48 58 48 65 48 c 2,45,-1
 92 48 l 2,46,47
 110 48 110 48 110 66 c 2,48,-1
 110 98 l 1,49,-1
 157 98 l 1,50,-1
 157 66 l 2,51,52
 157 48 157 48 175 48 c 2,53,-1
 205 48 l 2,54,55
 212 48 212 48 217 52.5 c 128,-1,56
 222 57 222 57 222 66 c 2,57,-1
 222 120 l 1,58,-1
 270 120 l 1,59,-1
 270 66 l 2,60,61
 270 37 270 37 250 18.5 c 128,-1,62
 230 0 230 0 207 0 c 2,63,-1
 170 0 l 2,0,1
EndSplineSet
EndChar

StartChar: uni0C13
Encoding: 3091 3091 126
Width: 313
GlyphClass: 2
Flags: W
LayerCount: 2
Back
Fore
SplineSet
170 0 m 2,0,1
 160 0 160 0 150 4.5 c 128,-1,2
 140 9 140 9 135 14 c 1,3,4
 127 9 127 9 116.5 4.5 c 128,-1,5
 106 0 106 0 95 0 c 2,6,-1
 63 0 l 2,7,8
 39 0 39 0 19.5 18.5 c 128,-1,9
 0 37 0 37 0 66 c 2,10,-1
 0 142 l 2,11,12
 0 171 0 171 19.5 189.5 c 128,-1,13
 39 208 39 208 63 208 c 2,14,-1
 102 208 l 2,15,16
 120 208 120 208 120 225 c 2,17,-1
 120 263 l 2,18,19
 120 280 120 280 102 280 c 2,20,-1
 65 280 l 2,21,22
 48 280 48 280 48 263 c 2,23,-1
 48 230 l 1,24,-1
 0 230 l 1,25,-1
 0 262 l 2,26,27
 0 291 0 291 19.5 309.5 c 128,-1,28
 39 328 39 328 63 328 c 2,29,-1
 104 328 l 2,30,31
 128 328 128 328 147.5 309.5 c 128,-1,32
 167 291 167 291 167 262 c 2,33,-1
 167 226 l 2,34,35
 167 197 167 197 147.5 178.5 c 128,-1,36
 128 160 128 160 104 160 c 2,37,-1
 65 160 l 2,38,39
 58 160 58 160 53 155.5 c 128,-1,40
 48 151 48 151 48 142 c 2,41,-1
 48 66 l 2,42,43
 48 57 48 57 53 52.5 c 128,-1,44
 58 48 58 48 65 48 c 2,45,-1
 92 48 l 2,46,47
 110 48 110 48 110 66 c 2,48,-1
 110 98 l 1,49,-1
 157 98 l 1,50,-1
 157 66 l 2,51,52
 157 48 157 48 175 48 c 2,53,-1
 205 48 l 2,54,55
 212 48 212 48 217 52.5 c 128,-1,56
 222 57 222 57 222 66 c 2,57,-1
 222 120 l 1,58,-1
 270 120 l 1,59,-1
 270 66 l 2,60,61
 270 37 270 37 250 18.5 c 128,-1,62
 230 0 230 0 207 0 c 2,63,-1
 170 0 l 2,0,1
105 290 m 1,64,65
 94 290 94 290 81 289.5 c 128,-1,66
 68 289 68 289 57 289 c 1,67,-1
 57 366 l 2,68,69
 57 426 57 426 112 426 c 2,70,-1
 144 426 l 2,71,72
 172 426 172 426 185 412.5 c 128,-1,73
 198 399 198 399 198 367 c 2,74,-1
 198 342 l 1,75,-1
 150 342 l 1,76,-1
 150 362 l 2,77,78
 150 378 150 378 133 378 c 2,79,-1
 119 378 l 2,80,81
 105 376 105 376 105 362 c 2,82,-1
 105 332 l 1,83,-1
 105 290 l 1,64,65
EndSplineSet
EndChar

StartChar: uni0C14
Encoding: 3092 3092 127
Width: 411
GlyphClass: 2
Flags: W
LayerCount: 2
Back
Fore
SplineSet
170 0 m 2,0,1
 160 0 160 0 150 4.5 c 128,-1,2
 140 9 140 9 135 14 c 1,3,4
 127 9 127 9 116.5 4.5 c 128,-1,5
 106 0 106 0 95 0 c 2,6,-1
 63 0 l 2,7,8
 39 0 39 0 19.5 18.5 c 128,-1,9
 0 37 0 37 0 66 c 2,10,-1
 0 142 l 2,11,12
 0 171 0 171 19.5 189.5 c 128,-1,13
 39 208 39 208 63 208 c 2,14,-1
 102 208 l 2,15,16
 120 208 120 208 120 225 c 2,17,-1
 120 263 l 2,18,19
 120 280 120 280 102 280 c 2,20,-1
 65 280 l 2,21,22
 48 280 48 280 48 263 c 2,23,-1
 48 230 l 1,24,-1
 0 230 l 1,25,-1
 0 262 l 2,26,27
 0 291 0 291 19.5 309.5 c 128,-1,28
 39 328 39 328 63 328 c 2,29,-1
 104 328 l 2,30,31
 128 328 128 328 147.5 309.5 c 128,-1,32
 167 291 167 291 167 262 c 2,33,-1
 167 226 l 2,34,35
 167 197 167 197 147.5 178.5 c 128,-1,36
 128 160 128 160 104 160 c 2,37,-1
 65 160 l 2,38,39
 58 160 58 160 53 155.5 c 128,-1,40
 48 151 48 151 48 142 c 2,41,-1
 48 66 l 2,42,43
 48 57 48 57 53 52.5 c 128,-1,44
 58 48 58 48 65 48 c 2,45,-1
 92 48 l 2,46,47
 110 48 110 48 110 66 c 2,48,-1
 110 98 l 1,49,-1
 157 98 l 1,50,-1
 157 66 l 2,51,52
 157 48 157 48 175 48 c 2,53,-1
 205 48 l 2,54,55
 212 48 212 48 217 52.5 c 128,-1,56
 222 57 222 57 222 66 c 2,57,-1
 222 120 l 1,58,-1
 270 120 l 1,59,-1
 270 66 l 2,60,61
 270 37 270 37 250 18.5 c 128,-1,62
 230 0 230 0 207 0 c 2,63,-1
 170 0 l 2,0,1
276 167 m 2,64,65
 252 167 252 167 233 186 c 128,-1,66
 214 205 214 205 214 234 c 2,67,-1
 214 269 l 2,68,69
 214 298 214 298 233 316 c 128,-1,70
 252 334 252 334 276 334 c 2,71,-1
 316 334 l 1,72,-1
 316 359 l 2,73,74
 316 377 316 377 298 377 c 2,75,-1
 168 377 l 1,76,77
 171 369 171 369 171 362 c 2,78,-1
 171 333 l 2,79,80
 171 313 171 313 154 296.5 c 128,-1,81
 137 280 137 280 105 280 c 2,82,-1
 68 280 l 2,83,84
 64 280 64 280 61 287.5 c 128,-1,85
 58 295 58 295 57 304 c 128,-1,86
 56 313 56 313 58 320.5 c 128,-1,87
 60 328 60 328 66 328 c 2,88,-1
 107 328 l 1,89,-1
 112 328 l 2,90,91
 119 328 119 328 120.5 331 c 128,-1,92
 122 334 122 334 122 340 c 2,93,-1
 122 361 l 2,94,95
 122 373 122 373 112 377 c 1,96,-1
 0 377 l 1,97,-1
 0 426 l 1,98,-1
 302 426 l 2,99,100
 327 426 327 426 345.5 407 c 128,-1,101
 364 388 364 388 364 359 c 2,102,-1
 364 234 l 2,103,104
 364 205 364 205 345.5 186 c 128,-1,105
 327 167 327 167 302 167 c 2,106,-1
 276 167 l 2,64,65
316 286 m 1,107,-1
 280 286 l 2,108,109
 273 286 273 286 268 281.5 c 128,-1,110
 263 277 263 277 263 267 c 2,111,-1
 263 234 l 2,112,113
 263 224 263 224 268 220 c 128,-1,114
 273 216 273 216 280 216 c 2,115,-1
 298 216 l 2,116,117
 316 216 316 216 316 234 c 2,118,-1
 316 286 l 1,107,-1
EndSplineSet
EndChar

StartChar: uni0C15
Encoding: 3093 3093 128
Width: 298
GlyphClass: 2
Flags: W
LayerCount: 2
Back
Fore
SplineSet
63 0 m 2,0,1
 39 0 39 0 19.5 18.5 c 128,-1,2
 0 37 0 37 0 66 c 2,3,-1
 0 106 l 1,4,-1
 47 106 l 1,5,-1
 47 66 l 2,6,7
 47 48 47 48 65 48 c 2,8,-1
 179 48 l 2,9,10
 186 48 186 48 191 52.5 c 128,-1,11
 196 57 196 57 196 66 c 2,12,-1
 196 125 l 2,13,14
 196 134 196 134 191 139 c 128,-1,15
 186 144 186 144 179 144 c 2,16,-1
 63 144 l 2,17,18
 39 144 39 144 19.5 162.5 c 128,-1,19
 0 181 0 181 0 209 c 2,20,-1
 0 262 l 2,21,22
 0 291 0 291 19 309 c 128,-1,23
 38 327 38 327 62 327 c 2,24,-1
 181 328 l 2,25,26
 204 328 204 328 223.5 309.5 c 128,-1,27
 243 291 243 291 243 262 c 2,28,-1
 243 220 l 1,29,-1
 196 220 l 1,30,-1
 196 263 l 2,31,32
 196 272 196 272 191 276 c 128,-1,33
 186 280 186 280 179 280 c 2,34,-1
 65 280 l 2,35,36
 47 280 47 280 47 263 c 2,37,-1
 47 208 l 2,38,39
 47 191 47 191 65 191 c 2,40,-1
 181 191 l 2,41,42
 204 191 204 191 223.5 172.5 c 128,-1,43
 243 154 243 154 243 125 c 2,44,-1
 243 66 l 2,45,46
 243 37 243 37 223.5 18.5 c 128,-1,47
 204 0 204 0 181 0 c 2,48,-1
 63 0 l 2,0,1
184 406 m 2,49,50
 178 406 178 406 173 402 c 128,-1,51
 168 398 168 398 168 390 c 2,52,-1
 168 282 l 1,53,-1
 54 282 l 2,54,55
 34 282 34 282 17 296.5 c 128,-1,56
 0 311 0 311 0 349 c 2,57,-1
 0 380 l 1,58,-1
 48 380 l 1,59,-1
 48 353 l 2,60,61
 48 335 48 335 54.5 331 c 128,-1,62
 61 327 61 327 74 327 c 2,63,-1
 119 328 l 1,64,-1
 120 396 l 2,65,66
 120 421 120 421 138 436.5 c 128,-1,67
 156 452 156 452 176 452 c 2,68,-1
 245 452 l 1,69,-1
 245 406 l 1,70,-1
 184 406 l 2,49,50
EndSplineSet
Substitution2: "Single Substitution lookup 21 subtable" uni0C15_uni0C4D.abvs
EndChar

StartChar: uni0C16
Encoding: 3094 3094 129
Width: 359
GlyphClass: 2
Flags: W
LayerCount: 2
Back
Fore
SplineSet
179 0 m 2,0,1
 171 0 171 0 160.5 4 c 128,-1,2
 150 8 150 8 145 13 c 1,3,4
 137 8 137 8 126 4 c 128,-1,5
 115 0 115 0 104 0 c 2,6,-1
 63 0 l 2,7,8
 39 0 39 0 19.5 18 c 128,-1,9
 0 36 0 36 0 65 c 2,10,-1
 0 150 l 2,11,12
 0 179 0 179 19.5 197.5 c 128,-1,13
 39 216 39 216 63 216 c 2,14,-1
 104 216 l 2,15,16
 111 216 111 216 119 214 c 1,17,-1
 119 262 l 2,18,19
 119 272 119 272 114 276 c 128,-1,20
 109 280 109 280 102 280 c 2,21,-1
 65 280 l 2,22,23
 48 280 48 280 48 262 c 2,24,-1
 48 238 l 1,25,-1
 0 238 l 1,26,-1
 0 261 l 2,27,28
 0 290 0 290 19.5 309 c 128,-1,29
 39 328 39 328 63 328 c 2,30,-1
 104 328 l 2,31,32
 127 328 127 328 147 309 c 128,-1,33
 167 290 167 290 167 261 c 2,34,-1
 167 65 l 2,35,36
 167 56 167 56 172 51.5 c 128,-1,37
 177 47 177 47 184 47 c 2,38,-1
 234 47 l 2,39,40
 240 47 240 47 245 51.5 c 128,-1,41
 250 56 250 56 250 65 c 2,42,-1
 250 262 l 2,43,44
 250 280 250 280 234 280 c 2,45,-1
 219 280 l 1,46,-1
 219 328 l 1,47,-1
 236 328 l 2,48,49
 259 328 259 328 279 309 c 128,-1,50
 299 290 299 290 299 261 c 2,51,-1
 299 65 l 2,52,53
 299 36 299 36 279 18 c 128,-1,54
 259 0 259 0 236 0 c 2,55,-1
 179 0 l 2,0,1
121 -92 m 1,56,-1
 121 -15 l 2,57,58
 124 -14 124 -14 132 -10 c 128,-1,59
 140 -6 140 -6 144 4 c 1,60,61
 149 -6 149 -6 157.5 -10.5 c 128,-1,62
 166 -15 166 -15 168 -17 c 2,63,-1
 168 -92 l 1,64,-1
 121 -92 l 1,56,-1
119 151 m 2,65,66
 119 160 119 160 114 164 c 128,-1,67
 109 168 109 168 102 168 c 2,68,-1
 65 168 l 2,69,70
 48 168 48 168 48 151 c 2,71,-1
 48 65 l 2,72,73
 48 56 48 56 53 51.5 c 128,-1,74
 58 47 58 47 65 47 c 2,75,-1
 102 47 l 2,76,77
 109 47 109 47 114 51.5 c 128,-1,78
 119 56 119 56 119 65 c 2,79,-1
 119 151 l 2,65,66
EndSplineSet
Substitution2: "Single Substitution lookup 21 subtable" uni0C16_uni0C4D.abvs
EndChar

StartChar: uni0C17
Encoding: 3095 3095 130
Width: 304
GlyphClass: 2
Flags: W
LayerCount: 2
Back
Fore
SplineSet
202 0 m 1,0,-1
 202 263 l 2,1,2
 202 280 202 280 184 280 c 2,3,-1
 65 280 l 2,4,5
 47 280 47 280 47 263 c 2,6,-1
 47 0 l 1,7,-1
 0 0 l 1,8,-1
 0 262 l 2,9,10
 0 291 0 291 19.5 309.5 c 128,-1,11
 39 328 39 328 63 328 c 2,12,-1
 187 328 l 2,13,14
 210 328 210 328 229.5 309.5 c 128,-1,15
 249 291 249 291 249 262 c 2,16,-1
 249 0 l 1,17,-1
 202 0 l 1,0,-1
203 406 m 2,18,19
 197 406 197 406 192 402 c 128,-1,20
 187 398 187 398 187 390 c 2,21,-1
 185 279 l 1,22,-1
 77 280 l 2,23,24
 57 280 57 280 38 300.5 c 128,-1,25
 19 321 19 321 19 359 c 2,26,-1
 19 380 l 1,27,-1
 67 380 l 1,28,-1
 67 363 l 2,29,30
 67 328 67 328 94 328 c 2,31,-1
 138 328 l 1,32,-1
 139 396 l 2,33,34
 139 421 139 421 157 436.5 c 128,-1,35
 175 452 175 452 195 452 c 2,36,-1
 254 452 l 1,37,-1
 254 406 l 1,38,-1
 203 406 l 2,18,19
EndSplineSet
Substitution2: "Single Substitution lookup 21 subtable" uni0C17_uni0C4D.abvs
EndChar

StartChar: uni0C18
Encoding: 3096 3096 131
Width: 494
GlyphClass: 2
Flags: W
LayerCount: 2
Back
Fore
SplineSet
327 0 m 2,0,1
 313 0 313 0 297 8.5 c 128,-1,2
 281 17 281 17 277 31 c 1,3,-1
 304 83 l 1,4,5
 307 48 307 48 329 48 c 2,6,-1
 375 48 l 2,7,8
 392 48 392 48 392 66 c 2,9,-1
 392 263 l 2,10,11
 392 280 392 280 375 280 c 2,12,-1
 360 280 l 1,13,-1
 360 328 l 1,14,-1
 377 328 l 2,15,16
 401 328 401 328 420 309.5 c 128,-1,17
 439 291 439 291 439 262 c 2,18,-1
 439 66 l 2,19,20
 439 37 439 37 420 18.5 c 128,-1,21
 401 0 401 0 377 0 c 2,22,-1
 327 0 l 2,0,1
191 0 m 2,23,24
 183 0 183 0 171.5 4 c 128,-1,25
 160 8 160 8 152 16 c 1,26,27
 146 10 146 10 135 5 c 128,-1,28
 124 0 124 0 116 0 c 2,29,-1
 63 0 l 2,30,31
 39 0 39 0 19.5 18.5 c 128,-1,32
 0 37 0 37 0 66 c 2,33,-1
 0 164 l 2,34,35
 0 193 0 193 19.5 210.5 c 128,-1,36
 39 228 39 228 63 228 c 2,37,-1
 112 228 l 2,38,39
 136 228 136 228 155.5 210.5 c 128,-1,40
 175 193 175 193 175 164 c 2,41,-1
 175 66 l 2,42,43
 175 48 175 48 193 48 c 2,44,-1
 240 48 l 2,45,46
 246 48 246 48 251 52.5 c 128,-1,47
 256 57 256 57 256 66 c 2,48,-1
 256 263 l 2,49,50
 256 280 256 280 240 280 c 2,51,-1
 225 280 l 1,52,-1
 225 328 l 1,53,-1
 242 328 l 2,54,55
 265 328 265 328 284.5 309.5 c 128,-1,56
 304 291 304 291 304 262 c 2,57,-1
 304 66 l 2,58,59
 304 37 304 37 284.5 18.5 c 128,-1,60
 265 0 265 0 242 0 c 2,61,-1
 191 0 l 2,23,24
128 163 m 2,62,63
 128 181 128 181 110 181 c 2,64,-1
 65 181 l 2,65,66
 48 181 48 181 48 163 c 2,67,-1
 48 66 l 2,68,69
 48 57 48 57 53 52.5 c 128,-1,70
 58 48 58 48 65 48 c 2,71,-1
 110 48 l 2,72,73
 128 48 128 48 128 66 c 2,74,-1
 128 163 l 2,62,63
166 404 m 2,75,76
 154 404 154 404 154 390 c 2,77,-1
 154 341 l 2,78,79
 154 312 154 312 138.5 295.5 c 128,-1,80
 123 279 123 279 98 279 c 2,81,-1
 1 279 l 1,82,-1
 1 327 l 1,83,-1
 91 327 l 2,84,85
 106 327 106 327 106 341 c 2,86,-1
 106 388 l 2,87,88
 106 417 106 417 123 434.5 c 128,-1,89
 140 452 140 452 163 452 c 2,90,-1
 245 452 l 1,91,-1
 245 404 l 1,92,-1
 166 404 l 2,75,76
129 -83 m 1,93,-1
 129 -23 l 2,94,95
 131 -23 131 -23 138 -21 c 128,-1,96
 145 -19 145 -19 152 -7 c 1,97,98
 154 -15 154 -15 160.5 -19 c 128,-1,99
 167 -23 167 -23 170 -24 c 2,100,-1
 170 -83 l 1,101,-1
 129 -83 l 1,93,-1
EndSplineSet
Substitution2: "Single Substitution lookup 21 subtable" uni0C18_uni0C4D.abvs
EndChar

StartChar: uni0C19
Encoding: 3097 3097 132
Width: 343
GlyphClass: 2
Flags: W
LayerCount: 2
Back
Fore
SplineSet
135 219 m 1,0,-1
 135 267 l 1,1,-1
 205 267 l 1,2,-1
 205 318 l 1,3,-1
 254 318 l 1,4,-1
 254 267 l 1,5,-1
 294 267 l 1,6,-1
 294 219 l 1,7,-1
 135 219 l 1,0,-1
181 0 m 2,8,9
 179 0 179 0 168.5 2 c 128,-1,10
 158 4 158 4 143 15 c 1,11,12
 137 9 137 9 126.5 4.5 c 128,-1,13
 116 0 116 0 102 0 c 2,14,-1
 56 0 l 2,15,16
 35 0 35 0 17.5 16.5 c 128,-1,17
 0 33 0 33 0 59 c 2,18,-1
 0 147 l 2,19,20
 0 173 0 173 17.5 189.5 c 128,-1,21
 35 206 35 206 56 206 c 2,22,-1
 105 206 l 2,23,24
 111 206 111 206 115.5 210 c 128,-1,25
 120 214 120 214 120 221 c 2,26,-1
 120 265 l 2,27,28
 120 273 120 273 115.5 276.5 c 128,-1,29
 111 280 111 280 105 280 c 2,30,-1
 61 280 l 2,31,32
 48 280 48 280 48 265 c 2,33,-1
 48 239 l 1,34,-1
 0 239 l 1,35,-1
 0 269 l 2,36,37
 0 295 0 295 17.5 311.5 c 128,-1,38
 35 328 35 328 56 328 c 2,39,-1
 112 328 l 2,40,41
 132 328 132 328 149.5 311.5 c 128,-1,42
 167 295 167 295 167 269 c 2,43,-1
 167 213 l 2,44,45
 167 191 167 191 150 175 c 128,-1,46
 133 159 133 159 112 159 c 2,47,-1
 61 159 l 2,48,49
 48 159 48 159 48 143 c 2,50,-1
 48 63 l 2,51,52
 48 48 48 48 61 48 c 2,53,-1
 103 48 l 2,54,55
 111 48 111 48 115 52.5 c 128,-1,56
 119 57 119 57 119 62 c 2,57,-1
 119 98 l 1,58,-1
 166 98 l 1,59,-1
 166 62 l 2,60,61
 166 48 166 48 181 48 c 2,62,-1
 226 48 l 2,63,64
 239 48 239 48 239 63 c 2,65,-1
 239 128 l 1,66,-1
 287 128 l 1,67,-1
 287 59 l 2,68,69
 287 33 287 33 269.5 16.5 c 128,-1,70
 252 0 252 0 231 0 c 2,71,-1
 181 0 l 2,8,9
EndSplineSet
Substitution2: "Single Substitution lookup 21 subtable" uni0C19_uni0C4D.abvs
EndChar

StartChar: uni0C1A
Encoding: 3098 3098 133
Width: 383
GlyphClass: 2
Flags: W
LayerCount: 2
Back
Fore
SplineSet
214 406 m 2,0,1
 208 406 208 406 203 402 c 128,-1,2
 198 398 198 398 198 390 c 2,3,-1
 198 280 l 1,4,-1
 112 280 l 2,5,6
 102 280 102 280 91 284 c 128,-1,7
 80 288 80 288 71 295.5 c 128,-1,8
 62 303 62 303 56 313.5 c 128,-1,9
 50 324 50 324 50 336 c 2,10,-1
 50 370 l 1,11,-1
 100 370 l 1,12,-1
 100 353 l 2,13,14
 100 328 100 328 124 328 c 2,15,-1
 149 328 l 1,16,-1
 150 396 l 2,17,18
 150 421 150 421 168 436.5 c 128,-1,19
 186 452 186 452 206 452 c 2,20,-1
 328 452 l 1,21,-1
 328 406 l 1,22,-1
 214 406 l 2,0,1
223 0 m 2,23,24
 221 0 221 0 209.5 1 c 128,-1,25
 198 2 198 2 184 14 c 1,26,27
 178 8 178 8 167.5 4 c 128,-1,28
 157 0 157 0 144 0 c 2,29,-1
 96 0 l 2,30,31
 75 0 75 0 57.5 16.5 c 128,-1,32
 40 33 40 33 40 58 c 2,33,-1
 40 171 l 1,34,35
 40 171 40 171 42 179 c 1,36,-1
 0 179 l 1,37,-1
 0 226 l 1,38,-1
 119 226 l 1,39,-1
 119 179 l 1,40,-1
 103 179 l 2,41,42
 97 179 97 179 92.5 175 c 128,-1,43
 88 171 88 171 88 164 c 2,44,-1
 88 62 l 2,45,46
 88 48 88 48 103 48 c 2,47,-1
 145 48 l 2,48,49
 153 48 153 48 156.5 52.5 c 128,-1,50
 160 57 160 57 160 62 c 2,51,-1
 160 107 l 1,52,-1
 208 107 l 1,53,-1
 208 61 l 2,54,55
 208 48 208 48 223 48 c 2,56,-1
 266 48 l 2,57,58
 271 48 271 48 275.5 51.5 c 128,-1,59
 280 55 280 55 280 63 c 2,60,-1
 280 266 l 2,61,62
 280 280 280 280 266 280 c 2,63,-1
 130 280 l 1,64,-1
 130 328 l 1,65,-1
 273 328 l 2,66,67
 294 328 294 328 311 312 c 128,-1,68
 328 296 328 296 328 270 c 2,69,-1
 328 58 l 2,70,71
 328 33 328 33 311 16.5 c 128,-1,72
 294 0 294 0 273 0 c 2,73,-1
 223 0 l 2,23,24
EndSplineSet
Substitution2: "Single Substitution lookup 21 subtable" uni0C1A_uni0C4D.abvs
EndChar

StartChar: uni0C1B
Encoding: 3099 3099 134
Width: 382
GlyphClass: 2
Flags: W
LayerCount: 2
Back
Fore
SplineSet
214 406 m 2,0,1
 208 406 208 406 203 402 c 128,-1,2
 198 398 198 398 198 390 c 2,3,-1
 198 280 l 1,4,-1
 112 280 l 2,5,6
 102 280 102 280 91 284 c 128,-1,7
 80 288 80 288 71 295.5 c 128,-1,8
 62 303 62 303 56 313.5 c 128,-1,9
 50 324 50 324 50 336 c 2,10,-1
 50 370 l 1,11,-1
 100 370 l 1,12,-1
 100 353 l 2,13,14
 100 328 100 328 124 328 c 2,15,-1
 149 328 l 1,16,-1
 150 396 l 2,17,18
 150 421 150 421 168 436.5 c 128,-1,19
 186 452 186 452 206 452 c 2,20,-1
 328 452 l 1,21,-1
 328 406 l 1,22,-1
 214 406 l 2,0,1
223 0 m 2,23,24
 221 0 221 0 209.5 1 c 128,-1,25
 198 2 198 2 184 14 c 1,26,27
 178 8 178 8 167.5 4 c 128,-1,28
 157 0 157 0 144 0 c 2,29,-1
 96 0 l 2,30,31
 75 0 75 0 57.5 16.5 c 128,-1,32
 40 33 40 33 40 58 c 2,33,-1
 40 171 l 1,34,35
 40 171 40 171 42 179 c 1,36,-1
 0 179 l 1,37,-1
 0 226 l 1,38,-1
 119 226 l 1,39,-1
 119 179 l 1,40,-1
 103 179 l 2,41,42
 97 179 97 179 92.5 175 c 128,-1,43
 88 171 88 171 88 164 c 2,44,-1
 88 62 l 2,45,46
 88 48 88 48 103 48 c 2,47,-1
 145 48 l 2,48,49
 153 48 153 48 156.5 52.5 c 128,-1,50
 160 57 160 57 160 62 c 2,51,-1
 160 107 l 1,52,-1
 208 107 l 1,53,-1
 208 61 l 2,54,55
 208 48 208 48 223 48 c 2,56,-1
 266 48 l 2,57,58
 271 48 271 48 275.5 51.5 c 128,-1,59
 280 55 280 55 280 63 c 2,60,-1
 280 266 l 2,61,62
 280 280 280 280 266 280 c 2,63,-1
 130 280 l 1,64,-1
 130 328 l 1,65,-1
 273 328 l 2,66,67
 294 328 294 328 311 312 c 128,-1,68
 328 296 328 296 328 270 c 2,69,-1
 328 58 l 2,70,71
 328 33 328 33 311 16.5 c 128,-1,72
 294 0 294 0 273 0 c 2,73,-1
 223 0 l 2,23,24
159 -84 m 1,74,-1
 159 -24 l 2,75,76
 161 -24 161 -24 168 -22 c 128,-1,77
 175 -20 175 -20 182 -8 c 1,78,79
 184 -16 184 -16 190.5 -20 c 128,-1,80
 197 -24 197 -24 200 -25 c 2,81,-1
 200 -84 l 1,82,-1
 159 -84 l 1,74,-1
EndSplineSet
Substitution2: "Single Substitution lookup 21 subtable" uni0C1B_uni0C4D.abvs
EndChar

StartChar: uni0C1C
Encoding: 3100 3100 135
Width: 342
GlyphClass: 2
Flags: W
LayerCount: 2
Back
Fore
SplineSet
181 0 m 2,0,1
 179 0 179 0 168.5 2 c 128,-1,2
 158 4 158 4 143 15 c 1,3,4
 137 9 137 9 126.5 4.5 c 128,-1,5
 116 0 116 0 102 0 c 2,6,-1
 56 0 l 2,7,8
 35 0 35 0 17.5 16.5 c 128,-1,9
 0 33 0 33 0 59 c 2,10,-1
 0 147 l 2,11,12
 0 173 0 173 17.5 189.5 c 128,-1,13
 35 206 35 206 56 206 c 2,14,-1
 105 206 l 2,15,16
 111 206 111 206 115.5 210 c 128,-1,17
 120 214 120 214 120 221 c 2,18,-1
 120 265 l 2,19,20
 120 273 120 273 115.5 276.5 c 128,-1,21
 111 280 111 280 105 280 c 2,22,-1
 61 280 l 2,23,24
 48 280 48 280 48 265 c 2,25,-1
 48 239 l 1,26,-1
 0 239 l 1,27,-1
 0 269 l 2,28,29
 0 295 0 295 17.5 311.5 c 128,-1,30
 35 328 35 328 56 328 c 2,31,-1
 112 328 l 2,32,33
 132 328 132 328 149.5 311.5 c 128,-1,34
 167 295 167 295 167 269 c 2,35,-1
 167 223 l 2,36,37
 167 215 167 215 171.5 211.5 c 128,-1,38
 176 208 176 208 181 208 c 2,39,-1
 224 208 l 2,40,41
 238 208 238 208 238 223 c 2,42,-1
 238 265 l 2,43,44
 238 273 238 273 233.5 276.5 c 128,-1,45
 229 280 229 280 224 280 c 2,46,-1
 207 280 l 1,47,-1
 207 328 l 1,48,-1
 230 328 l 2,49,50
 251 328 251 328 268.5 311.5 c 128,-1,51
 286 295 286 295 286 269 c 2,52,-1
 286 220 l 2,53,54
 286 194 286 194 268.5 177.5 c 128,-1,55
 251 161 251 161 230 161 c 2,56,-1
 182 161 l 2,57,58
 180 161 180 161 168.5 162 c 128,-1,59
 157 163 157 163 143 175 c 1,60,61
 137 170 137 170 126.5 164.5 c 128,-1,62
 116 159 116 159 102 159 c 2,63,-1
 61 159 l 2,64,65
 48 159 48 159 48 143 c 2,66,-1
 48 63 l 2,67,68
 48 48 48 48 61 48 c 2,69,-1
 103 48 l 2,70,71
 111 48 111 48 115 52.5 c 128,-1,72
 119 57 119 57 119 62 c 2,73,-1
 119 88 l 1,74,-1
 166 88 l 1,75,-1
 166 62 l 2,76,77
 166 48 166 48 181 48 c 2,78,-1
 226 48 l 2,79,80
 239 48 239 48 239 63 c 2,81,-1
 239 128 l 1,82,-1
 287 128 l 1,83,-1
 287 59 l 2,84,85
 287 33 287 33 269.5 16.5 c 128,-1,86
 252 0 252 0 231 0 c 2,87,-1
 181 0 l 2,0,1
EndSplineSet
Substitution2: "Single Substitution lookup 21 subtable" uni0C1C_uni0C4D.abvs
EndChar

StartChar: uni0C1D
Encoding: 3101 3101 136
Width: 566
GlyphClass: 2
Flags: W
LayerCount: 2
Back
Fore
SplineSet
62 0 m 2,0,1
 39 0 39 0 19.5 18.5 c 128,-1,2
 0 37 0 37 0 66 c 2,3,-1
 0 263 l 2,4,5
 0 291 0 291 19.5 309.5 c 128,-1,6
 39 328 39 328 62 328 c 2,7,-1
 187 328 l 2,8,9
 210 328 210 328 229.5 309.5 c 128,-1,10
 249 291 249 291 249 263 c 2,11,-1
 249 66 l 2,12,13
 249 46 249 46 241.5 33.5 c 128,-1,14
 234 21 234 21 224.5 13.5 c 128,-1,15
 215 6 215 6 205 3 c 128,-1,16
 195 0 195 0 189 0 c 2,17,-1
 62 0 l 2,0,1
201 263 m 2,18,19
 201 272 201 272 196 276 c 128,-1,20
 191 280 191 280 185 280 c 2,21,-1
 65 280 l 2,22,23
 48 280 48 280 48 263 c 2,24,-1
 48 66 l 2,25,26
 48 48 48 48 65 48 c 2,27,-1
 185 48 l 2,28,29
 191 48 191 48 196 52.5 c 128,-1,30
 201 57 201 57 201 66 c 2,31,-1
 201 263 l 2,18,19
187 404 m 2,32,33
 181 404 181 404 176.5 400.5 c 128,-1,34
 172 397 172 397 172 389 c 2,35,-1
 172 295 l 1,36,-1
 87 295 l 2,37,38
 85 295 85 295 74.5 295.5 c 128,-1,39
 64 296 64 296 51 300 c 128,-1,40
 38 304 38 304 28 314 c 128,-1,41
 18 324 18 324 18 342 c 2,42,-1
 18 380 l 1,43,-1
 65 380 l 1,44,-1
 65 346 l 2,45,46
 65 333 65 333 80 330 c 2,47,-1
 90 328 l 1,48,-1
 125 328 l 1,49,-1
 125 394 l 2,50,51
 125 420 125 420 142 436 c 128,-1,52
 159 452 159 452 181 452 c 2,53,-1
 249 452 l 1,54,-1
 249 404 l 1,55,-1
 187 404 l 2,32,33
272 0 m 2,56,57
 258 0 258 0 242 8.5 c 128,-1,58
 226 17 226 17 222 31 c 1,59,-1
 249 83 l 1,60,61
 254 65 254 65 259 56.5 c 128,-1,62
 264 48 264 48 274 48 c 2,63,-1
 320 48 l 2,64,65
 337 48 337 48 337 66 c 2,66,-1
 337 263 l 2,67,68
 337 280 337 280 320 280 c 2,69,-1
 305 280 l 1,70,-1
 305 328 l 1,71,-1
 322 328 l 2,72,73
 346 328 346 328 365 309.5 c 128,-1,74
 384 291 384 291 384 262 c 2,75,-1
 384 66 l 2,76,77
 384 37 384 37 365 18.5 c 128,-1,78
 346 0 346 0 322 0 c 2,79,-1
 272 0 l 2,56,57
406 0 m 2,80,81
 392 0 392 0 376 8.5 c 128,-1,82
 360 17 360 17 356 31 c 1,83,-1
 382 83 l 1,84,85
 387 65 387 65 392.5 56.5 c 128,-1,86
 398 48 398 48 408 48 c 2,87,-1
 454 48 l 2,88,89
 461 48 461 48 466 52.5 c 128,-1,90
 471 57 471 57 471 66 c 2,91,-1
 471 263 l 2,92,93
 471 280 471 280 454 280 c 2,94,-1
 439 280 l 1,95,-1
 439 328 l 1,96,-1
 456 328 l 2,97,98
 479 328 479 328 498.5 309.5 c 128,-1,99
 518 291 518 291 518 262 c 2,100,-1
 518 66 l 2,101,102
 518 37 518 37 498.5 18.5 c 128,-1,103
 479 0 479 0 456 0 c 2,104,-1
 406 0 l 2,80,81
341 -92 m 1,105,-1
 341 -22 l 2,106,107
 343 -22 343 -22 350 -20 c 128,-1,108
 357 -18 357 -18 364 -6 c 1,109,110
 366 -14 366 -14 372.5 -18 c 128,-1,111
 379 -22 379 -22 382 -23 c 2,112,-1
 382 -92 l 1,113,-1
 341 -92 l 1,105,-1
EndSplineSet
Substitution2: "Single Substitution lookup 21 subtable" uni0C1D_uni0C4D.abvs
EndChar

StartChar: uni0C1E
Encoding: 3102 3102 137
Width: 458
GlyphClass: 2
Flags: W
LayerCount: 2
Back
Fore
SplineSet
418 218 m 1,0,-1
 268 218 l 1,1,-1
 268 266 l 1,2,-1
 330 266 l 1,3,-1
 330 318 l 1,4,-1
 379 318 l 1,5,-1
 379 266 l 1,6,-1
 418 266 l 1,7,-1
 418 218 l 1,0,-1
363 -1 m 1,8,-1
 316 -1 l 1,9,-1
 316 122 l 2,10,11
 316 132 316 132 311 136.5 c 128,-1,12
 306 141 306 141 299 141 c 2,13,-1
 65 141 l 2,14,15
 58 141 58 141 53 136.5 c 128,-1,16
 48 132 48 132 48 122 c 2,17,-1
 48 65 l 2,18,19
 48 56 48 56 53 51.5 c 128,-1,20
 58 47 58 47 65 47 c 2,21,-1
 223 47 l 2,22,23
 229 47 229 47 233.5 51.5 c 128,-1,24
 238 56 238 56 238 65 c 2,25,-1
 238 262 l 2,26,27
 238 272 238 272 233 276 c 128,-1,28
 228 280 228 280 222 280 c 2,29,-1
 183 280 l 2,30,31
 166 280 166 280 166 262 c 2,32,-1
 166 240 l 1,33,-1
 119 240 l 1,34,-1
 119 262 l 2,35,36
 119 271 119 271 113.5 275.5 c 128,-1,37
 108 280 108 280 101 280 c 2,38,-1
 65 280 l 2,39,40
 48 280 48 280 48 262 c 2,41,-1
 48 220 l 1,42,-1
 0 220 l 1,43,-1
 0 262 l 2,44,45
 0 291 0 291 19.5 309.5 c 128,-1,46
 39 328 39 328 62 328 c 2,47,-1
 103 328 l 2,48,49
 115 328 115 328 125.5 322.5 c 128,-1,50
 136 317 136 317 142 309 c 1,51,52
 149 328 149 328 171 328 c 2,53,-1
 224 328 l 2,54,55
 247 328 247 328 266.5 309.5 c 128,-1,56
 286 291 286 291 286 262 c 2,57,-1
 286 65 l 2,58,59
 286 36 286 36 266.5 17.5 c 128,-1,60
 247 -1 247 -1 224 -1 c 2,61,-1
 62 -1 l 2,62,63
 39 -1 39 -1 19.5 17.5 c 128,-1,64
 0 36 0 36 0 65 c 2,65,-1
 0 122 l 2,66,67
 0 151 0 151 19.5 170 c 128,-1,68
 39 189 39 189 62 189 c 2,69,-1
 305 189 l 2,70,71
 328 189 328 189 345.5 172.5 c 128,-1,72
 363 156 363 156 363 126 c 2,73,-1
 363 -1 l 1,8,-1
EndSplineSet
Substitution2: "Single Substitution lookup 21 subtable" uni0C1E_uni0C4D.abvs
EndChar

StartChar: uni0C1F
Encoding: 3103 3103 138
Width: 359
GlyphClass: 2
Flags: W
LayerCount: 2
Back
Fore
SplineSet
60 391 m 1,0,-1
 108 391 l 1,1,-1
 108 329 l 1,2,3
 131 327 131 327 149 309 c 128,-1,4
 167 291 167 291 167 263 c 2,5,-1
 167 206 l 2,6,7
 167 177 167 177 147.5 158 c 128,-1,8
 128 139 128 139 104 139 c 2,9,-1
 48 139 l 1,10,-1
 48 67 l 2,11,12
 48 57 48 57 53 52.5 c 128,-1,13
 58 48 58 48 65 48 c 2,14,-1
 112 48 l 2,15,16
 130 48 130 48 130 67 c 2,17,-1
 130 107 l 1,18,-1
 177 107 l 1,19,-1
 177 67 l 2,20,21
 177 48 177 48 195 48 c 2,22,-1
 245 48 l 2,23,24
 252 48 252 48 257 52.5 c 128,-1,25
 262 57 262 57 262 67 c 2,26,-1
 262 264 l 2,27,28
 262 281 262 281 245 281 c 2,29,-1
 231 281 l 1,30,-1
 231 329 l 1,31,-1
 247 329 l 2,32,33
 270 329 270 329 290 310.5 c 128,-1,34
 310 292 310 292 310 263 c 2,35,-1
 310 67 l 2,36,37
 310 38 310 38 290 19 c 128,-1,38
 270 0 270 0 247 0 c 2,39,-1
 187 0 l 2,40,41
 166 0 166 0 155 11 c 1,42,43
 150 6 150 6 141.5 3 c 128,-1,44
 133 0 133 0 127 0 c 2,45,-1
 63 0 l 2,46,47
 39 0 39 0 19.5 19 c 128,-1,48
 0 38 0 38 0 67 c 2,49,-1
 0 263 l 2,50,51
 0 291 0 291 18.5 309.5 c 128,-1,52
 37 328 37 328 60 329 c 1,53,-1
 60 391 l 1,0,-1
120 264 m 2,54,55
 120 281 120 281 102 281 c 2,56,-1
 65 281 l 2,57,58
 48 281 48 281 48 264 c 2,59,-1
 48 186 l 1,60,-1
 102 186 l 2,61,62
 120 186 120 186 120 205 c 2,63,-1
 120 264 l 2,54,55
EndSplineSet
Substitution2: "Single Substitution lookup 21 subtable" uni0C1F_uni0C4D.abvs
EndChar

StartChar: uni0C20
Encoding: 3104 3104 139
Width: 307
GlyphClass: 2
Flags: W
LayerCount: 2
Back
Fore
SplineSet
62 0 m 2,0,1
 39 0 39 0 19.5 18.5 c 128,-1,2
 0 37 0 37 0 66 c 2,3,-1
 0 263 l 2,4,5
 0 291 0 291 19.5 309.5 c 128,-1,6
 39 328 39 328 62 328 c 2,7,-1
 187 328 l 2,8,9
 210 328 210 328 229.5 309.5 c 128,-1,10
 249 291 249 291 249 263 c 2,11,-1
 249 66 l 2,12,13
 249 46 249 46 241.5 33.5 c 128,-1,14
 234 21 234 21 224.5 13.5 c 128,-1,15
 215 6 215 6 205 3 c 128,-1,16
 195 0 195 0 189 0 c 2,17,-1
 62 0 l 2,0,1
201 263 m 2,18,19
 201 272 201 272 196 276 c 128,-1,20
 191 280 191 280 185 280 c 2,21,-1
 65 280 l 2,22,23
 48 280 48 280 48 263 c 2,24,-1
 48 66 l 2,25,26
 48 48 48 48 65 48 c 2,27,-1
 185 48 l 2,28,29
 191 48 191 48 196 52.5 c 128,-1,30
 201 57 201 57 201 66 c 2,31,-1
 201 263 l 2,18,19
187 404 m 2,32,33
 181 404 181 404 176.5 400.5 c 128,-1,34
 172 397 172 397 172 389 c 2,35,-1
 172 295 l 1,36,-1
 87 295 l 2,37,38
 85 295 85 295 74.5 295.5 c 128,-1,39
 64 296 64 296 51 300 c 128,-1,40
 38 304 38 304 28 314 c 128,-1,41
 18 324 18 324 18 342 c 2,42,-1
 18 380 l 1,43,-1
 65 380 l 1,44,-1
 65 346 l 2,45,46
 65 333 65 333 80 330 c 2,47,-1
 90 328 l 1,48,-1
 125 328 l 1,49,-1
 125 394 l 2,50,51
 125 420 125 420 142 436 c 128,-1,52
 159 452 159 452 181 452 c 2,53,-1
 249 452 l 1,54,-1
 249 404 l 1,55,-1
 187 404 l 2,32,33
105 136 m 1,56,-1
 105 184 l 1,57,-1
 146 184 l 1,58,-1
 146 136 l 1,59,-1
 105 136 l 1,56,-1
EndSplineSet
Substitution2: "Single Substitution lookup 21 subtable" uni0C20_uni0C4D.abvs
EndChar

StartChar: uni0C21
Encoding: 3105 3105 140
Width: 348
GlyphClass: 2
Flags: W
LayerCount: 2
Back
Fore
SplineSet
192 0 m 2,0,1
 190 0 190 0 179 1 c 128,-1,2
 168 2 168 2 154 15 c 1,3,4
 148 9 148 9 137 4.5 c 128,-1,5
 126 0 126 0 113 0 c 2,6,-1
 55 0 l 2,7,8
 35 0 35 0 17.5 16.5 c 128,-1,9
 0 33 0 33 0 58 c 2,10,-1
 0 270 l 2,11,12
 0 296 0 296 17.5 312 c 128,-1,13
 35 328 35 328 55 328 c 2,14,-1
 240 328 l 2,15,16
 261 328 261 328 278.5 312 c 128,-1,17
 296 296 296 296 296 270 c 2,18,-1
 296 241 l 1,19,-1
 248 241 l 1,20,-1
 248 266 l 2,21,22
 248 280 248 280 236 280 c 2,23,-1
 61 280 l 2,24,25
 48 280 48 280 48 266 c 2,26,-1
 48 63 l 2,27,28
 48 48 48 48 61 48 c 2,29,-1
 114 48 l 2,30,31
 122 48 122 48 126 52.5 c 128,-1,32
 130 57 130 57 130 62 c 2,33,-1
 130 107 l 1,34,-1
 177 107 l 1,35,-1
 177 63 l 2,36,37
 177 57 177 57 180.5 52.5 c 128,-1,38
 184 48 184 48 191 48 c 2,39,-1
 246 48 l 2,40,41
 258 48 258 48 258 64 c 2,42,-1
 258 143 l 2,43,44
 258 159 258 159 246 159 c 2,45,-1
 210 159 l 1,46,-1
 210 207 l 1,47,-1
 250 207 l 2,48,49
 271 207 271 207 288.5 191 c 128,-1,50
 306 175 306 175 306 149 c 2,51,-1
 306 60 l 2,52,53
 306 34 306 34 288.5 17 c 128,-1,54
 271 0 271 0 250 0 c 2,55,-1
 192 0 l 2,0,1
189 401 m 2,56,57
 183 401 183 401 178.5 397.5 c 128,-1,58
 174 394 174 394 174 386 c 2,59,-1
 174 295 l 1,60,-1
 70 295 l 2,61,62
 68 295 68 295 57 295.5 c 128,-1,63
 46 296 46 296 33 300 c 128,-1,64
 20 304 20 304 10 314 c 128,-1,65
 0 324 0 324 0 342 c 2,66,-1
 0 400 l 1,67,-1
 47 400 l 1,68,-1
 47 346 l 2,69,70
 47 333 47 333 62 330 c 2,71,-1
 72 328 l 1,72,-1
 127 328 l 1,73,-1
 127 389 l 2,74,75
 127 415 127 415 144.5 431 c 128,-1,76
 162 447 162 447 183 447 c 2,77,-1
 301 447 l 1,78,-1
 301 401 l 1,79,-1
 189 401 l 2,56,57
EndSplineSet
Substitution2: "Single Substitution lookup 21 subtable" uni0C21_uni0C4D.abvs
EndChar

StartChar: uni0C22
Encoding: 3106 3106 141
Width: 348
GlyphClass: 2
Flags: W
LayerCount: 2
Back
Fore
SplineSet
192 0 m 2,0,1
 190 0 190 0 179 1 c 128,-1,2
 168 2 168 2 154 15 c 1,3,4
 148 9 148 9 137 4.5 c 128,-1,5
 126 0 126 0 113 0 c 2,6,-1
 55 0 l 2,7,8
 35 0 35 0 17.5 16.5 c 128,-1,9
 0 33 0 33 0 58 c 2,10,-1
 0 270 l 2,11,12
 0 296 0 296 17.5 312 c 128,-1,13
 35 328 35 328 55 328 c 2,14,-1
 240 328 l 2,15,16
 261 328 261 328 278.5 312 c 128,-1,17
 296 296 296 296 296 270 c 2,18,-1
 296 241 l 1,19,-1
 248 241 l 1,20,-1
 248 266 l 2,21,22
 248 280 248 280 236 280 c 2,23,-1
 61 280 l 2,24,25
 48 280 48 280 48 266 c 2,26,-1
 48 63 l 2,27,28
 48 48 48 48 61 48 c 2,29,-1
 114 48 l 2,30,31
 122 48 122 48 126 52.5 c 128,-1,32
 130 57 130 57 130 62 c 2,33,-1
 130 107 l 1,34,-1
 177 107 l 1,35,-1
 177 63 l 2,36,37
 177 57 177 57 180.5 52.5 c 128,-1,38
 184 48 184 48 191 48 c 2,39,-1
 246 48 l 2,40,41
 258 48 258 48 258 64 c 2,42,-1
 258 143 l 2,43,44
 258 159 258 159 246 159 c 2,45,-1
 210 159 l 1,46,-1
 210 207 l 1,47,-1
 250 207 l 2,48,49
 271 207 271 207 288.5 191 c 128,-1,50
 306 175 306 175 306 149 c 2,51,-1
 306 60 l 2,52,53
 306 34 306 34 288.5 17 c 128,-1,54
 271 0 271 0 250 0 c 2,55,-1
 192 0 l 2,0,1
189 401 m 2,56,57
 183 401 183 401 178.5 397.5 c 128,-1,58
 174 394 174 394 174 386 c 2,59,-1
 174 295 l 1,60,-1
 70 295 l 2,61,62
 68 295 68 295 57 295.5 c 128,-1,63
 46 296 46 296 33 300 c 128,-1,64
 20 304 20 304 10 314 c 128,-1,65
 0 324 0 324 0 342 c 2,66,-1
 0 400 l 1,67,-1
 47 400 l 1,68,-1
 47 346 l 2,69,70
 47 333 47 333 62 330 c 2,71,-1
 72 328 l 1,72,-1
 127 328 l 1,73,-1
 127 389 l 2,74,75
 127 415 127 415 144.5 431 c 128,-1,76
 162 447 162 447 183 447 c 2,77,-1
 301 447 l 1,78,-1
 301 401 l 1,79,-1
 189 401 l 2,56,57
130 -95 m 1,80,-1
 130 -25 l 2,81,82
 132 -25 132 -25 139 -23 c 128,-1,83
 146 -21 146 -21 153 -9 c 1,84,85
 155 -17 155 -17 161.5 -21 c 128,-1,86
 168 -25 168 -25 171 -26 c 2,87,-1
 171 -95 l 1,88,-1
 130 -95 l 1,80,-1
EndSplineSet
Substitution2: "Single Substitution lookup 21 subtable" uni0C22_uni0C4D.abvs
EndChar

StartChar: uni0C23
Encoding: 3107 3107 142
Width: 358
GlyphClass: 2
Flags: W
LayerCount: 2
Back
Fore
SplineSet
191 0 m 2,0,1
 168 0 168 0 148.5 18.5 c 128,-1,2
 129 37 129 37 129 66 c 2,3,-1
 129 121 l 2,4,5
 129 150 129 150 148.5 168.5 c 128,-1,6
 168 187 168 187 191 187 c 2,7,-1
 248 187 l 2,8,9
 249 187 249 187 251.5 186.5 c 128,-1,10
 254 186 254 186 259 185 c 1,11,-1
 259 263 l 2,12,13
 259 280 259 280 242 280 c 2,14,-1
 193 280 l 2,15,16
 186 280 186 280 181 276 c 128,-1,17
 176 272 176 272 176 263 c 2,18,-1
 176 239 l 1,19,-1
 129 239 l 1,20,-1
 129 263 l 2,21,22
 129 272 129 272 123.5 276 c 128,-1,23
 118 280 118 280 111 280 c 2,24,-1
 65 280 l 2,25,26
 48 280 48 280 48 263 c 2,27,-1
 48 204 l 2,28,29
 48 187 48 187 65 187 c 2,30,-1
 88 187 l 1,31,-1
 88 140 l 1,32,-1
 65 140 l 2,33,34
 48 140 48 140 48 122 c 2,35,-1
 48 66 l 2,36,37
 48 57 48 57 53 52.5 c 128,-1,38
 58 48 58 48 65 48 c 2,39,-1
 88 48 l 1,40,-1
 88 0 l 1,41,-1
 63 0 l 2,42,43
 39 0 39 0 19.5 18.5 c 128,-1,44
 0 37 0 37 0 66 c 2,45,-1
 0 122 l 2,46,47
 0 140 0 140 4 148.5 c 128,-1,48
 8 157 8 157 15 164 c 1,49,50
 7 169 7 169 3.5 177 c 128,-1,51
 0 185 0 185 0 200 c 2,52,-1
 0 262 l 2,53,54
 0 291 0 291 19.5 309.5 c 128,-1,55
 39 328 39 328 63 328 c 2,56,-1
 114 328 l 2,57,58
 133 328 133 328 139 324 c 128,-1,59
 145 320 145 320 153 313 c 1,60,61
 158 320 158 320 165 324 c 128,-1,62
 172 328 172 328 183 328 c 2,63,-1
 244 328 l 2,64,65
 268 328 268 328 287.5 309.5 c 128,-1,66
 307 291 307 291 307 262 c 2,67,-1
 307 66 l 2,68,69
 307 37 307 37 287.5 18.5 c 128,-1,70
 268 0 268 0 244 0 c 2,71,-1
 191 0 l 2,0,1
259 126 m 1,72,73
 254 140 254 140 241 140 c 2,74,-1
 193 140 l 2,75,76
 186 140 186 140 181 135.5 c 128,-1,77
 176 131 176 131 176 122 c 2,78,-1
 176 66 l 2,79,80
 176 57 176 57 181 52.5 c 128,-1,81
 186 48 186 48 193 48 c 2,82,-1
 242 48 l 2,83,84
 249 48 249 48 254 52.5 c 128,-1,85
 259 57 259 57 259 66 c 2,86,-1
 259 126 l 1,72,73
EndSplineSet
Substitution2: "Single Substitution lookup 21 subtable" uni0C23_uni0C4D.abvs
EndChar

StartChar: uni0C24
Encoding: 3108 3108 143
Width: 360
GlyphClass: 2
Flags: W
LayerCount: 2
Back
Fore
SplineSet
63 0 m 2,0,1
 39 0 39 0 19.5 18.5 c 128,-1,2
 0 37 0 37 0 66 c 2,3,-1
 0 171 l 2,4,5
 0 199 0 199 14.5 217.5 c 128,-1,6
 29 236 29 236 54 236 c 2,7,-1
 91 236 l 2,8,9
 114 236 114 236 133.5 218 c 128,-1,10
 153 200 153 200 153 171 c 2,11,-1
 153 153 l 2,12,13
 153 124 153 124 133.5 105.5 c 128,-1,14
 114 87 114 87 91 87 c 2,15,-1
 48 87 l 1,16,-1
 48 66 l 2,17,18
 48 57 48 57 53 52.5 c 128,-1,19
 58 48 58 48 65 48 c 2,20,-1
 254 48 l 2,21,22
 260 48 260 48 265.5 52.5 c 128,-1,23
 271 57 271 57 271 66 c 2,24,-1
 271 87 l 1,25,-1
 228 87 l 2,26,27
 216 87 216 87 205 92 c 128,-1,28
 194 97 194 97 185 106 c 128,-1,29
 176 115 176 115 170.5 127.5 c 128,-1,30
 165 140 165 140 165 154 c 2,31,-1
 165 171 l 2,32,33
 165 200 165 200 185 218 c 128,-1,34
 205 236 205 236 228 236 c 2,35,-1
 251 236 l 1,36,37
 253 246 253 246 253 243 c 2,38,-1
 253 263 l 2,39,40
 253 274 253 274 251.5 277 c 128,-1,41
 250 280 250 280 242 280 c 2,42,-1
 50 280 l 1,43,-1
 50 328 l 1,44,-1
 241 328 l 2,45,46
 267 328 267 328 283.5 314 c 128,-1,47
 300 300 300 300 300 268 c 2,48,-1
 300 237 l 2,49,50
 300 227 300 227 297 220 c 1,51,52
 307 211 307 211 313 198 c 128,-1,53
 319 185 319 185 319 170 c 2,54,-1
 319 66 l 2,55,56
 319 37 319 37 299 18.5 c 128,-1,57
 279 0 279 0 256 0 c 2,58,-1
 63 0 l 2,0,1
271 170 m 2,59,60
 271 179 271 179 265.5 183.5 c 128,-1,61
 260 188 260 188 254 188 c 2,62,-1
 230 188 l 2,63,64
 224 188 224 188 219 183.5 c 128,-1,65
 214 179 214 179 214 170 c 2,66,-1
 214 153 l 2,67,68
 214 144 214 144 219 139.5 c 128,-1,69
 224 135 224 135 230 135 c 2,70,-1
 271 135 l 1,71,-1
 271 170 l 2,59,60
105 170 m 2,72,73
 105 179 105 179 100 183.5 c 128,-1,74
 95 188 95 188 88 188 c 2,75,-1
 56 188 l 2,76,77
 49 188 49 188 48.5 183 c 128,-1,78
 48 178 48 178 48 170 c 2,79,-1
 48 135 l 1,80,-1
 88 135 l 2,81,82
 95 135 95 135 100 139.5 c 128,-1,83
 105 144 105 144 105 153 c 2,84,-1
 105 170 l 2,72,73
197 403 m 2,85,86
 192 403 192 403 187.5 399.5 c 128,-1,87
 183 396 183 396 183 389 c 2,88,-1
 183 292 l 1,89,-1
 136 292 l 1,90,-1
 136 393 l 2,91,92
 136 418 136 418 153 433.5 c 128,-1,93
 170 449 170 449 190 449 c 2,94,-1
 317 449 l 1,95,-1
 317 403 l 1,96,-1
 197 403 l 2,85,86
EndSplineSet
Substitution2: "Single Substitution lookup 21 subtable" uni0C24_uni0C4D.abvs
EndChar

StartChar: uni0C25
Encoding: 3109 3109 144
Width: 362
GlyphClass: 2
Flags: W
LayerCount: 2
Back
Fore
SplineSet
192 0 m 2,0,1
 189 -1 189 -1 178.5 -0.5 c 128,-1,2
 168 0 168 0 154 14 c 1,3,4
 147 8 147 8 136.5 4 c 128,-1,5
 126 0 126 0 114 0 c 2,6,-1
 55 0 l 2,7,8
 34 0 34 0 17 16 c 128,-1,9
 0 32 0 32 0 58 c 2,10,-1
 0 270 l 2,11,12
 0 296 0 296 17 312 c 128,-1,13
 34 328 34 328 55 328 c 2,14,-1
 252 328 l 2,15,16
 273 328 273 328 290.5 312 c 128,-1,17
 308 296 308 296 308 270 c 2,18,-1
 308 58 l 2,19,20
 308 32 308 32 290.5 16 c 128,-1,21
 273 0 273 0 252 0 c 2,22,-1
 192 0 l 2,0,1
260 265 m 2,23,24
 260 280 260 280 246 280 c 2,25,-1
 60 280 l 2,26,27
 48 280 48 280 48 264 c 2,28,-1
 48 61 l 2,29,30
 48 48 48 48 60 48 c 2,31,-1
 115 48 l 2,32,33
 130 48 130 48 130 61 c 2,34,-1
 130 107 l 1,35,-1
 177 107 l 1,36,-1
 177 61 l 2,37,38
 177 48 177 48 191 48 c 2,39,-1
 246 48 l 2,40,41
 260 48 260 48 260 61 c 2,42,-1
 260 265 l 2,23,24
129 156 m 1,43,-1
 129 214 l 1,44,-1
 179 215 l 1,45,-1
 179 157 l 1,46,-1
 129 156 l 1,43,-1
241 405 m 2,47,48
 235 405 235 405 230.5 401.5 c 128,-1,49
 226 398 226 398 226 390 c 2,50,-1
 225 294 l 1,51,-1
 111 294 l 2,52,53
 109 294 109 294 98 294.5 c 128,-1,54
 87 295 87 295 74 299 c 128,-1,55
 61 303 61 303 51 313 c 128,-1,56
 41 323 41 323 41 341 c 2,57,-1
 41 399 l 1,58,-1
 88 399 l 1,59,-1
 88 345 l 2,60,61
 88 337 88 337 92 334 c 128,-1,62
 96 331 96 331 103 329 c 2,63,-1
 113 327 l 1,64,-1
 178 327 l 1,65,-1
 179 394 l 2,66,67
 180 420 180 420 196.5 435.5 c 128,-1,68
 213 451 213 451 235 451 c 2,69,-1
 309 451 l 1,70,-1
 309 405 l 1,71,-1
 241 405 l 2,47,48
130 -96 m 1,72,-1
 130 -26 l 2,73,74
 132 -26 132 -26 139 -24 c 128,-1,75
 146 -22 146 -22 153 -10 c 1,76,77
 155 -18 155 -18 161.5 -22 c 128,-1,78
 168 -26 168 -26 171 -27 c 2,79,-1
 171 -96 l 1,80,-1
 130 -96 l 1,72,-1
EndSplineSet
Substitution2: "Single Substitution lookup 21 subtable" uni0C25_uni0C4D.abvs
EndChar

StartChar: uni0C26
Encoding: 3110 3110 145
Width: 362
GlyphClass: 2
Flags: W
LayerCount: 2
Back
Fore
SplineSet
192 0 m 2,0,1
 189 -1 189 -1 178.5 -0.5 c 128,-1,2
 168 0 168 0 154 14 c 1,3,4
 147 8 147 8 136.5 4 c 128,-1,5
 126 0 126 0 114 0 c 2,6,-1
 55 0 l 2,7,8
 34 0 34 0 17 16 c 128,-1,9
 0 32 0 32 0 58 c 2,10,-1
 0 270 l 2,11,12
 0 296 0 296 17 312 c 128,-1,13
 34 328 34 328 55 328 c 2,14,-1
 252 328 l 2,15,16
 273 328 273 328 290.5 312 c 128,-1,17
 308 296 308 296 308 270 c 2,18,-1
 308 58 l 2,19,20
 308 32 308 32 290.5 16 c 128,-1,21
 273 0 273 0 252 0 c 2,22,-1
 192 0 l 2,0,1
260 265 m 2,23,24
 260 280 260 280 246 280 c 2,25,-1
 60 280 l 2,26,27
 48 280 48 280 48 264 c 2,28,-1
 48 61 l 2,29,30
 48 48 48 48 60 48 c 2,31,-1
 115 48 l 2,32,33
 130 48 130 48 130 61 c 2,34,-1
 130 107 l 1,35,-1
 177 107 l 1,36,-1
 177 61 l 2,37,38
 177 48 177 48 191 48 c 2,39,-1
 246 48 l 2,40,41
 260 48 260 48 260 61 c 2,42,-1
 260 265 l 2,23,24
241 405 m 2,43,44
 235 405 235 405 230.5 401.5 c 128,-1,45
 226 398 226 398 226 390 c 2,46,-1
 225 294 l 1,47,-1
 111 294 l 2,48,49
 109 294 109 294 98 294.5 c 128,-1,50
 87 295 87 295 74 299 c 128,-1,51
 61 303 61 303 51 313 c 128,-1,52
 41 323 41 323 41 341 c 2,53,-1
 41 399 l 1,54,-1
 88 399 l 1,55,-1
 88 345 l 2,56,57
 88 337 88 337 92 334 c 128,-1,58
 96 331 96 331 103 329 c 2,59,-1
 113 327 l 1,60,-1
 178 327 l 1,61,-1
 179 394 l 2,62,63
 180 420 180 420 196.5 435.5 c 128,-1,64
 213 451 213 451 235 451 c 2,65,-1
 309 451 l 1,66,-1
 309 405 l 1,67,-1
 241 405 l 2,43,44
EndSplineSet
Substitution2: "Single Substitution lookup 21 subtable" uni0C26_uni0C4D.abvs
EndChar

StartChar: uni0C27
Encoding: 3111 3111 146
Width: 362
GlyphClass: 2
Flags: W
LayerCount: 2
Back
Fore
SplineSet
192 0 m 2,0,1
 189 -1 189 -1 178.5 -0.5 c 128,-1,2
 168 0 168 0 154 14 c 1,3,4
 147 8 147 8 136.5 4 c 128,-1,5
 126 0 126 0 114 0 c 2,6,-1
 55 0 l 2,7,8
 34 0 34 0 17 16 c 128,-1,9
 0 32 0 32 0 58 c 2,10,-1
 0 270 l 2,11,12
 0 296 0 296 17 312 c 128,-1,13
 34 328 34 328 55 328 c 2,14,-1
 252 328 l 2,15,16
 273 328 273 328 290.5 312 c 128,-1,17
 308 296 308 296 308 270 c 2,18,-1
 308 58 l 2,19,20
 308 32 308 32 290.5 16 c 128,-1,21
 273 0 273 0 252 0 c 2,22,-1
 192 0 l 2,0,1
260 265 m 2,23,24
 260 280 260 280 246 280 c 2,25,-1
 60 280 l 2,26,27
 48 280 48 280 48 264 c 2,28,-1
 48 61 l 2,29,30
 48 48 48 48 60 48 c 2,31,-1
 115 48 l 2,32,33
 130 48 130 48 130 61 c 2,34,-1
 130 107 l 1,35,-1
 177 107 l 1,36,-1
 177 61 l 2,37,38
 177 48 177 48 191 48 c 2,39,-1
 246 48 l 2,40,41
 260 48 260 48 260 61 c 2,42,-1
 260 265 l 2,23,24
241 405 m 2,43,44
 235 405 235 405 230.5 401.5 c 128,-1,45
 226 398 226 398 226 390 c 2,46,-1
 225 294 l 1,47,-1
 111 294 l 2,48,49
 109 294 109 294 98 294.5 c 128,-1,50
 87 295 87 295 74 299 c 128,-1,51
 61 303 61 303 51 313 c 128,-1,52
 41 323 41 323 41 341 c 2,53,-1
 41 399 l 1,54,-1
 88 399 l 1,55,-1
 88 345 l 2,56,57
 88 337 88 337 92 334 c 128,-1,58
 96 331 96 331 103 329 c 2,59,-1
 113 327 l 1,60,-1
 178 327 l 1,61,-1
 179 394 l 2,62,63
 180 420 180 420 196.5 435.5 c 128,-1,64
 213 451 213 451 235 451 c 2,65,-1
 309 451 l 1,66,-1
 309 405 l 1,67,-1
 241 405 l 2,43,44
130 -96 m 1,68,-1
 130 -26 l 2,69,70
 132 -26 132 -26 139 -24 c 128,-1,71
 146 -22 146 -22 153 -10 c 1,72,73
 155 -18 155 -18 161.5 -22 c 128,-1,74
 168 -26 168 -26 171 -27 c 2,75,-1
 171 -96 l 1,76,-1
 130 -96 l 1,68,-1
EndSplineSet
Substitution2: "Single Substitution lookup 21 subtable" uni0C27_uni0C4D.abvs
EndChar

StartChar: uni0C28
Encoding: 3112 3112 147
Width: 359
GlyphClass: 2
Flags: W
LayerCount: 2
Back
Fore
SplineSet
192 0 m 2,0,1
 169 0 169 0 149 18.5 c 128,-1,2
 129 37 129 37 129 66 c 2,3,-1
 129 153 l 2,4,5
 129 162 129 162 124 166 c 128,-1,6
 119 170 119 170 112 171 c 2,7,-1
 65 171 l 2,8,9
 48 171 48 171 48 153 c 2,10,-1
 48 0 l 1,11,-1
 0 0 l 1,12,-1
 0 154 l 2,13,14
 0 183 0 183 19.5 200.5 c 128,-1,15
 39 218 39 218 63 218 c 2,16,-1
 114 218 l 2,17,18
 137 218 137 218 157 200.5 c 128,-1,19
 177 183 177 183 177 154 c 2,20,-1
 177 66 l 2,21,22
 177 57 177 57 182 52.5 c 128,-1,23
 187 48 187 48 194 48 c 2,24,-1
 242 48 l 2,25,26
 248 48 248 48 253 52.5 c 128,-1,27
 258 57 258 57 258 66 c 2,28,-1
 258 263 l 2,29,30
 258 272 258 272 253 276 c 128,-1,31
 248 280 248 280 242 280 c 2,32,-1
 34 280 l 1,33,-1
 34 328 l 1,34,-1
 244 328 l 2,35,36
 267 328 267 328 286.5 309.5 c 128,-1,37
 306 291 306 291 306 263 c 2,38,-1
 306 66 l 2,39,40
 306 36 306 36 286.5 18 c 128,-1,41
 267 0 267 0 244 0 c 2,42,-1
 192 0 l 2,0,1
177 409 m 2,43,44
 172 409 172 409 167.5 405.5 c 128,-1,45
 163 402 163 402 163 395 c 2,46,-1
 163 292 l 1,47,-1
 116 292 l 1,48,-1
 116 399 l 2,49,50
 116 424 116 424 133 439.5 c 128,-1,51
 150 455 150 455 170 455 c 2,52,-1
 306 455 l 1,53,-1
 306 409 l 1,54,-1
 177 409 l 2,43,44
EndSplineSet
Substitution2: "Single Substitution lookup 21 subtable" uni0C28_uni0C4D.abvs
EndChar

StartChar: uni0C2A
Encoding: 3114 3114 148
Width: 355
GlyphClass: 2
Flags: W
LayerCount: 2
Back
Fore
SplineSet
191 0 m 2,0,1
 183 0 183 0 171.5 4 c 128,-1,2
 160 8 160 8 152 16 c 1,3,4
 146 10 146 10 135 5 c 128,-1,5
 124 0 124 0 116 0 c 2,6,-1
 63 0 l 2,7,8
 39 0 39 0 19.5 18.5 c 128,-1,9
 0 37 0 37 0 66 c 2,10,-1
 0 164 l 2,11,12
 0 193 0 193 19.5 210.5 c 128,-1,13
 39 228 39 228 63 228 c 2,14,-1
 112 228 l 2,15,16
 136 228 136 228 155.5 210.5 c 128,-1,17
 175 193 175 193 175 164 c 2,18,-1
 175 66 l 2,19,20
 175 48 175 48 193 48 c 2,21,-1
 240 48 l 2,22,23
 246 48 246 48 251 52.5 c 128,-1,24
 256 57 256 57 256 66 c 2,25,-1
 256 263 l 2,26,27
 256 280 256 280 240 280 c 2,28,-1
 225 280 l 1,29,-1
 225 328 l 1,30,-1
 242 328 l 2,31,32
 265 328 265 328 284.5 309.5 c 128,-1,33
 304 291 304 291 304 262 c 2,34,-1
 304 66 l 2,35,36
 304 37 304 37 284.5 18.5 c 128,-1,37
 265 0 265 0 242 0 c 2,38,-1
 191 0 l 2,0,1
128 163 m 2,39,40
 128 181 128 181 110 181 c 2,41,-1
 65 181 l 2,42,43
 48 181 48 181 48 163 c 2,44,-1
 48 66 l 2,45,46
 48 57 48 57 53 52.5 c 128,-1,47
 58 48 58 48 65 48 c 2,48,-1
 110 48 l 2,49,50
 128 48 128 48 128 66 c 2,51,-1
 128 163 l 2,39,40
166 404 m 2,52,53
 154 404 154 404 154 390 c 2,54,-1
 154 341 l 2,55,56
 154 312 154 312 138.5 295.5 c 128,-1,57
 123 279 123 279 98 279 c 2,58,-1
 1 279 l 1,59,-1
 1 327 l 1,60,-1
 91 327 l 2,61,62
 106 327 106 327 106 341 c 2,63,-1
 106 388 l 2,64,65
 106 417 106 417 123 434.5 c 128,-1,66
 140 452 140 452 163 452 c 2,67,-1
 245 452 l 1,68,-1
 245 404 l 1,69,-1
 166 404 l 2,52,53
EndSplineSet
Substitution2: "Single Substitution lookup 21 subtable" uni0C2A_uni0C4D.abvs
EndChar

StartChar: uni0C2B
Encoding: 3115 3115 149
Width: 355
GlyphClass: 2
Flags: W
LayerCount: 2
Back
Fore
SplineSet
191 0 m 2,0,1
 183 0 183 0 171.5 4 c 128,-1,2
 160 8 160 8 152 16 c 1,3,4
 146 10 146 10 135 5 c 128,-1,5
 124 0 124 0 116 0 c 2,6,-1
 63 0 l 2,7,8
 39 0 39 0 19.5 18.5 c 128,-1,9
 0 37 0 37 0 66 c 2,10,-1
 0 164 l 2,11,12
 0 193 0 193 19.5 210.5 c 128,-1,13
 39 228 39 228 63 228 c 2,14,-1
 112 228 l 2,15,16
 136 228 136 228 155.5 210.5 c 128,-1,17
 175 193 175 193 175 164 c 2,18,-1
 175 66 l 2,19,20
 175 48 175 48 193 48 c 2,21,-1
 240 48 l 2,22,23
 246 48 246 48 251 52.5 c 128,-1,24
 256 57 256 57 256 66 c 2,25,-1
 256 263 l 2,26,27
 256 280 256 280 240 280 c 2,28,-1
 225 280 l 1,29,-1
 225 328 l 1,30,-1
 242 328 l 2,31,32
 265 328 265 328 284.5 309.5 c 128,-1,33
 304 291 304 291 304 262 c 2,34,-1
 304 66 l 2,35,36
 304 37 304 37 284.5 18.5 c 128,-1,37
 265 0 265 0 242 0 c 2,38,-1
 191 0 l 2,0,1
128 163 m 2,39,40
 128 181 128 181 110 181 c 2,41,-1
 65 181 l 2,42,43
 48 181 48 181 48 163 c 2,44,-1
 48 66 l 2,45,46
 48 57 48 57 53 52.5 c 128,-1,47
 58 48 58 48 65 48 c 2,48,-1
 110 48 l 2,49,50
 128 48 128 48 128 66 c 2,51,-1
 128 163 l 2,39,40
166 404 m 2,52,53
 154 404 154 404 154 390 c 2,54,-1
 154 341 l 2,55,56
 154 312 154 312 138.5 295.5 c 128,-1,57
 123 279 123 279 98 279 c 2,58,-1
 1 279 l 1,59,-1
 1 327 l 1,60,-1
 91 327 l 2,61,62
 106 327 106 327 106 341 c 2,63,-1
 106 388 l 2,64,65
 106 417 106 417 123 434.5 c 128,-1,66
 140 452 140 452 163 452 c 2,67,-1
 245 452 l 1,68,-1
 245 404 l 1,69,-1
 166 404 l 2,52,53
129 -83 m 1,70,-1
 129 -23 l 2,71,72
 131 -23 131 -23 138 -21 c 128,-1,73
 145 -19 145 -19 152 -7 c 1,74,75
 154 -15 154 -15 160.5 -19 c 128,-1,76
 167 -23 167 -23 170 -24 c 2,77,-1
 170 -83 l 1,78,-1
 129 -83 l 1,70,-1
EndSplineSet
Substitution2: "Single Substitution lookup 21 subtable" uni0C2B_uni0C4D.abvs
EndChar

StartChar: uni0C2C
Encoding: 3116 3116 150
Width: 345
GlyphClass: 2
Flags: W
LayerCount: 2
Back
Fore
SplineSet
179 0 m 2,0,1
 171 0 171 0 161 4.5 c 128,-1,2
 151 9 151 9 145 14 c 1,3,4
 137 9 137 9 126.5 4.5 c 128,-1,5
 116 0 116 0 105 0 c 2,6,-1
 63 0 l 2,7,8
 39 0 39 0 19.5 18.5 c 128,-1,9
 0 37 0 37 0 66 c 2,10,-1
 0 142 l 2,11,12
 0 171 0 171 19.5 189.5 c 128,-1,13
 39 208 39 208 63 208 c 2,14,-1
 102 208 l 2,15,16
 120 208 120 208 120 225 c 2,17,-1
 120 263 l 2,18,19
 120 280 120 280 102 280 c 2,20,-1
 65 280 l 2,21,22
 48 280 48 280 48 263 c 2,23,-1
 48 230 l 1,24,-1
 0 230 l 1,25,-1
 0 262 l 2,26,27
 0 291 0 291 19.5 309.5 c 128,-1,28
 39 328 39 328 63 328 c 2,29,-1
 104 328 l 2,30,31
 128 328 128 328 147.5 309.5 c 128,-1,32
 167 291 167 291 167 262 c 2,33,-1
 167 226 l 2,34,35
 167 197 167 197 147.5 178.5 c 128,-1,36
 128 160 128 160 104 160 c 2,37,-1
 65 160 l 2,38,39
 58 160 58 160 53 155.5 c 128,-1,40
 48 151 48 151 48 142 c 2,41,-1
 48 66 l 2,42,43
 48 57 48 57 53 52.5 c 128,-1,44
 58 48 58 48 65 48 c 2,45,-1
 102 48 l 2,46,47
 120 48 120 48 120 66 c 2,48,-1
 120 108 l 1,49,-1
 167 108 l 1,50,-1
 167 66 l 2,51,52
 167 48 167 48 185 48 c 2,53,-1
 225 48 l 2,54,55
 232 48 232 48 237 52.5 c 128,-1,56
 242 57 242 57 242 66 c 2,57,-1
 242 263 l 2,58,59
 242 280 242 280 225 280 c 2,60,-1
 211 280 l 1,61,-1
 211 328 l 1,62,-1
 227 328 l 2,63,64
 250 328 250 328 270 309.5 c 128,-1,65
 290 291 290 291 290 262 c 2,66,-1
 290 66 l 2,67,68
 290 37 290 37 270 18.5 c 128,-1,69
 250 0 250 0 227 0 c 2,70,-1
 179 0 l 2,0,1
EndSplineSet
Substitution2: "Single Substitution lookup 21 subtable" uni0C2C_uni0C4D.abvs
EndChar

StartChar: uni0C2D
Encoding: 3117 3117 151
Width: 345
GlyphClass: 2
Flags: W
LayerCount: 2
Back
Fore
SplineSet
303 406 m 1,0,-1
 264 406 l 2,1,2
 250 406 250 406 250 391 c 2,3,-1
 251 280 l 1,4,-1
 196 280 l 2,5,6
 194 280 194 280 183 281 c 128,-1,7
 172 282 172 282 159 287.5 c 128,-1,8
 146 293 146 293 135.5 303.5 c 128,-1,9
 125 314 125 314 125 332 c 2,10,-1
 125 360 l 1,11,-1
 172 360 l 1,12,-1
 172 346 l 2,13,14
 172 335 172 335 175 332.5 c 128,-1,15
 178 330 178 330 187 328 c 2,16,-1
 202 328 l 1,17,-1
 202 395 l 2,18,19
 202 421 202 421 219.5 436.5 c 128,-1,20
 237 452 237 452 258 452 c 2,21,-1
 303 452 l 1,22,-1
 303 406 l 1,0,-1
290 66 m 2,23,24
 290 37 290 37 270 18.5 c 128,-1,25
 250 0 250 0 227 0 c 2,26,-1
 179 0 l 2,27,28
 171 0 171 0 161 4.5 c 128,-1,29
 151 9 151 9 145 14 c 1,30,31
 137 9 137 9 126.5 4.5 c 128,-1,32
 116 0 116 0 105 0 c 2,33,-1
 63 0 l 2,34,35
 39 0 39 0 19.5 18.5 c 128,-1,36
 0 37 0 37 0 66 c 2,37,-1
 0 122 l 2,38,39
 0 151 0 151 19.5 169.5 c 128,-1,40
 39 188 39 188 63 188 c 2,41,-1
 102 188 l 2,42,43
 120 188 120 188 120 205 c 2,44,-1
 120 233 l 2,45,46
 120 250 120 250 102 250 c 2,47,-1
 65 250 l 2,48,49
 48 250 48 250 48 233 c 2,50,-1
 48 207 l 1,51,-1
 0 207 l 1,52,-1
 0 232 l 2,53,54
 0 261 0 261 19.5 279.5 c 128,-1,55
 39 298 39 298 63 298 c 2,56,-1
 104 298 l 2,57,58
 128 298 128 298 147.5 279.5 c 128,-1,59
 167 261 167 261 167 232 c 2,60,-1
 167 206 l 2,61,62
 167 177 167 177 147.5 158.5 c 128,-1,63
 128 140 128 140 104 140 c 2,64,-1
 65 140 l 2,65,66
 58 140 58 140 53 135.5 c 128,-1,67
 48 131 48 131 48 122 c 2,68,-1
 48 66 l 2,69,70
 48 57 48 57 53 52.5 c 128,-1,71
 58 48 58 48 65 48 c 2,72,-1
 102 48 l 2,73,74
 120 48 120 48 120 66 c 2,75,-1
 120 108 l 1,76,-1
 167 108 l 1,77,-1
 167 66 l 2,78,79
 167 48 167 48 185 48 c 2,80,-1
 225 48 l 2,81,82
 232 48 232 48 237 52.5 c 128,-1,83
 242 57 242 57 242 66 c 2,84,-1
 242 263 l 2,85,86
 242 280 242 280 225 280 c 2,87,-1
 211 280 l 1,88,-1
 211 328 l 1,89,-1
 227 328 l 2,90,91
 250 328 250 328 270 309.5 c 128,-1,92
 290 291 290 291 290 262 c 2,93,-1
 290 66 l 2,23,24
162 -86 m 1,94,-1
 121 -86 l 1,95,-1
 121 -26 l 2,96,97
 123 -26 123 -26 130 -24 c 128,-1,98
 137 -22 137 -22 144 -10 c 1,99,100
 146 -18 146 -18 152.5 -22 c 128,-1,101
 159 -26 159 -26 162 -27 c 2,102,-1
 162 -86 l 1,94,-1
EndSplineSet
Substitution2: "Single Substitution lookup 21 subtable" uni0C2D_uni0C4D.abvs
EndChar

StartChar: uni0C2E
Encoding: 3118 3118 152
Width: 479
GlyphClass: 2
Flags: W
LayerCount: 2
Back
Fore
SplineSet
182 0 m 2,0,1
 158 0 158 0 141 16 c 1,2,3
 135 10 135 10 124.5 5 c 128,-1,4
 114 0 114 0 106 0 c 2,5,-1
 61 0 l 2,6,7
 38 0 38 0 18.5 19 c 128,-1,8
 -1 38 -1 38 -1 67 c 2,9,-1
 -1 164 l 2,10,11
 -1 192 -1 192 18.5 211 c 128,-1,12
 38 230 38 230 61 230 c 2,13,-1
 102 230 l 2,14,15
 125 230 125 230 144.5 211 c 128,-1,16
 164 192 164 192 164 164 c 2,17,-1
 164 67 l 2,18,19
 164 48 164 48 184 48 c 2,20,-1
 222 48 l 2,21,22
 228 48 228 48 233 52.5 c 128,-1,23
 238 57 238 57 238 67 c 2,24,-1
 238 264 l 2,25,26
 238 282 238 282 222 282 c 2,27,-1
 0 282 l 1,28,-1
 0 330 l 1,29,-1
 77 330 l 1,30,-1
 77 385 l 2,31,32
 77 414 77 414 96.5 433 c 128,-1,33
 116 452 116 452 140 452 c 2,34,-1
 256 452 l 1,35,-1
 256 404 l 1,36,-1
 142 404 l 2,37,38
 125 404 125 404 125 385 c 2,39,-1
 125 330 l 1,40,-1
 224 330 l 2,41,42
 247 330 247 330 266.5 311 c 128,-1,43
 286 292 286 292 286 263 c 2,44,-1
 286 67 l 2,45,46
 286 38 286 38 266.5 19 c 128,-1,47
 247 0 247 0 224 0 c 2,48,-1
 182 0 l 2,0,1
117 165 m 2,49,50
 117 173 117 173 112 177.5 c 128,-1,51
 107 182 107 182 100 182 c 2,52,-1
 63 182 l 2,53,54
 47 182 47 182 47 165 c 2,55,-1
 47 67 l 2,56,57
 47 57 47 57 52 52.5 c 128,-1,58
 57 48 57 48 63 48 c 2,59,-1
 100 48 l 2,60,61
 107 48 107 48 112 52.5 c 128,-1,62
 117 57 117 57 117 67 c 2,63,-1
 117 165 l 2,49,50
309 0 m 2,64,65
 295 0 295 0 279 8.5 c 128,-1,66
 263 17 263 17 259 31 c 1,67,-1
 286 83 l 1,68,69
 286 62 286 62 293.5 55 c 128,-1,70
 301 48 301 48 311 48 c 2,71,-1
 367 48 l 2,72,73
 384 48 384 48 384 66 c 2,74,-1
 384 263 l 2,75,76
 384 280 384 280 367 280 c 2,77,-1
 352 280 l 1,78,-1
 352 328 l 1,79,-1
 369 328 l 2,80,81
 393 328 393 328 412 309.5 c 128,-1,82
 431 291 431 291 431 262 c 2,83,-1
 431 66 l 2,84,85
 431 37 431 37 412 18.5 c 128,-1,86
 393 0 393 0 369 0 c 2,87,-1
 309 0 l 2,64,65
EndSplineSet
Substitution2: "Single Substitution lookup 21 subtable" uni0C2E_uni0C4D.abvs
EndChar

StartChar: uni0C2F
Encoding: 3119 3119 153
Width: 618
GlyphClass: 2
Flags: W
LayerCount: 2
Back
Fore
SplineSet
254 0 m 2,0,1
 239 0 239 0 227.5 8 c 128,-1,2
 216 16 216 16 212 25 c 1,3,4
 207 16 207 16 197.5 8 c 128,-1,5
 188 0 188 0 173 0 c 2,6,-1
 63 0 l 2,7,8
 39 0 39 0 19.5 18.5 c 128,-1,9
 0 37 0 37 0 66 c 2,10,-1
 0 263 l 2,11,12
 0 291 0 291 19.5 309.5 c 128,-1,13
 39 328 39 328 63 328 c 2,14,-1
 174 328 l 2,15,16
 197 328 197 328 217 309.5 c 128,-1,17
 237 291 237 291 237 263 c 2,18,-1
 237 66 l 2,19,20
 237 57 237 57 242 52.5 c 128,-1,21
 247 48 247 48 253 48 c 2,22,-1
 355 48 l 2,23,24
 372 48 372 48 372 66 c 2,25,-1
 372 263 l 2,26,27
 372 280 372 280 355 280 c 2,28,-1
 271 280 l 1,29,-1
 271 328 l 1,30,-1
 357 328 l 2,31,32
 381 328 381 328 400.5 309.5 c 128,-1,33
 420 291 420 291 420 263 c 2,34,-1
 420 66 l 2,35,36
 420 48 420 48 412.5 35.5 c 128,-1,37
 405 23 405 23 395.5 15 c 128,-1,38
 386 7 386 7 375.5 3.5 c 128,-1,39
 365 0 365 0 359 0 c 2,40,-1
 254 0 l 2,0,1
188 263 m 2,41,42
 188 280 188 280 172 280 c 2,43,-1
 66 280 l 2,44,45
 48 280 48 280 48 263 c 2,46,-1
 48 66 l 2,47,48
 48 48 48 48 66 48 c 2,49,-1
 172 48 l 2,50,51
 178 48 178 48 183 52.5 c 128,-1,52
 188 57 188 57 188 66 c 2,53,-1
 188 263 l 2,41,42
444 0 m 2,54,55
 430 0 430 0 414 8.5 c 128,-1,56
 398 17 398 17 394 31 c 1,57,-1
 420 75 l 1,58,59
 420 58 420 58 428 53 c 128,-1,60
 436 48 436 48 446 48 c 2,61,-1
 502 48 l 2,62,63
 509 48 509 48 514 52.5 c 128,-1,64
 519 57 519 57 519 66 c 2,65,-1
 519 263 l 2,66,67
 519 280 519 280 502 280 c 2,68,-1
 487 280 l 1,69,-1
 487 328 l 1,70,-1
 504 328 l 2,71,72
 527 328 527 328 546.5 309.5 c 128,-1,73
 566 291 566 291 566 262 c 2,74,-1
 566 66 l 2,75,76
 566 37 566 37 546.5 18.5 c 128,-1,77
 527 0 527 0 504 0 c 2,78,-1
 444 0 l 2,54,55
349 405 m 2,79,80
 344 405 344 405 339.5 401.5 c 128,-1,81
 335 398 335 398 335 391 c 2,82,-1
 335 282 l 1,83,-1
 288 282 l 1,84,-1
 288 396 l 2,85,86
 288 421 288 421 305 436.5 c 128,-1,87
 322 452 322 452 342 452 c 2,88,-1
 419 452 l 1,89,-1
 419 405 l 1,90,-1
 349 405 l 2,79,80
EndSplineSet
Substitution2: "Single Substitution lookup 21 subtable" uni0C2F_uni0C4D.abvs
EndChar

StartChar: uni0C30
Encoding: 3120 3120 154
Width: 307
GlyphClass: 2
Flags: W
LayerCount: 2
Back
Fore
SplineSet
62 0 m 2,0,1
 39 0 39 0 19.5 18.5 c 128,-1,2
 0 37 0 37 0 66 c 2,3,-1
 0 263 l 2,4,5
 0 291 0 291 19.5 309.5 c 128,-1,6
 39 328 39 328 62 328 c 2,7,-1
 187 328 l 2,8,9
 210 328 210 328 229.5 309.5 c 128,-1,10
 249 291 249 291 249 263 c 2,11,-1
 249 66 l 2,12,13
 249 46 249 46 241.5 33.5 c 128,-1,14
 234 21 234 21 224.5 13.5 c 128,-1,15
 215 6 215 6 205 3 c 128,-1,16
 195 0 195 0 189 0 c 2,17,-1
 62 0 l 2,0,1
201 263 m 2,18,19
 201 272 201 272 196 276 c 128,-1,20
 191 280 191 280 185 280 c 2,21,-1
 65 280 l 2,22,23
 48 280 48 280 48 263 c 2,24,-1
 48 66 l 2,25,26
 48 48 48 48 65 48 c 2,27,-1
 185 48 l 2,28,29
 191 48 191 48 196 52.5 c 128,-1,30
 201 57 201 57 201 66 c 2,31,-1
 201 263 l 2,18,19
187 404 m 2,32,33
 181 404 181 404 176.5 400.5 c 128,-1,34
 172 397 172 397 172 389 c 2,35,-1
 172 295 l 1,36,-1
 87 295 l 2,37,38
 85 295 85 295 74.5 295.5 c 128,-1,39
 64 296 64 296 51 300 c 128,-1,40
 38 304 38 304 28 314 c 128,-1,41
 18 324 18 324 18 342 c 2,42,-1
 18 380 l 1,43,-1
 65 380 l 1,44,-1
 65 346 l 2,45,46
 65 333 65 333 80 330 c 2,47,-1
 90 328 l 1,48,-1
 125 328 l 1,49,-1
 125 394 l 2,50,51
 125 420 125 420 142 436 c 128,-1,52
 159 452 159 452 181 452 c 2,53,-1
 249 452 l 1,54,-1
 249 404 l 1,55,-1
 187 404 l 2,32,33
EndSplineSet
Substitution2: "Single Substitution lookup 21 subtable" uni0C30_uni0C4D.abvs
EndChar

StartChar: uni0C31
Encoding: 3121 3121 155
Width: 365
GlyphClass: 2
Flags: W
LayerCount: 2
Back
Fore
SplineSet
187 0 m 2,0,1
 166 0 166 0 155 11 c 1,2,3
 150 6 150 6 141.5 3 c 128,-1,4
 133 0 133 0 127 0 c 2,5,-1
 63 0 l 2,6,7
 39 0 39 0 19.5 18.5 c 128,-1,8
 0 37 0 37 0 66 c 2,9,-1
 0 262 l 2,10,11
 0 291 0 291 19.5 309.5 c 128,-1,12
 39 328 39 328 63 328 c 2,13,-1
 89 328 l 2,14,15
 113 328 113 328 132.5 309.5 c 128,-1,16
 152 291 152 291 152 262 c 2,17,-1
 152 226 l 2,18,19
 152 197 152 197 132.5 178.5 c 128,-1,20
 113 160 113 160 89 160 c 2,21,-1
 48 160 l 1,22,-1
 48 66 l 2,23,24
 48 57 48 57 53 52.5 c 128,-1,25
 58 48 58 48 65 48 c 2,26,-1
 112 48 l 2,27,28
 130 48 130 48 130 66 c 2,29,-1
 130 84 l 1,30,-1
 178 84 l 1,31,-1
 178 66 l 2,32,33
 178 57 178 57 183 52.5 c 128,-1,34
 188 48 188 48 195 48 c 2,35,-1
 255 48 l 2,36,37
 262 48 262 48 267 52.5 c 128,-1,38
 272 57 272 57 272 66 c 2,39,-1
 272 263 l 2,40,41
 272 280 272 280 255 280 c 2,42,-1
 234 280 l 2,43,44
 218 280 218 280 218 263 c 2,45,-1
 218 155 l 1,46,-1
 234 155 l 1,47,-1
 234 106 l 1,48,-1
 64 106 l 1,49,-1
 64 154 l 1,50,-1
 170 154 l 1,51,-1
 170 262 l 2,52,53
 170 291 170 291 189.5 309.5 c 128,-1,54
 209 328 209 328 232 328 c 2,55,-1
 257 328 l 2,56,57
 281 328 281 328 300.5 309.5 c 128,-1,58
 320 291 320 291 320 262 c 2,59,-1
 320 66 l 2,60,61
 320 37 320 37 300.5 18.5 c 128,-1,62
 281 0 281 0 257 0 c 2,63,-1
 187 0 l 2,0,1
104 263 m 2,64,65
 104 280 104 280 87 280 c 2,66,-1
 65 280 l 2,67,68
 48 280 48 280 48 263 c 2,69,-1
 48 208 l 1,70,-1
 87 208 l 2,71,72
 104 208 104 208 104 226 c 2,73,-1
 104 263 l 2,64,65
EndSplineSet
Substitution2: "Single Substitution lookup 21 subtable" uni0C31_uni0C4D.abvs
EndChar

StartChar: uni0C32
Encoding: 3122 3122 156
Width: 344
GlyphClass: 2
Flags: W
LayerCount: 2
Back
Fore
SplineSet
63 0 m 2,0,1
 39 0 39 0 19.5 18.5 c 128,-1,2
 0 37 0 37 0 66 c 2,3,-1
 0 262 l 2,4,5
 0 291 0 291 19.5 309.5 c 128,-1,6
 39 328 39 328 63 328 c 2,7,-1
 106 328 l 2,8,9
 129 328 129 328 149 309.5 c 128,-1,10
 169 291 169 291 169 262 c 2,11,-1
 169 204 l 2,12,13
 169 175 169 175 149 156.5 c 128,-1,14
 129 138 129 138 106 138 c 2,15,-1
 48 138 l 1,16,-1
 48 66 l 2,17,18
 48 57 48 57 53 52.5 c 128,-1,19
 58 48 58 48 65 48 c 2,20,-1
 226 48 l 2,21,22
 232 48 232 48 237 52.5 c 128,-1,23
 242 57 242 57 242 66 c 2,24,-1
 242 263 l 2,25,26
 242 280 242 280 226 280 c 2,27,-1
 216 280 l 1,28,-1
 216 328 l 1,29,-1
 228 328 l 2,30,31
 251 328 251 328 270.5 309.5 c 128,-1,32
 290 291 290 291 290 262 c 2,33,-1
 290 66 l 2,34,35
 290 37 290 37 270.5 18.5 c 128,-1,36
 251 0 251 0 228 0 c 2,37,-1
 63 0 l 2,0,1
121 263 m 2,38,39
 121 272 121 272 116 276 c 128,-1,40
 111 280 111 280 104 280 c 2,41,-1
 65 280 l 2,42,43
 48 280 48 280 48 263 c 2,44,-1
 48 185 l 1,45,-1
 104 185 l 2,46,47
 111 185 111 185 116 190 c 128,-1,48
 121 195 121 195 121 204 c 2,49,-1
 121 263 l 2,38,39
EndSplineSet
Substitution2: "Single Substitution lookup 21 subtable" uni0C32_uni0C4D.abvs
EndChar

StartChar: uni0C33
Encoding: 3123 3123 157
Width: 353
GlyphClass: 2
Flags: W
LayerCount: 2
Back
Fore
SplineSet
255 125 m 1,0,1
 258 119 258 119 258 111 c 2,2,-1
 258 65 l 2,3,4
 258 36 258 36 239 18 c 128,-1,5
 220 0 220 0 185 0 c 2,6,-1
 111 0 l 2,7,8
 85 0 85 0 67.5 18 c 128,-1,9
 50 36 50 36 50 65 c 2,10,-1
 50 102 l 2,11,12
 50 112 50 112 52 120 c 1,13,14
 46 121 46 121 37 126.5 c 128,-1,15
 28 132 28 132 20 142 c 128,-1,16
 12 152 12 152 6 166.5 c 128,-1,17
 0 181 0 181 0 200 c 2,18,-1
 0 262 l 2,19,20
 0 291 0 291 19 309.5 c 128,-1,21
 38 328 38 328 61 328 c 2,22,-1
 88 328 l 2,23,24
 104 328 104 328 116 322 c 128,-1,25
 128 316 128 316 135 307.5 c 128,-1,26
 142 299 142 299 145.5 289 c 128,-1,27
 149 279 149 279 149 271 c 2,28,-1
 149 244 l 2,29,30
 149 229 149 229 142.5 219 c 128,-1,31
 136 209 136 209 127 202.5 c 128,-1,32
 118 196 118 196 108 193 c 128,-1,33
 98 190 98 190 91 190 c 2,34,-1
 50 190 l 1,35,36
 50 175 50 175 55 171.5 c 128,-1,37
 60 168 60 168 67 168 c 2,38,-1
 230 168 l 2,39,40
 237 168 237 168 243.5 172 c 128,-1,41
 250 176 250 176 250 190 c 2,42,-1
 250 263 l 2,43,44
 250 280 250 280 233 280 c 2,45,-1
 167 280 l 1,46,-1
 167 328 l 1,47,-1
 235 328 l 2,48,49
 260 328 260 328 279 310 c 128,-1,50
 298 292 298 292 298 263 c 2,51,-1
 298 185 l 2,52,53
 298 173 298 173 293.5 162.5 c 128,-1,54
 289 152 289 152 282 144.5 c 128,-1,55
 275 137 275 137 268 132 c 128,-1,56
 261 127 261 127 255 125 c 1,0,1
102 272 m 2,57,58
 102 280 102 280 91 280 c 2,59,-1
 60 280 l 2,60,61
 52 280 52 280 50 277.5 c 128,-1,62
 48 275 48 275 48 269 c 2,63,-1
 48 252 l 2,64,65
 48 248 48 248 50.5 244.5 c 128,-1,66
 53 241 53 241 61 241 c 2,67,-1
 89 241 l 2,68,69
 102 241 102 241 102 250 c 2,70,-1
 102 272 l 2,57,58
210 99 m 2,71,72
 210 112 210 112 204.5 116.5 c 128,-1,73
 199 121 199 121 191 121 c 2,74,-1
 116 121 l 2,75,76
 107 121 107 121 102 118 c 128,-1,77
 97 115 97 115 97 102 c 2,78,-1
 97 66 l 2,79,80
 97 55 97 55 102 51.5 c 128,-1,81
 107 48 107 48 115 48 c 2,82,-1
 192 48 l 2,83,84
 210 48 210 48 210 69 c 2,85,-1
 210 99 l 2,71,72
243 394 m 2,86,87
 238 394 238 394 233.5 390.5 c 128,-1,88
 229 387 229 387 229 380 c 2,89,-1
 229 287 l 1,90,-1
 182 287 l 1,91,-1
 182 384 l 2,92,93
 182 409 182 409 199 424.5 c 128,-1,94
 216 440 216 440 236 440 c 2,95,-1
 299 440 l 1,96,-1
 299 394 l 1,97,-1
 243 394 l 2,86,87
EndSplineSet
Substitution2: "Single Substitution lookup 21 subtable" uni0C33_uni0C4D.abvs
EndChar

StartChar: uni0C34
Encoding: 3124 3124 158
Width: 377
GlyphClass: 2
Flags: W
LayerCount: 2
Back
Fore
SplineSet
330 67 m 2,0,1
 330 41 330 41 313 20.5 c 128,-1,2
 296 0 296 0 267 0 c 2,3,-1
 197 0 l 2,4,5
 176 0 176 0 165 11 c 1,6,7
 160 6 160 6 151.5 3 c 128,-1,8
 143 0 143 0 137 0 c 2,9,-1
 63 0 l 2,10,11
 39 0 39 0 19.5 18.5 c 128,-1,12
 0 37 0 37 0 66 c 2,13,-1
 0 262 l 2,14,15
 0 291 0 291 19.5 309.5 c 128,-1,16
 39 328 39 328 63 328 c 2,17,-1
 89 328 l 2,18,19
 113 328 113 328 132.5 309.5 c 128,-1,20
 152 291 152 291 152 262 c 2,21,-1
 152 226 l 2,22,23
 152 197 152 197 132.5 178.5 c 128,-1,24
 113 160 113 160 89 160 c 2,25,-1
 48 160 l 1,26,-1
 48 66 l 2,27,28
 48 57 48 57 53 52.5 c 128,-1,29
 58 48 58 48 65 48 c 2,30,-1
 122 48 l 2,31,32
 140 48 140 48 140 66 c 2,33,-1
 140 104 l 1,34,-1
 188 104 l 1,35,-1
 188 66 l 2,36,37
 188 57 188 57 193 52.5 c 128,-1,38
 198 48 198 48 205 48 c 2,39,-1
 265 48 l 2,40,41
 272 48 272 48 277 54.5 c 128,-1,42
 282 61 282 61 282 66 c 2,43,-1
 282 161 l 1,44,-1
 241 161 l 2,45,46
 217 161 217 161 197.5 179.5 c 128,-1,47
 178 198 178 198 178 227 c 2,48,-1
 178 262 l 2,49,50
 178 291 178 291 197.5 310 c 128,-1,51
 217 329 217 329 241 329 c 2,52,-1
 266 329 l 2,53,54
 291 329 291 329 310.5 310 c 128,-1,55
 330 291 330 291 330 262 c 2,56,-1
 330 67 l 2,0,1
282 209 m 1,57,-1
 282 263 l 2,58,59
 282 281 282 281 264 281 c 2,60,-1
 243 281 l 2,61,62
 225 281 225 281 225 263 c 2,63,-1
 225 226 l 2,64,65
 225 209 225 209 243 209 c 2,66,-1
 282 209 l 1,57,-1
104 263 m 2,67,68
 104 280 104 280 87 280 c 2,69,-1
 65 280 l 2,70,71
 48 280 48 280 48 263 c 2,72,-1
 48 208 l 1,73,-1
 87 208 l 2,74,75
 104 208 104 208 104 226 c 2,76,-1
 104 263 l 2,67,68
EndSplineSet
EndChar

StartChar: uni0C35
Encoding: 3125 3125 159
Width: 341
GlyphClass: 2
Flags: W
LayerCount: 2
Back
Fore
SplineSet
182 0 m 2,0,1
 158 0 158 0 141 16 c 1,2,3
 135 10 135 10 124.5 5 c 128,-1,4
 114 0 114 0 106 0 c 2,5,-1
 61 0 l 2,6,7
 38 0 38 0 18.5 19 c 128,-1,8
 -1 38 -1 38 -1 67 c 2,9,-1
 -1 164 l 2,10,11
 -1 192 -1 192 18.5 211 c 128,-1,12
 38 230 38 230 61 230 c 2,13,-1
 102 230 l 2,14,15
 125 230 125 230 144.5 211 c 128,-1,16
 164 192 164 192 164 164 c 2,17,-1
 164 67 l 2,18,19
 164 48 164 48 184 48 c 2,20,-1
 222 48 l 2,21,22
 228 48 228 48 233 52.5 c 128,-1,23
 238 57 238 57 238 67 c 2,24,-1
 238 264 l 2,25,26
 238 282 238 282 222 282 c 2,27,-1
 0 282 l 1,28,-1
 0 330 l 1,29,-1
 77 330 l 1,30,-1
 77 385 l 2,31,32
 77 414 77 414 96.5 433 c 128,-1,33
 116 452 116 452 140 452 c 2,34,-1
 256 452 l 1,35,-1
 256 404 l 1,36,-1
 142 404 l 2,37,38
 125 404 125 404 125 385 c 2,39,-1
 125 330 l 1,40,-1
 224 330 l 2,41,42
 247 330 247 330 266.5 311 c 128,-1,43
 286 292 286 292 286 263 c 2,44,-1
 286 67 l 2,45,46
 286 38 286 38 266.5 19 c 128,-1,47
 247 0 247 0 224 0 c 2,48,-1
 182 0 l 2,0,1
117 165 m 2,49,50
 117 173 117 173 112 177.5 c 128,-1,51
 107 182 107 182 100 182 c 2,52,-1
 63 182 l 2,53,54
 47 182 47 182 47 165 c 2,55,-1
 47 67 l 2,56,57
 47 57 47 57 52 52.5 c 128,-1,58
 57 48 57 48 63 48 c 2,59,-1
 100 48 l 2,60,61
 107 48 107 48 112 52.5 c 128,-1,62
 117 57 117 57 117 67 c 2,63,-1
 117 165 l 2,49,50
EndSplineSet
Substitution2: "Single Substitution lookup 21 subtable" uni0C35_uni0C4D.abvs
EndChar

StartChar: uni0C36
Encoding: 3126 3126 160
Width: 343
GlyphClass: 2
Flags: W
LayerCount: 2
Back
Fore
SplineSet
156 0 m 2,0,1
 135 0 135 0 117.5 17 c 128,-1,2
 100 34 100 34 100 60 c 2,3,-1
 100 161 l 2,4,5
 100 173 100 173 103 179 c 1,6,-1
 61 179 l 2,7,8
 48 179 48 179 48 164 c 2,9,-1
 48 38 l 1,10,-1
 0 38 l 1,11,-1
 0 169 l 2,12,13
 0 194 0 194 17.5 210 c 128,-1,14
 35 226 35 226 55 226 c 2,15,-1
 227 226 l 2,16,17
 235 226 235 226 238 231.5 c 128,-1,18
 241 237 241 237 241 243 c 2,19,-1
 241 266 l 2,20,21
 241 280 241 280 228 280 c 2,22,-1
 80 280 l 1,23,-1
 80 328 l 1,24,-1
 233 328 l 2,25,26
 254 328 254 328 271.5 311.5 c 128,-1,27
 289 295 289 295 289 269 c 2,28,-1
 289 236 l 2,29,30
 289 227 289 227 285 219.5 c 128,-1,31
 281 212 281 212 276 205 c 1,32,33
 289 192 289 192 289 169 c 2,34,-1
 289 60 l 2,35,36
 289 34 289 34 271.5 17 c 128,-1,37
 254 0 254 0 233 0 c 2,38,-1
 156 0 l 2,0,1
241 164 m 2,39,40
 241 179 241 179 228 179 c 2,41,-1
 163 179 l 2,42,43
 147 179 147 179 147 164 c 2,44,-1
 147 62 l 2,45,46
 147 48 147 48 163 48 c 2,47,-1
 228 48 l 2,48,49
 241 48 241 48 241 62 c 2,50,-1
 241 164 l 2,39,40
178 393 m 2,51,52
 173 393 173 393 168.5 389.5 c 128,-1,53
 164 386 164 386 164 379 c 2,54,-1
 164 286 l 1,55,-1
 117 286 l 1,56,-1
 117 383 l 2,57,58
 117 408 117 408 134 423.5 c 128,-1,59
 151 439 151 439 171 439 c 2,60,-1
 292 439 l 1,61,-1
 292 393 l 1,62,-1
 178 393 l 2,51,52
EndSplineSet
Substitution2: "Single Substitution lookup 21 subtable" uni0C36_uni0C4D.abvs
EndChar

StartChar: uni0C37
Encoding: 3127 3127 161
Width: 348
GlyphClass: 2
Flags: W
LayerCount: 2
Back
Fore
SplineSet
166 404 m 2,0,1
 154 404 154 404 154 390 c 2,2,-1
 154 341 l 2,3,4
 154 312 154 312 138.5 295.5 c 128,-1,5
 123 279 123 279 98 279 c 2,6,-1
 1 279 l 1,7,-1
 1 327 l 1,8,-1
 91 327 l 2,9,10
 106 327 106 327 106 341 c 2,11,-1
 106 388 l 2,12,13
 106 417 106 417 123 434.5 c 128,-1,14
 140 452 140 452 163 452 c 2,15,-1
 245 452 l 1,16,-1
 245 404 l 1,17,-1
 166 404 l 2,0,1
256 -3 m 1,18,-1
 181 -3 l 2,19,20
 172 -3 172 -3 161 1 c 128,-1,21
 150 5 150 5 142 13 c 1,22,23
 136 7 136 7 125 2 c 128,-1,24
 114 -3 114 -3 106 -3 c 2,25,-1
 62 -3 l 2,26,27
 39 -3 39 -3 19.5 16 c 128,-1,28
 0 35 0 35 0 64 c 2,29,-1
 0 162 l 2,30,31
 0 191 0 191 19.5 208.5 c 128,-1,32
 39 226 39 226 62 226 c 2,33,-1
 102 226 l 2,34,35
 126 226 126 226 145.5 208.5 c 128,-1,36
 165 191 165 191 165 162 c 2,37,-1
 165 64 l 2,38,39
 165 54 165 54 170 49.5 c 128,-1,40
 175 45 175 45 182 45 c 2,41,-1
 239 45 l 2,42,43
 256 45 256 45 256 64 c 2,44,-1
 256 262 l 2,45,46
 256 279 256 279 239 279 c 2,47,-1
 217 279 l 1,48,-1
 217 327 l 1,49,-1
 241 327 l 2,50,51
 265 327 265 327 284.5 308.5 c 128,-1,52
 304 290 304 290 304 262 c 0,53,54
 304 232 304 232 304 190 c 128,-1,55
 304 148 304 148 303.5 109.5 c 128,-1,56
 303 71 303 71 303 42.5 c 128,-1,57
 303 14 303 14 303 10 c 0,58,59
 303 -1 303 -1 306.5 -7.5 c 128,-1,60
 310 -14 310 -14 322 -14 c 1,61,-1
 322 -55 l 1,62,-1
 298 -55 l 2,63,64
 281 -55 281 -55 268.5 -44.5 c 128,-1,65
 256 -34 256 -34 256 -20 c 2,66,-1
 256 -3 l 1,18,-1
117 162 m 2,67,68
 117 179 117 179 101 179 c 2,69,-1
 66 179 l 2,70,71
 48 179 48 179 48 162 c 2,72,-1
 48 64 l 2,73,74
 48 45 48 45 66 45 c 2,75,-1
 101 45 l 2,76,77
 107 45 107 45 112 49.5 c 128,-1,78
 117 54 117 54 117 64 c 2,79,-1
 117 162 l 2,67,68
EndSplineSet
Substitution2: "Single Substitution lookup 21 subtable" uni0C37_uni0C4D.abvs
EndChar

StartChar: uni0C38
Encoding: 3128 3128 162
Width: 347
GlyphClass: 2
Flags: W
LayerCount: 2
Back
Fore
SplineSet
166 404 m 2,0,1
 154 404 154 404 154 390 c 2,2,-1
 154 341 l 2,3,4
 154 312 154 312 138.5 295.5 c 128,-1,5
 123 279 123 279 98 279 c 2,6,-1
 1 279 l 1,7,-1
 1 327 l 1,8,-1
 91 327 l 2,9,10
 106 327 106 327 106 341 c 2,11,-1
 106 388 l 2,12,13
 106 417 106 417 123 434.5 c 128,-1,14
 140 452 140 452 163 452 c 2,15,-1
 245 452 l 1,16,-1
 245 404 l 1,17,-1
 166 404 l 2,0,1
179 -3 m 2,18,19
 155 -3 155 -3 135.5 16 c 128,-1,20
 116 35 116 35 116 64 c 2,21,-1
 116 151 l 2,22,23
 116 159 116 159 111 163 c 128,-1,24
 106 167 106 167 101 167 c 2,25,-1
 66 167 l 2,26,27
 48 167 48 167 48 151 c 2,28,-1
 48 -3 l 1,29,-1
 0 -3 l 1,30,-1
 0 152 l 2,31,32
 0 181 0 181 19 198.5 c 128,-1,33
 38 216 38 216 62 216 c 2,34,-1
 101 216 l 2,35,36
 124 216 124 216 144 198.5 c 128,-1,37
 164 181 164 181 164 152 c 2,38,-1
 164 64 l 2,39,40
 164 54 164 54 169 49.5 c 128,-1,41
 174 45 174 45 181 45 c 2,42,-1
 239 45 l 2,43,44
 245 45 245 45 250.5 50 c 128,-1,45
 256 55 256 55 256 64 c 2,46,-1
 256 262 l 2,47,48
 256 270 256 270 250.5 274.5 c 128,-1,49
 245 279 245 279 239 279 c 2,50,-1
 227 279 l 1,51,-1
 227 327 l 1,52,-1
 241 327 l 2,53,54
 267 327 267 327 285 308.5 c 128,-1,55
 303 290 303 290 303 262 c 2,56,-1
 303 64 l 2,57,58
 303 35 303 35 283.5 16 c 128,-1,59
 264 -3 264 -3 241 -3 c 2,60,-1
 179 -3 l 2,18,19
EndSplineSet
Substitution2: "Single Substitution lookup 21 subtable" uni0C38_uni0C4D.abvs
EndChar

StartChar: uni0C39
Encoding: 3129 3129 163
Width: 544
GlyphClass: 2
Flags: W
LayerCount: 2
Back
Fore
SplineSet
166 404 m 2,0,1
 154 404 154 404 154 390 c 2,2,-1
 154 341 l 2,3,4
 154 312 154 312 138.5 295.5 c 128,-1,5
 123 279 123 279 98 279 c 2,6,-1
 1 279 l 1,7,-1
 1 327 l 1,8,-1
 91 327 l 2,9,10
 106 327 106 327 106 341 c 2,11,-1
 106 388 l 2,12,13
 106 417 106 417 123 434.5 c 128,-1,14
 140 452 140 452 163 452 c 2,15,-1
 245 452 l 1,16,-1
 245 404 l 1,17,-1
 166 404 l 2,0,1
407 -1 m 2,18,19
 384 -1 384 -1 363.5 18 c 128,-1,20
 343 37 343 37 343 66 c 2,21,-1
 343 162 l 2,22,23
 343 190 343 190 363 209 c 128,-1,24
 383 228 383 228 407 228 c 2,25,-1
 448 228 l 1,26,-1
 448 265 l 2,27,28
 448 274 448 274 442.5 278.5 c 128,-1,29
 437 283 437 283 430 283 c 2,30,-1
 227 283 l 1,31,-1
 227 331 l 1,32,-1
 432 331 l 2,33,34
 456 331 456 331 476 312 c 128,-1,35
 496 293 496 293 496 264 c 2,36,-1
 496 66 l 2,37,38
 496 37 496 37 476 18 c 128,-1,39
 456 -1 456 -1 432 -1 c 2,40,-1
 407 -1 l 2,18,19
184 0 m 2,41,42
 175 0 175 0 164 4 c 128,-1,43
 153 8 153 8 145 16 c 1,44,45
 139 10 139 10 127.5 5 c 128,-1,46
 116 0 116 0 108 0 c 2,47,-1
 64 0 l 2,48,49
 39 0 39 0 19.5 19 c 128,-1,50
 0 38 0 38 0 67 c 2,51,-1
 0 165 l 2,52,53
 0 194 0 194 20 212 c 128,-1,54
 40 230 40 230 64 230 c 2,55,-1
 104 230 l 2,56,57
 128 230 128 230 148 212 c 128,-1,58
 168 194 168 194 168 165 c 2,59,-1
 168 67 l 2,60,61
 168 48 168 48 186 48 c 2,62,-1
 243 48 l 2,63,64
 250 48 250 48 255 52.5 c 128,-1,65
 260 57 260 57 260 67 c 2,66,-1
 260 265 l 2,67,68
 260 274 260 274 255 278.5 c 128,-1,69
 250 283 250 283 243 283 c 2,70,-1
 229 283 l 1,71,-1
 229 331 l 1,72,-1
 245 331 l 2,73,74
 269 331 269 331 289 312 c 128,-1,75
 309 293 309 293 309 264 c 2,76,-1
 309 67 l 2,77,78
 309 38 309 38 289 19 c 128,-1,79
 269 0 269 0 245 0 c 2,80,-1
 184 0 l 2,41,42
448 180 m 1,81,-1
 409 180 l 2,82,83
 402 180 402 180 397 176 c 128,-1,84
 392 172 392 172 392 162 c 2,85,-1
 392 67 l 2,86,87
 392 58 392 58 397 53 c 128,-1,88
 402 48 402 48 409 48 c 2,89,-1
 430 48 l 2,90,91
 437 48 437 48 442.5 53 c 128,-1,92
 448 58 448 58 448 67 c 2,93,-1
 448 180 l 1,81,-1
120 164 m 2,94,95
 120 182 120 182 102 182 c 2,96,-1
 66 182 l 2,97,98
 48 182 48 182 48 164 c 2,99,-1
 48 67 l 2,100,101
 48 48 48 48 66 48 c 2,102,-1
 102 48 l 2,103,104
 120 48 120 48 120 67 c 2,105,-1
 120 164 l 2,94,95
EndSplineSet
Substitution2: "Single Substitution lookup 21 subtable" uni0C39_uni0C4D.abvs
EndChar

StartChar: uni0C3D
Encoding: 3133 3133 164
Width: 509
GlyphClass: 2
Flags: W
LayerCount: 2
Back
Fore
SplineSet
67 0 m 2,0,1
 42 0 42 0 22 18 c 128,-1,2
 2 36 2 36 2 65 c 2,3,-1
 2 98 l 1,4,-1
 2 107 l 2,5,6
 4 116 4 116 8 126 c 0,7,8
 14 137 14 137 26.5 146.5 c 128,-1,9
 39 156 39 156 61 159 c 2,10,-1
 197 177 l 2,11,12
 208 179 208 179 213 184 c 128,-1,13
 218 189 218 189 218 203 c 2,14,-1
 218 277 l 2,15,16
 218 295 218 295 198 295 c 2,17,-1
 183 295 l 1,18,-1
 183 260 l 2,19,20
 183 231 183 231 163.5 213 c 128,-1,21
 144 195 144 195 118 195 c 2,22,-1
 93 195 l 2,23,24
 68 195 68 195 48 213 c 128,-1,25
 28 231 28 231 28 260 c 2,26,-1
 28 277 l 2,27,28
 28 306 28 306 48 323.5 c 128,-1,29
 68 341 68 341 93 341 c 2,30,-1
 201 341 l 2,31,32
 226 341 226 341 246 323 c 128,-1,33
 266 305 266 305 266 276 c 2,34,-1
 266 198 l 2,35,36
 266 169 266 169 246.5 152.5 c 128,-1,37
 227 136 227 136 201 132 c 2,38,-1
 71 114 l 2,39,40
 58 112 58 112 53.5 108.5 c 128,-1,41
 49 105 49 105 49 98 c 2,42,-1
 49 65 l 2,43,44
 49 46 49 46 69 46 c 2,45,-1
 478 47 l 1,46,-1
 478 0 l 1,47,-1
 67 0 l 2,0,1
95 295 m 2,48,49
 75 295 75 295 75 277 c 2,50,-1
 75 260 l 2,51,52
 75 242 75 242 95 242 c 2,53,-1
 117 242 l 2,54,55
 125 242 125 242 131 246.5 c 128,-1,56
 137 251 137 251 137 260 c 2,57,-1
 137 295 l 1,58,-1
 95 295 l 2,48,49
EndSplineSet
EndChar

StartChar: uni0C3E
Encoding: 3134 3134 165
Width: 202
GlyphClass: 2
Flags: W
LayerCount: 2
Back
Fore
SplineSet
58 -1 m 2,0,1
 35 -1 35 -1 15.5 17.5 c 128,-1,2
 -4 36 -4 36 -4 65 c 2,3,-1
 -4 160 l 2,4,5
 -4 189 -4 189 15.5 207.5 c 128,-1,6
 35 226 35 226 58 226 c 2,7,-1
 99 226 l 1,8,-1
 99 269 l 2,9,10
 99 286 99 286 81 286 c 2,11,-1
 -334 286 l 1,12,-1
 -334 334 l 1,13,-1
 83 334 l 2,14,15
 108 334 108 334 127.5 315.5 c 128,-1,16
 147 297 147 297 147 268 c 2,17,-1
 147 65 l 2,18,19
 147 36 147 36 127.5 17.5 c 128,-1,20
 108 -1 108 -1 83 -1 c 2,21,-1
 58 -1 l 2,0,1
99 179 m 1,22,-1
 61 179 l 2,23,24
 44 179 44 179 44 161 c 2,25,-1
 44 66 l 2,26,27
 44 57 44 57 49 52.5 c 128,-1,28
 54 48 54 48 61 48 c 2,29,-1
 81 48 l 2,30,31
 99 48 99 48 99 66 c 2,32,-1
 99 179 l 1,22,-1
EndSplineSet
EndChar

